<svg width="1363" height="167" viewBox="0 0 1363 167" fill="none" xmlns="http://www.w3.org/2000/svg">
<rect width="1363" height="167" rx="15" fill="#F0F0F0"/>
<path d="M0 15C0 6.71573 6.71573 0 15 0H37V167H15C6.71573 167 0 160.284 0 152V15Z" fill="#1FA6D1"/>
<path d="M100.906 50.9219L93.3945 48.2383V45.0859L103.602 49.375V51.6367L100.906 50.9219ZM93.3945 53.1719L100.918 50.4297L103.602 49.7852V52.0352L93.3945 56.3242V53.1719ZM118.836 43.8555L114.195 58H110.457L116.797 40.9375H119.176L118.836 43.8555ZM122.691 58L118.039 43.8555L117.664 40.9375H120.066L126.441 58H122.691ZM122.48 51.6484V54.4023H113.469V51.6484H122.48ZM134.668 54.4961C134.668 54.2539 134.598 54.0352 134.457 53.8398C134.316 53.6445 134.055 53.4648 133.672 53.3008C133.297 53.1289 132.754 52.9727 132.043 52.832C131.402 52.6914 130.805 52.5156 130.25 52.3047C129.703 52.0859 129.227 51.8242 128.82 51.5195C128.422 51.2148 128.109 50.8555 127.883 50.4414C127.656 50.0195 127.543 49.5391 127.543 49C127.543 48.4688 127.656 47.9688 127.883 47.5C128.117 47.0312 128.449 46.6172 128.879 46.2578C129.316 45.8906 129.848 45.6055 130.473 45.4023C131.105 45.1914 131.816 45.0859 132.605 45.0859C133.707 45.0859 134.652 45.2617 135.441 45.6133C136.238 45.9648 136.848 46.4492 137.27 47.0664C137.699 47.6758 137.914 48.3711 137.914 49.1523H134.539C134.539 48.8242 134.469 48.5312 134.328 48.2734C134.195 48.0078 133.984 47.8008 133.695 47.6523C133.414 47.4961 133.047 47.418 132.594 47.418C132.219 47.418 131.895 47.4844 131.621 47.6172C131.348 47.7422 131.137 47.9141 130.988 48.1328C130.848 48.3438 130.777 48.5781 130.777 48.8359C130.777 49.0312 130.816 49.207 130.895 49.3633C130.98 49.5117 131.117 49.6484 131.305 49.7734C131.492 49.8984 131.734 50.0156 132.031 50.125C132.336 50.2266 132.711 50.3203 133.156 50.4062C134.07 50.5938 134.887 50.8398 135.605 51.1445C136.324 51.4414 136.895 51.8477 137.316 52.3633C137.738 52.8711 137.949 53.5391 137.949 54.3672C137.949 54.9297 137.824 55.4453 137.574 55.9141C137.324 56.3828 136.965 56.793 136.496 57.1445C136.027 57.4883 135.465 57.7578 134.809 57.9531C134.16 58.1406 133.43 58.2344 132.617 58.2344C131.438 58.2344 130.438 58.0234 129.617 57.6016C128.805 57.1797 128.188 56.6445 127.766 55.9961C127.352 55.3398 127.145 54.668 127.145 53.9805H130.344C130.359 54.4414 130.477 54.8125 130.695 55.0938C130.922 55.375 131.207 55.5781 131.551 55.7031C131.902 55.8281 132.281 55.8906 132.688 55.8906C133.125 55.8906 133.488 55.832 133.777 55.7148C134.066 55.5898 134.285 55.4258 134.434 55.2227C134.59 55.0117 134.668 54.7695 134.668 54.4961ZM143.516 39.9883V58H140.141V39.9883H143.516ZM151.508 45.3203L146 51.6016L143.047 54.5898L141.816 52.1523L144.16 49.1758L147.453 45.3203H151.508ZM148.004 58L144.254 52.1406L146.586 50.1016L151.895 58H148.004ZM166.145 40.9375V58H162.641V40.9375H166.145ZM171.395 40.9375V43.6914H157.473V40.9375H171.395ZM176.48 40V58H173.105V40H176.48ZM176 51.2148H175.074C175.082 50.332 175.199 49.5195 175.426 48.7773C175.652 48.0273 175.977 47.3789 176.398 46.832C176.82 46.2773 177.324 45.8477 177.91 45.543C178.504 45.2383 179.16 45.0859 179.879 45.0859C180.504 45.0859 181.07 45.1758 181.578 45.3555C182.094 45.5273 182.535 45.8086 182.902 46.1992C183.277 46.582 183.566 47.0859 183.77 47.7109C183.973 48.3359 184.074 49.0938 184.074 49.9844V58H180.676V49.9609C180.676 49.3984 180.594 48.957 180.43 48.6367C180.273 48.3086 180.043 48.0781 179.738 47.9453C179.441 47.8047 179.074 47.7344 178.637 47.7344C178.152 47.7344 177.738 47.8242 177.395 48.0039C177.059 48.1836 176.789 48.4336 176.586 48.7539C176.383 49.0664 176.234 49.4336 176.141 49.8555C176.047 50.2773 176 50.7305 176 51.2148ZM192.477 58.2344C191.492 58.2344 190.609 58.0781 189.828 57.7656C189.047 57.4453 188.383 57.0039 187.836 56.4414C187.297 55.8789 186.883 55.2266 186.594 54.4844C186.305 53.7344 186.16 52.9375 186.16 52.0938V51.625C186.16 50.6641 186.297 49.7852 186.57 48.9883C186.844 48.1914 187.234 47.5 187.742 46.9141C188.258 46.3281 188.883 45.8789 189.617 45.5664C190.352 45.2461 191.18 45.0859 192.102 45.0859C193 45.0859 193.797 45.2344 194.492 45.5312C195.188 45.8281 195.77 46.25 196.238 46.7969C196.715 47.3438 197.074 48 197.316 48.7656C197.559 49.5234 197.68 50.3672 197.68 51.2969V52.7031H187.602V50.4531H194.363V50.1953C194.363 49.7266 194.277 49.3086 194.105 48.9414C193.941 48.5664 193.691 48.2695 193.355 48.0508C193.02 47.832 192.59 47.7227 192.066 47.7227C191.621 47.7227 191.238 47.8203 190.918 48.0156C190.598 48.2109 190.336 48.4844 190.133 48.8359C189.938 49.1875 189.789 49.6016 189.688 50.0781C189.594 50.5469 189.547 51.0625 189.547 51.625V52.0938C189.547 52.6016 189.617 53.0703 189.758 53.5C189.906 53.9297 190.113 54.3008 190.379 54.6133C190.652 54.9258 190.98 55.168 191.363 55.3398C191.754 55.5117 192.195 55.5977 192.688 55.5977C193.297 55.5977 193.863 55.4805 194.387 55.2461C194.918 55.0039 195.375 54.6406 195.758 54.1562L197.398 55.9375C197.133 56.3203 196.77 56.6875 196.309 57.0391C195.855 57.3906 195.309 57.6797 194.668 57.9062C194.027 58.125 193.297 58.2344 192.477 58.2344ZM217.238 55.2578V58H208.156V55.2578H217.238ZM209.305 40.9375V58H205.789V40.9375H209.305ZM216.055 47.8867V50.5586H208.156V47.8867H216.055ZM217.227 40.9375V43.6914H208.156V40.9375H217.227ZM221.797 45.3203L223.895 49.1758L226.051 45.3203H229.648L226.062 51.5195L229.812 58H226.203L223.918 53.9219L221.633 58H218.023L221.773 51.5195L218.188 45.3203H221.797ZM234.664 47.7578V62.875H231.289V45.3203H234.418L234.664 47.7578ZM242.691 51.5195V51.7656C242.691 52.6875 242.582 53.543 242.363 54.332C242.152 55.1211 241.84 55.8086 241.426 56.3945C241.012 56.9727 240.496 57.4258 239.879 57.7539C239.27 58.0742 238.566 58.2344 237.77 58.2344C236.996 58.2344 236.324 58.0781 235.754 57.7656C235.184 57.4531 234.703 57.0156 234.312 56.4531C233.93 55.8828 233.621 55.2227 233.387 54.4727C233.152 53.7227 232.973 52.918 232.848 52.0586V51.4141C232.973 50.4922 233.152 49.6484 233.387 48.8828C233.621 48.1094 233.93 47.4414 234.312 46.8789C234.703 46.3086 235.18 45.8672 235.742 45.5547C236.312 45.2422 236.98 45.0859 237.746 45.0859C238.551 45.0859 239.258 45.2383 239.867 45.543C240.484 45.8477 241 46.2852 241.414 46.8555C241.836 47.4258 242.152 48.1055 242.363 48.8945C242.582 49.6836 242.691 50.5586 242.691 51.5195ZM239.305 51.7656V51.5195C239.305 50.9805 239.258 50.4844 239.164 50.0312C239.078 49.5703 238.938 49.168 238.742 48.8242C238.555 48.4805 238.305 48.2148 237.992 48.0273C237.688 47.832 237.316 47.7344 236.879 47.7344C236.418 47.7344 236.023 47.8086 235.695 47.957C235.375 48.1055 235.113 48.3203 234.91 48.6016C234.707 48.8828 234.555 49.2188 234.453 49.6094C234.352 50 234.289 50.4414 234.266 50.9336V52.5625C234.305 53.1406 234.414 53.6602 234.594 54.1211C234.773 54.5742 235.051 54.9336 235.426 55.1992C235.801 55.4648 236.293 55.5977 236.902 55.5977C237.348 55.5977 237.723 55.5 238.027 55.3047C238.332 55.1016 238.578 54.8242 238.766 54.4727C238.961 54.1211 239.098 53.7148 239.176 53.2539C239.262 52.793 239.305 52.2969 239.305 51.7656ZM250.625 58.2344C249.641 58.2344 248.758 58.0781 247.977 57.7656C247.195 57.4453 246.531 57.0039 245.984 56.4414C245.445 55.8789 245.031 55.2266 244.742 54.4844C244.453 53.7344 244.309 52.9375 244.309 52.0938V51.625C244.309 50.6641 244.445 49.7852 244.719 48.9883C244.992 48.1914 245.383 47.5 245.891 46.9141C246.406 46.3281 247.031 45.8789 247.766 45.5664C248.5 45.2461 249.328 45.0859 250.25 45.0859C251.148 45.0859 251.945 45.2344 252.641 45.5312C253.336 45.8281 253.918 46.25 254.387 46.7969C254.863 47.3438 255.223 48 255.465 48.7656C255.707 49.5234 255.828 50.3672 255.828 51.2969V52.7031H245.75V50.4531H252.512V50.1953C252.512 49.7266 252.426 49.3086 252.254 48.9414C252.09 48.5664 251.84 48.2695 251.504 48.0508C251.168 47.832 250.738 47.7227 250.215 47.7227C249.77 47.7227 249.387 47.8203 249.066 48.0156C248.746 48.2109 248.484 48.4844 248.281 48.8359C248.086 49.1875 247.938 49.6016 247.836 50.0781C247.742 50.5469 247.695 51.0625 247.695 51.625V52.0938C247.695 52.6016 247.766 53.0703 247.906 53.5C248.055 53.9297 248.262 54.3008 248.527 54.6133C248.801 54.9258 249.129 55.168 249.512 55.3398C249.902 55.5117 250.344 55.5977 250.836 55.5977C251.445 55.5977 252.012 55.4805 252.535 55.2461C253.066 55.0039 253.523 54.6406 253.906 54.1562L255.547 55.9375C255.281 56.3203 254.918 56.6875 254.457 57.0391C254.004 57.3906 253.457 57.6797 252.816 57.9062C252.176 58.125 251.445 58.2344 250.625 58.2344ZM261.125 48.0859V58H257.75V45.3203H260.926L261.125 48.0859ZM264.945 45.2383L264.887 48.3672C264.723 48.3438 264.523 48.3242 264.289 48.3086C264.062 48.2852 263.855 48.2734 263.668 48.2734C263.191 48.2734 262.777 48.3359 262.426 48.4609C262.082 48.5781 261.793 48.7539 261.559 48.9883C261.332 49.2227 261.16 49.5078 261.043 49.8438C260.934 50.1797 260.871 50.5625 260.855 50.9922L260.176 50.7812C260.176 49.9609 260.258 49.207 260.422 48.5195C260.586 47.8242 260.824 47.2188 261.137 46.7031C261.457 46.1875 261.848 45.7891 262.309 45.5078C262.77 45.2266 263.297 45.0859 263.891 45.0859C264.078 45.0859 264.27 45.1016 264.465 45.1328C264.66 45.1562 264.82 45.1914 264.945 45.2383ZM273.336 45.3203V47.7109H265.953V45.3203H273.336ZM267.781 42.1914H271.156V54.1797C271.156 54.5469 271.203 54.8281 271.297 55.0234C271.398 55.2188 271.547 55.3555 271.742 55.4336C271.938 55.5039 272.184 55.5391 272.48 55.5391C272.691 55.5391 272.879 55.5312 273.043 55.5156C273.215 55.4922 273.359 55.4688 273.477 55.4453L273.488 57.9297C273.199 58.0234 272.887 58.0977 272.551 58.1523C272.215 58.207 271.844 58.2344 271.438 58.2344C270.695 58.2344 270.047 58.1133 269.492 57.8711C268.945 57.6211 268.523 57.2227 268.227 56.6758C267.93 56.1289 267.781 55.4102 267.781 54.5195V42.1914Z" fill="#888888"/>
<path d="M115.994 98.708V104.641H99.5806V98.708H115.994ZM102.151 86.0078V118H94.439V86.0078H102.151ZM121.18 86.0078V118H113.489V86.0078H121.18ZM124.805 106.354V105.893C124.805 104.15 125.054 102.546 125.552 101.081C126.05 99.6016 126.783 98.3198 127.75 97.2358C128.716 96.1519 129.91 95.3096 131.331 94.709C132.752 94.0938 134.393 93.7861 136.253 93.7861C138.128 93.7861 139.776 94.0938 141.197 94.709C142.632 95.3096 143.833 96.1519 144.8 97.2358C145.767 98.3198 146.5 99.6016 146.998 101.081C147.496 102.546 147.745 104.15 147.745 105.893V106.354C147.745 108.083 147.496 109.687 146.998 111.167C146.5 112.631 145.767 113.913 144.8 115.012C143.833 116.096 142.64 116.938 141.219 117.539C139.798 118.139 138.157 118.439 136.297 118.439C134.437 118.439 132.789 118.139 131.353 117.539C129.917 116.938 128.716 116.096 127.75 115.012C126.783 113.913 126.05 112.631 125.552 111.167C125.054 109.687 124.805 108.083 124.805 106.354ZM132.21 105.893V106.354C132.21 107.248 132.276 108.083 132.408 108.859C132.54 109.636 132.759 110.317 133.067 110.903C133.375 111.474 133.792 111.921 134.319 112.243C134.847 112.565 135.506 112.727 136.297 112.727C137.073 112.727 137.718 112.565 138.23 112.243C138.758 111.921 139.175 111.474 139.483 110.903C139.791 110.317 140.01 109.636 140.142 108.859C140.274 108.083 140.34 107.248 140.34 106.354V105.893C140.34 105.029 140.274 104.216 140.142 103.454C140.01 102.678 139.791 101.997 139.483 101.411C139.175 100.81 138.758 100.341 138.23 100.004C137.703 99.6675 137.044 99.499 136.253 99.499C135.477 99.499 134.825 99.6675 134.297 100.004C133.785 100.341 133.375 100.81 133.067 101.411C132.759 101.997 132.54 102.678 132.408 103.454C132.276 104.216 132.21 105.029 132.21 105.893ZM158.27 110.925L162.664 94.2256H167.3L165.652 102.597L161.302 118H157.588L158.27 110.925ZM156.534 94.2256L159.258 110.793L159.566 118H155.062L149.437 94.2256H156.534ZM171.211 110.441L173.958 94.2256H181.055L175.474 118H170.97L171.211 110.441ZM167.828 94.2256L172.266 110.881L172.947 118H169.19L164.927 102.641L163.345 94.2256H167.828ZM209.466 86.0078V118H201.753V86.0078H209.466ZM219.09 86.0078V91.9624H192.349V86.0078H219.09ZM216.475 106.354V105.893C216.475 104.15 216.724 102.546 217.222 101.081C217.72 99.6016 218.453 98.3198 219.419 97.2358C220.386 96.1519 221.58 95.3096 223.001 94.709C224.422 94.0938 226.062 93.7861 227.923 93.7861C229.798 93.7861 231.446 94.0938 232.867 94.709C234.302 95.3096 235.503 96.1519 236.47 97.2358C237.437 98.3198 238.169 99.6016 238.667 101.081C239.166 102.546 239.415 104.15 239.415 105.893V106.354C239.415 108.083 239.166 109.687 238.667 111.167C238.169 112.631 237.437 113.913 236.47 115.012C235.503 116.096 234.31 116.938 232.889 117.539C231.468 118.139 229.827 118.439 227.967 118.439C226.106 118.439 224.458 118.139 223.023 117.539C221.587 116.938 220.386 116.096 219.419 115.012C218.453 113.913 217.72 112.631 217.222 111.167C216.724 109.687 216.475 108.083 216.475 106.354ZM223.88 105.893V106.354C223.88 107.248 223.946 108.083 224.078 108.859C224.209 109.636 224.429 110.317 224.737 110.903C225.044 111.474 225.462 111.921 225.989 112.243C226.517 112.565 227.176 112.727 227.967 112.727C228.743 112.727 229.388 112.565 229.9 112.243C230.428 111.921 230.845 111.474 231.153 110.903C231.46 110.317 231.68 109.636 231.812 108.859C231.944 108.083 232.01 107.248 232.01 106.354V105.893C232.01 105.029 231.944 104.216 231.812 103.454C231.68 102.678 231.46 101.997 231.153 101.411C230.845 100.81 230.428 100.341 229.9 100.004C229.373 99.6675 228.714 99.499 227.923 99.499C227.146 99.499 226.495 99.6675 225.967 100.004C225.455 100.341 225.044 100.81 224.737 101.411C224.429 101.997 224.209 102.678 224.078 103.454C223.946 104.216 223.88 105.029 223.88 105.893ZM254.268 86.0078H266.858C269.319 86.0078 271.458 86.374 273.274 87.1064C275.091 87.8389 276.49 88.9229 277.471 90.3584C278.467 91.7939 278.965 93.5664 278.965 95.6758C278.965 97.5068 278.68 99.0376 278.108 100.268C277.537 101.499 276.739 102.517 275.713 103.322C274.703 104.113 273.523 104.765 272.176 105.278L269.649 106.706H259.08L259.036 100.751H266.858C267.84 100.751 268.653 100.576 269.297 100.224C269.942 99.8726 270.425 99.3745 270.748 98.73C271.084 98.0708 271.253 97.2871 271.253 96.3789C271.253 95.4561 271.084 94.665 270.748 94.0059C270.411 93.3467 269.913 92.8413 269.253 92.4897C268.609 92.1382 267.811 91.9624 266.858 91.9624H261.98V118H254.268V86.0078ZM271.78 118L264.705 103.85L272.879 103.806L280.042 117.67V118H271.78ZM297.159 112.221V94.2256H304.585V118H297.642L297.159 112.221ZM297.862 107.387L299.795 107.343C299.795 108.94 299.605 110.419 299.224 111.782C298.843 113.129 298.279 114.301 297.532 115.297C296.8 116.293 295.892 117.07 294.808 117.626C293.738 118.168 292.5 118.439 291.094 118.439C289.922 118.439 288.846 118.278 287.864 117.956C286.897 117.619 286.062 117.099 285.359 116.396C284.656 115.678 284.107 114.763 283.711 113.649C283.331 112.521 283.14 111.174 283.14 109.606V94.2256H290.545V109.65C290.545 110.178 290.611 110.632 290.743 111.013C290.875 111.394 291.065 111.716 291.314 111.979C291.563 112.229 291.871 112.419 292.237 112.551C292.618 112.668 293.05 112.727 293.533 112.727C294.646 112.727 295.518 112.492 296.148 112.023C296.778 111.555 297.217 110.917 297.466 110.112C297.73 109.306 297.862 108.398 297.862 107.387ZM315.945 99.3013V118H308.541V94.2256H315.484L315.945 99.3013ZM315.066 105.3L313.331 105.344C313.331 103.527 313.55 101.909 313.99 100.488C314.429 99.0522 315.052 97.8364 315.857 96.8403C316.663 95.8442 317.623 95.0898 318.736 94.5771C319.864 94.0498 321.116 93.7861 322.493 93.7861C323.592 93.7861 324.595 93.9473 325.503 94.2695C326.426 94.5918 327.217 95.1118 327.876 95.8296C328.55 96.5474 329.063 97.4995 329.415 98.686C329.781 99.8579 329.964 101.308 329.964 103.037V118H322.515V103.015C322.515 102.062 322.383 101.337 322.12 100.839C321.856 100.327 321.475 99.9751 320.977 99.7847C320.479 99.5942 319.871 99.499 319.153 99.499C318.392 99.499 317.747 99.6455 317.22 99.9385C316.692 100.231 316.268 100.642 315.945 101.169C315.638 101.682 315.411 102.29 315.264 102.993C315.132 103.696 315.066 104.465 315.066 105.3ZM345.85 107.871H339.544C339.544 106.582 339.632 105.446 339.808 104.465C339.998 103.469 340.32 102.575 340.774 101.784C341.229 100.993 341.844 100.261 342.62 99.5869C343.309 99.0156 343.902 98.4663 344.4 97.939C344.898 97.4116 345.279 96.877 345.542 96.335C345.806 95.793 345.938 95.2144 345.938 94.5991C345.938 93.8374 345.828 93.2148 345.608 92.7314C345.403 92.248 345.088 91.8892 344.664 91.6548C344.253 91.4058 343.733 91.2812 343.104 91.2812C342.591 91.2812 342.107 91.4058 341.653 91.6548C341.214 91.9038 340.855 92.292 340.577 92.8193C340.298 93.332 340.145 94.0132 340.115 94.8628H332.667C332.71 92.6802 333.194 90.9077 334.117 89.5454C335.054 88.1685 336.299 87.165 337.852 86.5352C339.419 85.8906 341.17 85.5684 343.104 85.5684C345.242 85.5684 347.081 85.8979 348.619 86.5571C350.157 87.2163 351.336 88.1978 352.156 89.5015C352.977 90.7905 353.387 92.3799 353.387 94.2695C353.387 95.5293 353.145 96.6279 352.662 97.5654C352.193 98.4883 351.556 99.3525 350.75 100.158C349.959 100.949 349.073 101.799 348.091 102.707C347.242 103.454 346.663 104.216 346.355 104.992C346.048 105.754 345.879 106.713 345.85 107.871ZM338.643 114.55C338.643 113.496 339.024 112.617 339.786 111.914C340.547 111.196 341.536 110.837 342.752 110.837C343.968 110.837 344.957 111.196 345.718 111.914C346.48 112.617 346.861 113.496 346.861 114.55C346.861 115.605 346.48 116.491 345.718 117.209C344.957 117.912 343.968 118.264 342.752 118.264C341.536 118.264 340.547 117.912 339.786 117.209C339.024 116.491 338.643 115.605 338.643 114.55Z" fill="#424241"/>
<path d="M1363 15C1363 6.71573 1356.28 0 1348 0H1134V167H1348C1356.28 167 1363 160.284 1363 152V15Z" fill="#1FA6D1"/>
<path d="M1260.77 81.3079C1263.96 81.3079 1267.09 82.2553 1269.74 84.0303C1272.4 85.8053 1274.47 88.3282 1275.69 91.2799C1276.92 94.2316 1277.24 97.4796 1276.61 100.613C1275.99 103.747 1274.45 106.625 1272.19 108.884C1269.93 111.143 1267.05 112.682 1263.92 113.305C1260.79 113.928 1257.54 113.608 1254.59 112.386C1251.64 111.163 1249.11 109.093 1247.34 106.436C1245.56 103.78 1244.62 100.657 1244.62 97.4617C1244.62 93.1774 1246.32 89.0686 1249.35 86.0392C1252.38 83.0098 1256.48 81.3079 1260.77 81.3079ZM1260.77 75.9233C1256.51 75.9233 1252.35 77.1865 1248.8 79.5532C1245.26 81.9198 1242.5 85.2837 1240.87 89.2193C1239.24 93.1549 1238.81 97.4856 1239.64 101.664C1240.48 105.842 1242.53 109.679 1245.54 112.692C1248.55 115.704 1252.39 117.755 1256.57 118.586C1260.75 119.417 1265.08 118.991 1269.01 117.361C1272.95 115.73 1276.31 112.97 1278.68 109.428C1281.04 105.886 1282.31 101.722 1282.31 97.4617C1282.31 91.7493 1280.04 86.271 1276 82.2317C1271.96 78.1925 1266.48 75.9233 1260.77 75.9233Z" fill="white"/>
<path d="M1274.23 49H1220.38C1218.96 49 1217.59 49.5673 1216.58 50.5771C1215.57 51.5869 1215 52.9565 1215 54.3846V108.231C1215 109.659 1215.57 111.028 1216.58 112.038C1217.59 113.048 1218.96 113.615 1220.38 113.615H1231.15V108.231H1220.38V70.5384H1279.62V54.3846C1279.62 52.9565 1279.05 51.5869 1278.04 50.5771C1277.03 49.5673 1275.66 49 1274.23 49ZM1220.38 65.1538V54.3846H1274.23V65.1538H1220.38Z" fill="white"/>
<path d="M1255.38 89.3849V105.539L1268.85 97.4618L1255.38 89.3849Z" fill="white"/>
</svg>
