<svg width="1363" height="301" viewBox="0 0 1363 301" fill="none" xmlns="http://www.w3.org/2000/svg">
<rect width="1363" height="301" rx="15" fill="#F0F0F0"/>
<path d="M0 15C0 6.71573 6.71573 0 15 0H37V301H15C6.71573 301 0 294.284 0 286V15Z" fill="#1FA6D1"/>
<path d="M111.551 113.116L102.017 144H91.8926L106.26 104.898H112.679L111.551 113.116ZM119.446 144L109.886 113.116L108.65 104.898H115.149L129.598 144H119.446ZM119.07 129.417V136.695H99.0093V129.417H119.07ZM147.269 135.836C147.269 135.335 147.098 134.905 146.758 134.547C146.436 134.171 145.863 133.831 145.04 133.526C144.216 133.204 143.061 132.882 141.575 132.56C140.161 132.255 138.827 131.852 137.574 131.351C136.338 130.85 135.255 130.241 134.324 129.525C133.393 128.809 132.659 127.958 132.122 126.974C131.603 125.989 131.343 124.861 131.343 123.59C131.343 122.354 131.603 121.191 132.122 120.099C132.659 118.989 133.438 118.013 134.458 117.171C135.497 116.312 136.759 115.641 138.245 115.157C139.731 114.656 141.423 114.405 143.321 114.405C145.935 114.405 148.191 114.808 150.088 115.614C151.986 116.402 153.445 117.512 154.466 118.944C155.504 120.358 156.023 121.996 156.023 123.858H146.973C146.973 123.124 146.848 122.498 146.597 121.979C146.364 121.459 145.979 121.065 145.442 120.797C144.905 120.51 144.189 120.367 143.294 120.367C142.667 120.367 142.094 120.484 141.575 120.716C141.074 120.949 140.671 121.271 140.367 121.683C140.062 122.095 139.91 122.578 139.91 123.133C139.91 123.527 140 123.885 140.179 124.208C140.376 124.512 140.671 124.798 141.065 125.067C141.459 125.318 141.96 125.55 142.569 125.765C143.178 125.962 143.912 126.141 144.771 126.302C146.722 126.66 148.549 127.171 150.25 127.833C151.95 128.495 153.329 129.435 154.385 130.653C155.459 131.87 155.997 133.508 155.997 135.567C155.997 136.856 155.701 138.047 155.11 139.139C154.52 140.213 153.669 141.162 152.559 141.986C151.449 142.792 150.115 143.418 148.558 143.866C147 144.313 145.245 144.537 143.294 144.537C140.519 144.537 138.174 144.045 136.258 143.06C134.342 142.057 132.892 140.804 131.907 139.3C130.94 137.778 130.457 136.239 130.457 134.681H138.89C138.925 135.576 139.14 136.31 139.534 136.883C139.946 137.456 140.492 137.877 141.172 138.146C141.853 138.414 142.64 138.548 143.536 138.548C144.359 138.548 145.04 138.432 145.577 138.199C146.132 137.966 146.552 137.653 146.839 137.259C147.125 136.847 147.269 136.373 147.269 135.836ZM169.371 102.723V144H160.32V102.723H169.371ZM187.955 114.942L175.333 129.74L168.726 136.346L164.778 130.599L170.284 123.429L177.105 114.942H187.955ZM178.26 144L170.499 130.76L177.186 126.007L188.626 144H178.26ZM221.766 104.898V144H212.339V104.898H221.766ZM233.528 104.898V112.176H200.845V104.898H233.528ZM245.962 102.75V144H236.912V102.75H245.962ZM244.888 128.478L242.767 128.531C242.767 126.49 243.017 124.61 243.519 122.892C244.02 121.173 244.736 119.678 245.667 118.407C246.598 117.136 247.717 116.151 249.024 115.453C250.331 114.754 251.781 114.405 253.375 114.405C254.807 114.405 256.114 114.611 257.295 115.023C258.495 115.435 259.524 116.097 260.384 117.01C261.261 117.923 261.932 119.114 262.398 120.582C262.881 122.05 263.123 123.84 263.123 125.953V144H254.019V125.899C254.019 124.718 253.849 123.805 253.509 123.16C253.187 122.498 252.721 122.041 252.112 121.791C251.504 121.522 250.761 121.388 249.883 121.388C248.827 121.388 247.968 121.567 247.305 121.925C246.643 122.283 246.132 122.784 245.774 123.429C245.434 124.055 245.201 124.798 245.076 125.658C244.951 126.517 244.888 127.457 244.888 128.478ZM282.217 144.537C279.854 144.537 277.741 144.17 275.879 143.436C274.017 142.684 272.442 141.655 271.153 140.348C269.882 139.041 268.906 137.537 268.226 135.836C267.563 134.135 267.232 132.336 267.232 130.438V129.417C267.232 127.287 267.527 125.318 268.118 123.509C268.709 121.683 269.586 120.09 270.75 118.729C271.914 117.368 273.373 116.312 275.127 115.56C276.882 114.79 278.923 114.405 281.25 114.405C283.309 114.405 285.153 114.736 286.783 115.399C288.412 116.061 289.791 117.01 290.918 118.246C292.064 119.481 292.933 120.976 293.523 122.73C294.132 124.485 294.437 126.454 294.437 128.639V132.318H270.696V126.651H285.601V125.953C285.619 124.986 285.449 124.163 285.091 123.482C284.751 122.802 284.249 122.283 283.587 121.925C282.924 121.567 282.119 121.388 281.17 121.388C280.185 121.388 279.371 121.603 278.726 122.032C278.099 122.462 277.607 123.053 277.249 123.805C276.909 124.539 276.667 125.389 276.524 126.356C276.381 127.323 276.309 128.343 276.309 129.417V130.438C276.309 131.512 276.452 132.488 276.739 133.365C277.043 134.243 277.473 134.994 278.028 135.621C278.601 136.23 279.281 136.704 280.069 137.044C280.875 137.385 281.788 137.555 282.808 137.555C284.043 137.555 285.261 137.322 286.46 136.856C287.66 136.391 288.689 135.621 289.549 134.547L293.658 139.435C293.067 140.276 292.225 141.091 291.133 141.878C290.059 142.666 288.77 143.311 287.266 143.812C285.762 144.295 284.079 144.537 282.217 144.537ZM339.151 136.749V144H318.311V136.749H339.151ZM321.668 104.898V144H312.242V104.898H321.668ZM336.465 120.421V127.43H318.311V120.421H336.465ZM339.231 104.898V112.176H318.311V104.898H339.231ZM350.269 114.942L354.351 122.945L358.567 114.942H367.967L360.34 129.095L368.37 144H358.89L354.351 135.406L349.839 144H340.359L348.389 129.095L340.789 114.942H350.269ZM380.079 120.528V155.172H371.028V114.942H379.461L380.079 120.528ZM397.911 129.122V129.686C397.911 131.799 397.669 133.759 397.186 135.567C396.702 137.376 395.986 138.951 395.037 140.294C394.088 141.637 392.907 142.684 391.492 143.436C390.096 144.17 388.475 144.537 386.631 144.537C384.895 144.537 383.4 144.152 382.146 143.382C380.893 142.612 379.846 141.547 379.004 140.187C378.163 138.826 377.483 137.268 376.963 135.514C376.444 133.759 376.032 131.906 375.728 129.955V129.229C376.032 127.135 376.444 125.192 376.963 123.402C377.483 121.594 378.163 120.018 379.004 118.675C379.846 117.333 380.884 116.285 382.12 115.533C383.373 114.781 384.868 114.405 386.604 114.405C388.449 114.405 390.069 114.754 391.465 115.453C392.88 116.151 394.061 117.153 395.01 118.46C395.977 119.75 396.702 121.298 397.186 123.106C397.669 124.915 397.911 126.92 397.911 129.122ZM388.86 129.686V129.122C388.86 127.994 388.78 126.965 388.619 126.034C388.458 125.085 388.198 124.261 387.84 123.563C387.5 122.865 387.043 122.328 386.47 121.952C385.897 121.576 385.19 121.388 384.349 121.388C383.382 121.388 382.567 121.54 381.905 121.844C381.26 122.131 380.741 122.578 380.347 123.187C379.971 123.778 379.703 124.521 379.542 125.416C379.398 126.293 379.336 127.323 379.354 128.504V130.707C379.318 132.067 379.452 133.267 379.756 134.305C380.061 135.326 380.589 136.122 381.341 136.695C382.093 137.268 383.113 137.555 384.402 137.555C385.262 137.555 385.978 137.358 386.551 136.964C387.124 136.552 387.58 135.988 387.92 135.272C388.261 134.538 388.502 133.696 388.646 132.748C388.789 131.799 388.86 130.778 388.86 129.686ZM416.011 144.537C413.648 144.537 411.535 144.17 409.673 143.436C407.811 142.684 406.236 141.655 404.947 140.348C403.676 139.041 402.7 137.537 402.02 135.836C401.357 134.135 401.026 132.336 401.026 130.438V129.417C401.026 127.287 401.321 125.318 401.912 123.509C402.503 121.683 403.38 120.09 404.544 118.729C405.708 117.368 407.167 116.312 408.921 115.56C410.676 114.79 412.717 114.405 415.044 114.405C417.103 114.405 418.947 114.736 420.577 115.399C422.206 116.061 423.584 117.01 424.712 118.246C425.858 119.481 426.727 120.976 427.317 122.73C427.926 124.485 428.23 126.454 428.23 128.639V132.318H404.49V126.651H419.395V125.953C419.413 124.986 419.243 124.163 418.885 123.482C418.545 122.802 418.043 122.283 417.381 121.925C416.718 121.567 415.913 121.388 414.964 121.388C413.979 121.388 413.165 121.603 412.52 122.032C411.893 122.462 411.401 123.053 411.043 123.805C410.703 124.539 410.461 125.389 410.318 126.356C410.175 127.323 410.103 128.343 410.103 129.417V130.438C410.103 131.512 410.246 132.488 410.533 133.365C410.837 134.243 411.267 134.994 411.822 135.621C412.395 136.23 413.075 136.704 413.863 137.044C414.668 137.385 415.582 137.555 416.602 137.555C417.837 137.555 419.055 137.322 420.254 136.856C421.454 136.391 422.483 135.621 423.343 134.547L427.452 139.435C426.861 140.276 426.019 141.091 424.927 141.878C423.853 142.666 422.564 143.311 421.06 143.812C419.556 144.295 417.873 144.537 416.011 144.537ZM441.041 122.14V144H431.99V114.942H440.45L441.041 122.14ZM449.634 114.728L449.473 123.133C449.115 123.097 448.632 123.053 448.023 122.999C447.414 122.945 446.904 122.918 446.492 122.918C445.436 122.918 444.523 123.044 443.753 123.294C443.001 123.527 442.374 123.885 441.873 124.369C441.39 124.834 441.032 125.425 440.799 126.141C440.584 126.857 440.486 127.69 440.503 128.639L438.865 127.564C438.865 125.613 439.053 123.84 439.429 122.247C439.823 120.636 440.378 119.248 441.094 118.084C441.81 116.903 442.679 115.999 443.699 115.372C444.72 114.728 445.866 114.405 447.137 114.405C447.584 114.405 448.023 114.432 448.453 114.486C448.9 114.54 449.294 114.62 449.634 114.728ZM469.4 114.942V121.227H451.89V114.942H469.4ZM455.569 107.718H464.62V134.52C464.62 135.29 464.709 135.89 464.888 136.319C465.067 136.731 465.372 137.027 465.801 137.206C466.249 137.367 466.84 137.447 467.574 137.447C468.093 137.447 468.523 137.438 468.863 137.42C469.203 137.385 469.525 137.34 469.83 137.286V143.758C469.06 144.009 468.254 144.197 467.413 144.322C466.571 144.465 465.676 144.537 464.727 144.537C462.793 144.537 461.137 144.233 459.759 143.624C458.398 143.015 457.36 142.057 456.644 140.75C455.927 139.444 455.569 137.743 455.569 135.648V107.718Z" fill="black"/>
<path d="M96.563 55.1172H100.904L107.295 73.3862L113.687 55.1172H118.028L109.039 80H105.552L96.563 55.1172ZM94.2217 55.1172H98.5454L99.3315 72.9248V80H94.2217V55.1172ZM116.045 55.1172H120.386V80H115.259V72.9248L116.045 55.1172ZM123.787 70.9424V70.5835C123.787 69.2277 123.981 67.9801 124.368 66.8408C124.756 65.6901 125.319 64.6932 126.06 63.8501C126.801 63.007 127.712 62.3519 128.794 61.8848C129.877 61.4062 131.119 61.167 132.52 61.167C133.921 61.167 135.169 61.4062 136.263 61.8848C137.356 62.3519 138.274 63.007 139.014 63.8501C139.766 64.6932 140.336 65.6901 140.723 66.8408C141.111 67.9801 141.304 69.2277 141.304 70.5835V70.9424C141.304 72.2868 141.111 73.5343 140.723 74.6851C140.336 75.8244 139.766 76.8213 139.014 77.6758C138.274 78.5189 137.362 79.174 136.28 79.6411C135.197 80.1082 133.956 80.3418 132.554 80.3418C131.153 80.3418 129.905 80.1082 128.812 79.6411C127.729 79.174 126.812 78.5189 126.06 77.6758C125.319 76.8213 124.756 75.8244 124.368 74.6851C123.981 73.5343 123.787 72.2868 123.787 70.9424ZM128.709 70.5835V70.9424C128.709 71.7171 128.777 72.4406 128.914 73.1128C129.051 73.785 129.267 74.3774 129.563 74.8901C129.871 75.3914 130.27 75.7845 130.76 76.0693C131.25 76.3542 131.848 76.4966 132.554 76.4966C133.238 76.4966 133.825 76.3542 134.314 76.0693C134.804 75.7845 135.197 75.3914 135.494 74.8901C135.79 74.3774 136.006 73.785 136.143 73.1128C136.291 72.4406 136.365 71.7171 136.365 70.9424V70.5835C136.365 69.8315 136.291 69.1252 136.143 68.4644C136.006 67.7922 135.784 67.1997 135.477 66.687C135.18 66.1629 134.787 65.7528 134.297 65.4565C133.807 65.1603 133.215 65.0122 132.52 65.0122C131.825 65.0122 131.233 65.1603 130.743 65.4565C130.264 65.7528 129.871 66.1629 129.563 66.687C129.267 67.1997 129.051 67.7922 128.914 68.4644C128.777 69.1252 128.709 69.8315 128.709 70.5835ZM149.131 53.75V80H144.209V53.75H149.131ZM148.431 70.105H147.081C147.092 68.8175 147.263 67.6326 147.593 66.5503C147.924 65.4565 148.396 64.5109 149.012 63.7134C149.627 62.9045 150.362 62.2778 151.216 61.8335C152.082 61.3892 153.039 61.167 154.087 61.167C154.999 61.167 155.825 61.298 156.565 61.5601C157.317 61.8107 157.961 62.2209 158.497 62.7905C159.043 63.3488 159.465 64.0837 159.761 64.9951C160.057 65.9066 160.206 67.0117 160.206 68.3105V80H155.25V68.2764C155.25 67.4561 155.13 66.8123 154.891 66.3452C154.663 65.8667 154.327 65.5306 153.882 65.3369C153.449 65.1318 152.914 65.0293 152.276 65.0293C151.569 65.0293 150.966 65.1603 150.464 65.4224C149.974 65.6844 149.581 66.049 149.285 66.5161C148.989 66.9718 148.772 67.5073 148.636 68.1226C148.499 68.7378 148.431 69.3986 148.431 70.105ZM173.929 75.8301V67.5928C173.929 67.0003 173.832 66.4933 173.638 66.0718C173.444 65.6388 173.143 65.3027 172.732 65.0635C172.334 64.8242 171.815 64.7046 171.177 64.7046C170.63 64.7046 170.158 64.8014 169.759 64.9951C169.36 65.1774 169.052 65.4451 168.836 65.7983C168.619 66.1401 168.511 66.5446 168.511 67.0117H163.589C163.589 66.2256 163.772 65.4793 164.136 64.7729C164.501 64.0666 165.031 63.4456 165.726 62.9102C166.421 62.3633 167.247 61.936 168.204 61.6284C169.172 61.3208 170.254 61.167 171.451 61.167C172.886 61.167 174.162 61.4062 175.279 61.8848C176.395 62.3633 177.273 63.0811 177.911 64.0381C178.56 64.9951 178.885 66.1914 178.885 67.627V75.5396C178.885 76.5535 178.947 77.3853 179.073 78.0347C179.198 78.6727 179.38 79.231 179.62 79.7095V80H174.646C174.407 79.4987 174.225 78.8721 174.1 78.1201C173.986 77.3568 173.929 76.5934 173.929 75.8301ZM174.578 68.7378L174.612 71.5234H171.861C171.211 71.5234 170.647 71.5975 170.169 71.7456C169.69 71.8937 169.297 72.1045 168.99 72.3779C168.682 72.64 168.454 72.9476 168.306 73.3008C168.169 73.654 168.101 74.0413 168.101 74.4629C168.101 74.8844 168.198 75.2661 168.392 75.6079C168.585 75.9383 168.864 76.2004 169.229 76.394C169.594 76.5763 170.021 76.6675 170.511 76.6675C171.251 76.6675 171.895 76.5194 172.442 76.2231C172.989 75.9269 173.41 75.5623 173.707 75.1294C174.014 74.6965 174.174 74.2863 174.185 73.8989L175.484 75.9839C175.302 76.451 175.051 76.9352 174.732 77.4365C174.424 77.9378 174.031 78.4106 173.553 78.855C173.074 79.2879 172.499 79.6468 171.827 79.9316C171.154 80.2051 170.357 80.3418 169.434 80.3418C168.261 80.3418 167.195 80.1082 166.238 79.6411C165.293 79.1626 164.541 78.5075 163.982 77.6758C163.436 76.8327 163.162 75.8757 163.162 74.8047C163.162 73.8363 163.344 72.9761 163.709 72.2241C164.074 71.4722 164.609 70.8398 165.315 70.3271C166.033 69.8031 166.928 69.41 167.999 69.1479C169.069 68.8745 170.311 68.7378 171.724 68.7378H174.578ZM187.601 65.3369V80H182.662V61.5088H187.293L187.601 65.3369ZM186.917 70.105H185.55C185.55 68.8175 185.704 67.6326 186.011 66.5503C186.33 65.4565 186.792 64.5109 187.396 63.7134C188.011 62.9045 188.768 62.2778 189.668 61.8335C190.569 61.3892 191.611 61.167 192.796 61.167C193.616 61.167 194.368 61.2923 195.052 61.543C195.735 61.7822 196.322 62.1639 196.812 62.688C197.313 63.2007 197.701 63.8729 197.974 64.7046C198.248 65.5249 198.384 66.5104 198.384 67.6611V80H193.462V68.208C193.462 67.3649 193.348 66.7155 193.121 66.2598C192.893 65.804 192.568 65.485 192.146 65.3027C191.736 65.1204 191.241 65.0293 190.66 65.0293C190.022 65.0293 189.463 65.1603 188.985 65.4224C188.518 65.6844 188.13 66.049 187.823 66.5161C187.515 66.9718 187.287 67.5073 187.139 68.1226C186.991 68.7378 186.917 69.3986 186.917 70.105ZM197.923 69.541L196.163 69.7632C196.163 68.5555 196.311 67.4333 196.607 66.3965C196.915 65.3597 197.365 64.4482 197.957 63.6621C198.561 62.876 199.307 62.2664 200.196 61.8335C201.084 61.3892 202.11 61.167 203.272 61.167C204.161 61.167 204.97 61.298 205.699 61.5601C206.428 61.8107 207.049 62.2152 207.562 62.7734C208.086 63.3203 208.484 64.0381 208.758 64.9268C209.043 65.8154 209.185 66.9035 209.185 68.1909V80H204.246V68.1909C204.246 67.3364 204.132 66.687 203.904 66.2427C203.688 65.7869 203.369 65.4736 202.947 65.3027C202.537 65.1204 202.047 65.0293 201.478 65.0293C200.885 65.0293 200.367 65.1489 199.922 65.3882C199.478 65.616 199.108 65.9351 198.812 66.3452C198.515 66.7554 198.293 67.2339 198.145 67.7808C197.997 68.3162 197.923 68.903 197.923 69.541ZM217.918 65.3369V80H212.979V61.5088H217.61L217.918 65.3369ZM217.234 70.105H215.867C215.867 68.8175 216.021 67.6326 216.329 66.5503C216.648 65.4565 217.109 64.5109 217.713 63.7134C218.328 62.9045 219.086 62.2778 219.986 61.8335C220.886 61.3892 221.928 61.167 223.113 61.167C223.934 61.167 224.686 61.2923 225.369 61.543C226.053 61.7822 226.639 62.1639 227.129 62.688C227.631 63.2007 228.018 63.8729 228.292 64.7046C228.565 65.5249 228.702 66.5104 228.702 67.6611V80H223.78V68.208C223.78 67.3649 223.666 66.7155 223.438 66.2598C223.21 65.804 222.885 65.485 222.464 65.3027C222.054 65.1204 221.558 65.0293 220.977 65.0293C220.339 65.0293 219.781 65.1603 219.302 65.4224C218.835 65.6844 218.448 66.049 218.14 66.5161C217.833 66.9718 217.605 67.5073 217.457 68.1226C217.308 68.7378 217.234 69.3986 217.234 70.105ZM228.24 69.541L226.48 69.7632C226.48 68.5555 226.628 67.4333 226.924 66.3965C227.232 65.3597 227.682 64.4482 228.274 63.6621C228.878 62.876 229.625 62.2664 230.513 61.8335C231.402 61.3892 232.427 61.167 233.589 61.167C234.478 61.167 235.287 61.298 236.016 61.5601C236.745 61.8107 237.366 62.2152 237.879 62.7734C238.403 63.3203 238.802 64.0381 239.075 64.9268C239.36 65.8154 239.502 66.9035 239.502 68.1909V80H234.563V68.1909C234.563 67.3364 234.45 66.687 234.222 66.2427C234.005 65.7869 233.686 65.4736 233.265 65.3027C232.854 65.1204 232.365 65.0293 231.795 65.0293C231.202 65.0293 230.684 65.1489 230.24 65.3882C229.795 65.616 229.425 65.9351 229.129 66.3452C228.833 66.7554 228.611 67.2339 228.462 67.7808C228.314 68.3162 228.24 68.903 228.24 69.541ZM253.294 75.8301V67.5928C253.294 67.0003 253.197 66.4933 253.003 66.0718C252.81 65.6388 252.508 65.3027 252.098 65.0635C251.699 64.8242 251.181 64.7046 250.542 64.7046C249.996 64.7046 249.523 64.8014 249.124 64.9951C248.725 65.1774 248.418 65.4451 248.201 65.7983C247.985 66.1401 247.876 66.5446 247.876 67.0117H242.955C242.955 66.2256 243.137 65.4793 243.501 64.7729C243.866 64.0666 244.396 63.4456 245.091 62.9102C245.786 62.3633 246.612 61.936 247.569 61.6284C248.537 61.3208 249.62 61.167 250.816 61.167C252.251 61.167 253.528 61.4062 254.644 61.8848C255.761 62.3633 256.638 63.0811 257.276 64.0381C257.925 64.9951 258.25 66.1914 258.25 67.627V75.5396C258.25 76.5535 258.313 77.3853 258.438 78.0347C258.563 78.6727 258.746 79.231 258.985 79.7095V80H254.012C253.772 79.4987 253.59 78.8721 253.465 78.1201C253.351 77.3568 253.294 76.5934 253.294 75.8301ZM253.943 68.7378L253.978 71.5234H251.226C250.577 71.5234 250.013 71.5975 249.534 71.7456C249.056 71.8937 248.663 72.1045 248.355 72.3779C248.047 72.64 247.819 72.9476 247.671 73.3008C247.535 73.654 247.466 74.0413 247.466 74.4629C247.466 74.8844 247.563 75.2661 247.757 75.6079C247.951 75.9383 248.23 76.2004 248.594 76.394C248.959 76.5763 249.386 76.6675 249.876 76.6675C250.617 76.6675 251.26 76.5194 251.807 76.2231C252.354 75.9269 252.776 75.5623 253.072 75.1294C253.379 74.6965 253.539 74.2863 253.55 73.8989L254.849 75.9839C254.667 76.451 254.416 76.9352 254.097 77.4365C253.79 77.9378 253.396 78.4106 252.918 78.855C252.439 79.2879 251.864 79.6468 251.192 79.9316C250.52 80.2051 249.722 80.3418 248.799 80.3418C247.626 80.3418 246.561 80.1082 245.604 79.6411C244.658 79.1626 243.906 78.5075 243.348 77.6758C242.801 76.8327 242.527 75.8757 242.527 74.8047C242.527 73.8363 242.71 72.9761 243.074 72.2241C243.439 71.4722 243.974 70.8398 244.681 70.3271C245.398 69.8031 246.293 69.41 247.364 69.1479C248.435 68.8745 249.677 68.7378 251.089 68.7378H253.943ZM272.964 75.9668V53.75H277.92V80H273.46L272.964 75.9668ZM261.275 70.9766V70.6177C261.275 69.2049 261.434 67.9232 261.753 66.7725C262.072 65.6104 262.54 64.6134 263.155 63.7817C263.77 62.95 264.528 62.3063 265.428 61.8506C266.328 61.3949 267.353 61.167 268.504 61.167C269.586 61.167 270.532 61.3949 271.341 61.8506C272.161 62.3063 272.856 62.9557 273.426 63.7988C274.007 64.6305 274.474 65.616 274.827 66.7554C275.18 67.8833 275.437 69.1195 275.596 70.4639V71.25C275.437 72.5374 275.18 73.7337 274.827 74.8389C274.474 75.944 274.007 76.9124 273.426 77.7441C272.856 78.5645 272.161 79.2025 271.341 79.6582C270.521 80.1139 269.563 80.3418 268.47 80.3418C267.319 80.3418 266.294 80.1082 265.394 79.6411C264.505 79.174 263.753 78.5189 263.138 77.6758C262.534 76.8327 262.072 75.8415 261.753 74.7021C261.434 73.5628 261.275 72.321 261.275 70.9766ZM266.197 70.6177V70.9766C266.197 71.7399 266.254 72.452 266.368 73.1128C266.493 73.7736 266.692 74.3604 266.966 74.873C267.251 75.3743 267.615 75.7674 268.06 76.0522C268.515 76.3257 269.068 76.4624 269.717 76.4624C270.56 76.4624 271.255 76.2744 271.802 75.8984C272.349 75.5111 272.765 74.9813 273.05 74.3091C273.346 73.6369 273.517 72.8621 273.562 71.9849V69.7461C273.528 69.0283 273.426 68.3846 273.255 67.8149C273.095 67.2339 272.856 66.7383 272.537 66.3281C272.229 65.918 271.842 65.599 271.375 65.3711C270.919 65.1432 270.378 65.0293 269.751 65.0293C269.113 65.0293 268.567 65.1774 268.111 65.4736C267.655 65.7585 267.285 66.1515 267 66.6528C266.727 67.1541 266.521 67.7466 266.385 68.4302C266.259 69.1024 266.197 69.8315 266.197 70.6177ZM300.906 59.3726L294.139 80H288.687L297.933 55.1172H301.402L300.906 59.3726ZM306.529 80L299.744 59.3726L299.197 55.1172H302.701L311.998 80H306.529ZM306.221 70.7373V74.7534H293.079V70.7373H306.221ZM318.372 65.3369V80H313.433V61.5088H318.064L318.372 65.3369ZM317.688 70.105H316.321C316.321 68.8175 316.475 67.6326 316.783 66.5503C317.102 65.4565 317.563 64.5109 318.167 63.7134C318.782 62.9045 319.54 62.2778 320.44 61.8335C321.34 61.3892 322.382 61.167 323.567 61.167C324.388 61.167 325.14 61.2923 325.823 61.543C326.507 61.7822 327.094 62.1639 327.583 62.688C328.085 63.2007 328.472 63.8729 328.746 64.7046C329.019 65.5249 329.156 66.5104 329.156 67.6611V80H324.234V68.208C324.234 67.3649 324.12 66.7155 323.892 66.2598C323.664 65.804 323.34 65.485 322.918 65.3027C322.508 65.1204 322.012 65.0293 321.431 65.0293C320.793 65.0293 320.235 65.1603 319.756 65.4224C319.289 65.6844 318.902 66.049 318.594 66.5161C318.287 66.9718 318.059 67.5073 317.911 68.1226C317.763 68.7378 317.688 69.3986 317.688 70.105ZM328.694 69.541L326.934 69.7632C326.934 68.5555 327.082 67.4333 327.378 66.3965C327.686 65.3597 328.136 64.4482 328.729 63.6621C329.332 62.876 330.079 62.2664 330.967 61.8335C331.856 61.3892 332.881 61.167 334.043 61.167C334.932 61.167 335.741 61.298 336.47 61.5601C337.199 61.8107 337.82 62.2152 338.333 62.7734C338.857 63.3203 339.256 64.0381 339.529 64.9268C339.814 65.8154 339.957 66.9035 339.957 68.1909V80H335.018V68.1909C335.018 67.3364 334.904 66.687 334.676 66.2427C334.459 65.7869 334.14 65.4736 333.719 65.3027C333.309 65.1204 332.819 65.0293 332.249 65.0293C331.657 65.0293 331.138 65.1489 330.694 65.3882C330.25 65.616 329.879 65.9351 329.583 66.3452C329.287 66.7554 329.065 67.2339 328.917 67.7808C328.768 68.3162 328.694 68.903 328.694 69.541ZM348.689 65.3369V80H343.75V61.5088H348.382L348.689 65.3369ZM348.006 70.105H346.639C346.639 68.8175 346.792 67.6326 347.1 66.5503C347.419 65.4565 347.881 64.5109 348.484 63.7134C349.1 62.9045 349.857 62.2778 350.757 61.8335C351.657 61.3892 352.7 61.167 353.885 61.167C354.705 61.167 355.457 61.2923 356.141 61.543C356.824 61.7822 357.411 62.1639 357.901 62.688C358.402 63.2007 358.79 63.8729 359.063 64.7046C359.336 65.5249 359.473 66.5104 359.473 67.6611V80H354.551V68.208C354.551 67.3649 354.437 66.7155 354.209 66.2598C353.982 65.804 353.657 65.485 353.235 65.3027C352.825 65.1204 352.33 65.0293 351.749 65.0293C351.111 65.0293 350.552 65.1603 350.074 65.4224C349.607 65.6844 349.219 66.049 348.912 66.5161C348.604 66.9718 348.376 67.5073 348.228 68.1226C348.08 68.7378 348.006 69.3986 348.006 70.105ZM359.012 69.541L357.251 69.7632C357.251 68.5555 357.4 67.4333 357.696 66.3965C358.003 65.3597 358.453 64.4482 359.046 63.6621C359.65 62.876 360.396 62.2664 361.285 61.8335C362.173 61.3892 363.199 61.167 364.361 61.167C365.25 61.167 366.058 61.298 366.788 61.5601C367.517 61.8107 368.138 62.2152 368.65 62.7734C369.174 63.3203 369.573 64.0381 369.847 64.9268C370.132 65.8154 370.274 66.9035 370.274 68.1909V80H365.335V68.1909C365.335 67.3364 365.221 66.687 364.993 66.2427C364.777 65.7869 364.458 65.4736 364.036 65.3027C363.626 65.1204 363.136 65.0293 362.566 65.0293C361.974 65.0293 361.456 65.1489 361.011 65.3882C360.567 65.616 360.197 65.9351 359.9 66.3452C359.604 66.7554 359.382 67.2339 359.234 67.7808C359.086 68.3162 359.012 68.903 359.012 69.541ZM384.065 75.8301V67.5928C384.065 67.0003 383.969 66.4933 383.775 66.0718C383.581 65.6388 383.279 65.3027 382.869 65.0635C382.47 64.8242 381.952 64.7046 381.314 64.7046C380.767 64.7046 380.294 64.8014 379.896 64.9951C379.497 65.1774 379.189 65.4451 378.973 65.7983C378.756 66.1401 378.648 66.5446 378.648 67.0117H373.726C373.726 66.2256 373.908 65.4793 374.273 64.7729C374.638 64.0666 375.167 63.4456 375.862 62.9102C376.557 62.3633 377.383 61.936 378.34 61.6284C379.309 61.3208 380.391 61.167 381.587 61.167C383.023 61.167 384.299 61.4062 385.416 61.8848C386.532 62.3633 387.409 63.0811 388.047 64.0381C388.697 64.9951 389.021 66.1914 389.021 67.627V75.5396C389.021 76.5535 389.084 77.3853 389.209 78.0347C389.335 78.6727 389.517 79.231 389.756 79.7095V80H384.783C384.544 79.4987 384.362 78.8721 384.236 78.1201C384.122 77.3568 384.065 76.5934 384.065 75.8301ZM384.715 68.7378L384.749 71.5234H381.998C381.348 71.5234 380.784 71.5975 380.306 71.7456C379.827 71.8937 379.434 72.1045 379.126 72.3779C378.819 72.64 378.591 72.9476 378.443 73.3008C378.306 73.654 378.238 74.0413 378.238 74.4629C378.238 74.8844 378.335 75.2661 378.528 75.6079C378.722 75.9383 379.001 76.2004 379.366 76.394C379.73 76.5763 380.158 76.6675 380.647 76.6675C381.388 76.6675 382.032 76.5194 382.579 76.2231C383.125 75.9269 383.547 75.5623 383.843 75.1294C384.151 74.6965 384.31 74.2863 384.322 73.8989L385.621 75.9839C385.438 76.451 385.188 76.9352 384.869 77.4365C384.561 77.9378 384.168 78.4106 383.689 78.855C383.211 79.2879 382.636 79.6468 381.963 79.9316C381.291 80.2051 380.494 80.3418 379.571 80.3418C378.397 80.3418 377.332 80.1082 376.375 79.6411C375.429 79.1626 374.677 78.5075 374.119 77.6758C373.572 76.8327 373.299 75.8757 373.299 74.8047C373.299 73.8363 373.481 72.9761 373.846 72.2241C374.21 71.4722 374.746 70.8398 375.452 70.3271C376.17 69.8031 377.064 69.41 378.135 69.1479C379.206 68.8745 380.448 68.7378 381.861 68.7378H384.715ZM402.813 74.8901C402.813 74.5369 402.71 74.2179 402.505 73.9331C402.3 73.6483 401.919 73.3862 401.36 73.147C400.813 72.8963 400.022 72.6685 398.985 72.4634C398.051 72.2583 397.179 72.002 396.37 71.6943C395.573 71.3753 394.878 70.9937 394.285 70.5493C393.704 70.105 393.248 69.5809 392.918 68.9771C392.588 68.3618 392.422 67.6611 392.422 66.875C392.422 66.1003 392.588 65.3711 392.918 64.6875C393.26 64.0039 393.744 63.4001 394.371 62.876C395.009 62.3405 395.783 61.9246 396.695 61.6284C397.618 61.3208 398.654 61.167 399.805 61.167C401.412 61.167 402.79 61.4233 403.941 61.936C405.103 62.4487 405.992 63.1551 406.607 64.0552C407.234 64.9438 407.547 65.9578 407.547 67.0972H402.625C402.625 66.6187 402.522 66.1914 402.317 65.8154C402.124 65.4281 401.816 65.1261 401.395 64.9097C400.984 64.6818 400.449 64.5679 399.788 64.5679C399.241 64.5679 398.768 64.6647 398.37 64.8584C397.971 65.0407 397.663 65.2913 397.447 65.6104C397.242 65.918 397.139 66.2598 397.139 66.6357C397.139 66.9206 397.196 67.1769 397.31 67.4048C397.435 67.6213 397.635 67.8206 397.908 68.0029C398.182 68.1852 398.535 68.3561 398.968 68.5156C399.412 68.6637 399.959 68.8005 400.608 68.9258C401.941 69.1992 403.132 69.5581 404.18 70.0024C405.228 70.4354 406.06 71.0278 406.675 71.7798C407.291 72.5203 407.598 73.4945 407.598 74.7021C407.598 75.5225 407.416 76.2744 407.051 76.958C406.687 77.6416 406.163 78.2397 405.479 78.7524C404.795 79.2537 403.975 79.6468 403.018 79.9316C402.072 80.2051 401.007 80.3418 399.822 80.3418C398.102 80.3418 396.644 80.0342 395.447 79.4189C394.262 78.8037 393.362 78.0233 392.747 77.0776C392.143 76.1206 391.841 75.1408 391.841 74.1382H396.507C396.53 74.8104 396.701 75.3516 397.02 75.7617C397.35 76.1719 397.766 76.4681 398.267 76.6504C398.78 76.8327 399.332 76.9238 399.925 76.9238C400.563 76.9238 401.093 76.8384 401.514 76.6675C401.936 76.4852 402.255 76.2459 402.471 75.9497C402.699 75.6421 402.813 75.2889 402.813 74.8901ZM415.596 53.75V80H410.674V53.75H415.596ZM414.896 70.105H413.545C413.557 68.8175 413.728 67.6326 414.058 66.5503C414.389 65.4565 414.861 64.5109 415.477 63.7134C416.092 62.9045 416.827 62.2778 417.681 61.8335C418.547 61.3892 419.504 61.167 420.552 61.167C421.464 61.167 422.29 61.298 423.03 61.5601C423.782 61.8107 424.426 62.2209 424.961 62.7905C425.508 63.3488 425.93 64.0837 426.226 64.9951C426.522 65.9066 426.67 67.0117 426.67 68.3105V80H421.714V68.2764C421.714 67.4561 421.595 66.8123 421.355 66.3452C421.128 65.8667 420.792 65.5306 420.347 65.3369C419.914 65.1318 419.379 65.0293 418.741 65.0293C418.034 65.0293 417.431 65.1603 416.929 65.4224C416.439 65.6844 416.046 66.049 415.75 66.5161C415.454 66.9718 415.237 67.5073 415.101 68.1226C414.964 68.7378 414.896 69.3986 414.896 70.105Z" fill="#888888"/>
<rect x="92" y="181" width="1179" height="80" rx="13.3333" fill="#D3D6DB"/>
<rect x="107" y="196.333" width="208" height="49.3333" rx="4.66667" fill="#363636" stroke="#363636" stroke-width="4"/>
<path d="M150.833 213.167H156.802C157.969 213.167 158.983 213.34 159.844 213.687C160.705 214.035 161.368 214.549 161.833 215.229C162.306 215.91 162.542 216.75 162.542 217.75C162.542 218.618 162.406 219.344 162.135 219.927C161.865 220.51 161.486 220.993 161 221.375C160.521 221.75 159.962 222.059 159.323 222.302L158.125 222.979H153.115L153.094 220.156H156.802C157.267 220.156 157.653 220.073 157.958 219.906C158.264 219.74 158.493 219.503 158.646 219.198C158.806 218.885 158.885 218.514 158.885 218.083C158.885 217.646 158.806 217.271 158.646 216.958C158.486 216.646 158.25 216.406 157.937 216.24C157.632 216.073 157.253 215.99 156.802 215.99H154.49V228.333H150.833V213.167ZM159.135 228.333L155.781 221.625L159.656 221.604L163.052 228.177V228.333H159.135ZM170.042 228.542C169.125 228.542 168.306 228.399 167.583 228.115C166.861 227.823 166.25 227.424 165.75 226.917C165.257 226.41 164.878 225.826 164.615 225.167C164.358 224.507 164.229 223.809 164.229 223.073V222.677C164.229 221.851 164.344 221.087 164.573 220.385C164.802 219.677 165.142 219.059 165.594 218.531C166.045 218.003 166.611 217.594 167.292 217.302C167.972 217.003 168.764 216.854 169.667 216.854C170.465 216.854 171.181 216.983 171.813 217.24C172.444 217.497 172.979 217.865 173.417 218.344C173.861 218.823 174.198 219.403 174.427 220.083C174.663 220.764 174.781 221.528 174.781 222.375V223.802H165.573V221.604H171.354V221.333C171.361 220.958 171.295 220.639 171.156 220.375C171.024 220.111 170.83 219.91 170.573 219.771C170.316 219.632 170.003 219.562 169.635 219.562C169.253 219.562 168.938 219.646 168.688 219.812C168.444 219.979 168.253 220.208 168.115 220.5C167.983 220.785 167.889 221.115 167.833 221.49C167.778 221.865 167.75 222.26 167.75 222.677V223.073C167.75 223.49 167.806 223.868 167.917 224.208C168.035 224.549 168.201 224.84 168.417 225.083C168.639 225.319 168.903 225.503 169.208 225.635C169.521 225.767 169.875 225.833 170.271 225.833C170.75 225.833 171.222 225.743 171.688 225.562C172.153 225.382 172.552 225.083 172.885 224.667L174.479 226.562C174.25 226.889 173.924 227.205 173.5 227.51C173.083 227.816 172.583 228.066 172 228.26C171.417 228.448 170.764 228.542 170.042 228.542ZM182.063 225.5V220.854C182.063 220.535 182.017 220.26 181.927 220.031C181.837 219.802 181.694 219.625 181.5 219.5C181.306 219.368 181.045 219.302 180.719 219.302C180.455 219.302 180.229 219.347 180.042 219.437C179.854 219.528 179.712 219.663 179.615 219.844C179.517 220.024 179.469 220.253 179.469 220.531H175.958C175.958 220.01 176.073 219.528 176.302 219.083C176.538 218.632 176.872 218.24 177.302 217.906C177.74 217.573 178.26 217.316 178.865 217.135C179.476 216.948 180.156 216.854 180.906 216.854C181.802 216.854 182.601 217.003 183.302 217.302C184.01 217.601 184.569 218.049 184.979 218.646C185.389 219.236 185.594 219.979 185.594 220.875V225.49C185.594 226.226 185.635 226.785 185.719 227.167C185.802 227.542 185.92 227.872 186.073 228.156V228.333H182.552C182.385 227.986 182.26 227.562 182.177 227.062C182.101 226.556 182.063 226.035 182.063 225.5ZM182.49 221.448L182.51 223.323H180.958C180.632 223.323 180.354 223.368 180.125 223.458C179.903 223.549 179.722 223.674 179.583 223.833C179.451 223.986 179.354 224.16 179.292 224.354C179.236 224.549 179.208 224.753 179.208 224.969C179.208 225.177 179.257 225.365 179.354 225.531C179.458 225.691 179.597 225.816 179.771 225.906C179.944 225.997 180.139 226.042 180.354 226.042C180.743 226.042 181.073 225.969 181.344 225.823C181.622 225.67 181.833 225.486 181.979 225.271C182.125 225.056 182.198 224.854 182.198 224.667L182.969 226.104C182.83 226.382 182.67 226.663 182.49 226.948C182.316 227.233 182.097 227.497 181.833 227.74C181.576 227.976 181.26 228.17 180.885 228.323C180.51 228.469 180.056 228.542 179.521 228.542C178.826 228.542 178.188 228.399 177.604 228.115C177.028 227.83 176.566 227.434 176.219 226.927C175.872 226.413 175.698 225.823 175.698 225.156C175.698 224.573 175.802 224.052 176.01 223.594C176.226 223.135 176.549 222.747 176.979 222.427C177.41 222.108 177.958 221.865 178.625 221.698C179.292 221.531 180.076 221.448 180.979 221.448H182.49ZM192.302 225.833C192.628 225.833 192.906 225.774 193.135 225.656C193.372 225.531 193.549 225.358 193.667 225.135C193.792 224.906 193.851 224.632 193.844 224.312H197.146C197.153 225.16 196.944 225.903 196.521 226.542C196.104 227.174 195.535 227.667 194.812 228.021C194.097 228.368 193.288 228.542 192.385 228.542C191.503 228.542 190.733 228.399 190.073 228.115C189.413 227.823 188.861 227.42 188.417 226.906C187.979 226.385 187.649 225.778 187.427 225.083C187.212 224.389 187.104 223.635 187.104 222.823V222.583C187.104 221.771 187.212 221.017 187.427 220.323C187.649 219.622 187.979 219.014 188.417 218.5C188.861 217.979 189.41 217.576 190.062 217.292C190.722 217 191.49 216.854 192.365 216.854C193.302 216.854 194.128 217.031 194.844 217.385C195.566 217.74 196.132 218.253 196.542 218.927C196.951 219.601 197.153 220.417 197.146 221.375H193.844C193.851 221.035 193.799 220.729 193.687 220.458C193.576 220.187 193.403 219.972 193.167 219.812C192.937 219.646 192.642 219.562 192.281 219.562C191.92 219.562 191.628 219.642 191.406 219.802C191.184 219.962 191.014 220.184 190.896 220.469C190.785 220.747 190.708 221.066 190.667 221.427C190.632 221.788 190.615 222.174 190.615 222.583V222.823C190.615 223.24 190.632 223.632 190.667 224C190.708 224.361 190.788 224.681 190.906 224.958C191.024 225.229 191.194 225.444 191.417 225.604C191.639 225.757 191.934 225.833 192.302 225.833ZM204.583 217.062V219.5H197.792V217.062H204.583ZM199.219 214.26H202.729V224.656C202.729 224.955 202.764 225.187 202.833 225.354C202.903 225.514 203.021 225.628 203.188 225.698C203.361 225.76 203.59 225.792 203.875 225.792C204.076 225.792 204.243 225.788 204.375 225.781C204.507 225.767 204.632 225.75 204.75 225.729V228.24C204.451 228.337 204.139 228.41 203.813 228.458C203.486 228.514 203.139 228.542 202.771 228.542C202.021 228.542 201.378 228.424 200.844 228.187C200.316 227.951 199.913 227.58 199.635 227.073C199.358 226.566 199.219 225.906 199.219 225.094V214.26ZM224.125 213.167V228.333H220.479L215.115 218.896V228.333H211.458V213.167H215.115L220.479 222.604V213.167H224.125ZM232.125 225.5V220.854C232.125 220.535 232.08 220.26 231.99 220.031C231.899 219.802 231.757 219.625 231.563 219.5C231.368 219.368 231.108 219.302 230.781 219.302C230.517 219.302 230.292 219.347 230.104 219.437C229.917 219.528 229.774 219.663 229.677 219.844C229.58 220.024 229.531 220.253 229.531 220.531H226.021C226.021 220.01 226.135 219.528 226.365 219.083C226.601 218.632 226.934 218.24 227.365 217.906C227.802 217.573 228.323 217.316 228.927 217.135C229.538 216.948 230.219 216.854 230.969 216.854C231.865 216.854 232.663 217.003 233.365 217.302C234.073 217.601 234.632 218.049 235.042 218.646C235.451 219.236 235.656 219.979 235.656 220.875V225.49C235.656 226.226 235.698 226.785 235.781 227.167C235.865 227.542 235.983 227.872 236.135 228.156V228.333H232.615C232.448 227.986 232.323 227.562 232.24 227.062C232.163 226.556 232.125 226.035 232.125 225.5ZM232.552 221.448L232.573 223.323H231.021C230.694 223.323 230.417 223.368 230.188 223.458C229.965 223.549 229.785 223.674 229.646 223.833C229.514 223.986 229.417 224.16 229.354 224.354C229.299 224.549 229.271 224.753 229.271 224.969C229.271 225.177 229.319 225.365 229.417 225.531C229.521 225.691 229.66 225.816 229.833 225.906C230.007 225.997 230.201 226.042 230.417 226.042C230.806 226.042 231.135 225.969 231.406 225.823C231.684 225.67 231.896 225.486 232.042 225.271C232.188 225.056 232.26 224.854 232.26 224.667L233.031 226.104C232.892 226.382 232.733 226.663 232.552 226.948C232.378 227.233 232.16 227.497 231.896 227.74C231.639 227.976 231.323 228.17 230.948 228.323C230.573 228.469 230.118 228.542 229.583 228.542C228.889 228.542 228.25 228.399 227.667 228.115C227.09 227.83 226.628 227.434 226.281 226.927C225.934 226.413 225.76 225.823 225.76 225.156C225.76 224.573 225.865 224.052 226.073 223.594C226.288 223.135 226.611 222.747 227.042 222.427C227.472 222.108 228.021 221.865 228.688 221.698C229.354 221.531 230.139 221.448 231.042 221.448H232.552ZM243.542 217.062V219.5H236.75V217.062H243.542ZM238.177 214.26H241.687V224.656C241.687 224.955 241.722 225.187 241.792 225.354C241.861 225.514 241.979 225.628 242.146 225.698C242.319 225.76 242.549 225.792 242.833 225.792C243.035 225.792 243.201 225.788 243.333 225.781C243.465 225.767 243.59 225.75 243.708 225.729V228.24C243.41 228.337 243.097 228.41 242.771 228.458C242.444 228.514 242.097 228.542 241.729 228.542C240.979 228.542 240.337 228.424 239.802 228.187C239.274 227.951 238.872 227.58 238.594 227.073C238.316 226.566 238.177 225.906 238.177 225.094V214.26ZM248.646 217.062V228.333H245.125V217.062H248.646ZM244.917 214.156C244.917 213.656 245.097 213.247 245.458 212.927C245.819 212.608 246.288 212.448 246.865 212.448C247.441 212.448 247.91 212.608 248.271 212.927C248.632 213.247 248.813 213.656 248.813 214.156C248.813 214.656 248.632 215.066 248.271 215.385C247.91 215.705 247.441 215.865 246.865 215.865C246.288 215.865 245.819 215.705 245.458 215.385C245.097 215.066 244.917 214.656 244.917 214.156ZM254.875 225.927L257.094 217.062H260.792L257.104 228.333H254.917L254.875 225.927ZM253.563 217.062L255.75 225.927L255.729 228.333H253.531L249.854 217.062H253.563ZM267.146 228.542C266.229 228.542 265.41 228.399 264.688 228.115C263.965 227.823 263.354 227.424 262.854 226.917C262.361 226.41 261.983 225.826 261.719 225.167C261.462 224.507 261.333 223.809 261.333 223.073V222.677C261.333 221.851 261.448 221.087 261.677 220.385C261.906 219.677 262.247 219.059 262.698 218.531C263.149 218.003 263.715 217.594 264.396 217.302C265.076 217.003 265.868 216.854 266.771 216.854C267.569 216.854 268.285 216.983 268.917 217.24C269.549 217.497 270.083 217.865 270.521 218.344C270.965 218.823 271.302 219.403 271.531 220.083C271.767 220.764 271.885 221.528 271.885 222.375V223.802H262.677V221.604H268.458V221.333C268.465 220.958 268.399 220.639 268.26 220.375C268.128 220.111 267.934 219.91 267.677 219.771C267.42 219.632 267.108 219.562 266.74 219.562C266.358 219.562 266.042 219.646 265.792 219.812C265.549 219.979 265.358 220.208 265.219 220.5C265.087 220.785 264.993 221.115 264.938 221.49C264.882 221.865 264.854 222.26 264.854 222.677V223.073C264.854 223.49 264.91 223.868 265.021 224.208C265.139 224.549 265.306 224.84 265.521 225.083C265.743 225.319 266.007 225.503 266.313 225.635C266.625 225.767 266.979 225.833 267.375 225.833C267.854 225.833 268.326 225.743 268.792 225.562C269.257 225.382 269.656 225.083 269.99 224.667L271.583 226.562C271.354 226.889 271.028 227.205 270.604 227.51C270.188 227.816 269.688 228.066 269.104 228.26C268.521 228.448 267.868 228.542 267.146 228.542Z" fill="white"/>
<rect x="339" y="196.333" width="208" height="49.3333" rx="4.66667" fill="#363636" stroke="#363636" stroke-width="4"/>
<path d="M384.979 213.167H390.948C392.115 213.167 393.128 213.34 393.99 213.687C394.851 214.035 395.514 214.549 395.979 215.229C396.451 215.91 396.687 216.75 396.687 217.75C396.687 218.618 396.552 219.344 396.281 219.927C396.01 220.51 395.632 220.993 395.146 221.375C394.667 221.75 394.108 222.059 393.469 222.302L392.271 222.979H387.26L387.24 220.156H390.948C391.413 220.156 391.799 220.073 392.104 219.906C392.41 219.74 392.639 219.503 392.792 219.198C392.951 218.885 393.031 218.514 393.031 218.083C393.031 217.646 392.951 217.271 392.792 216.958C392.632 216.646 392.396 216.406 392.083 216.24C391.778 216.073 391.399 215.99 390.948 215.99H388.635V228.333H384.979V213.167ZM393.281 228.333L389.927 221.625L393.802 221.604L397.198 228.177V228.333H393.281ZM404.187 228.542C403.271 228.542 402.451 228.399 401.729 228.115C401.007 227.823 400.396 227.424 399.896 226.917C399.403 226.41 399.024 225.826 398.76 225.167C398.503 224.507 398.375 223.809 398.375 223.073V222.677C398.375 221.851 398.49 221.087 398.719 220.385C398.948 219.677 399.288 219.059 399.74 218.531C400.191 218.003 400.757 217.594 401.437 217.302C402.118 217.003 402.91 216.854 403.812 216.854C404.611 216.854 405.326 216.983 405.958 217.24C406.59 217.497 407.125 217.865 407.562 218.344C408.007 218.823 408.344 219.403 408.573 220.083C408.809 220.764 408.927 221.528 408.927 222.375V223.802H399.719V221.604H405.5V221.333C405.507 220.958 405.441 220.639 405.302 220.375C405.17 220.111 404.976 219.91 404.719 219.771C404.462 219.632 404.149 219.562 403.781 219.562C403.399 219.562 403.083 219.646 402.833 219.812C402.59 219.979 402.399 220.208 402.26 220.5C402.128 220.785 402.035 221.115 401.979 221.49C401.924 221.865 401.896 222.26 401.896 222.677V223.073C401.896 223.49 401.951 223.868 402.062 224.208C402.181 224.549 402.347 224.84 402.562 225.083C402.785 225.319 403.049 225.503 403.354 225.635C403.667 225.767 404.021 225.833 404.417 225.833C404.896 225.833 405.368 225.743 405.833 225.562C406.299 225.382 406.698 225.083 407.031 224.667L408.625 226.562C408.396 226.889 408.069 227.205 407.646 227.51C407.229 227.816 406.729 228.066 406.146 228.26C405.562 228.448 404.91 228.542 404.187 228.542ZM416.208 225.5V220.854C416.208 220.535 416.163 220.26 416.073 220.031C415.983 219.802 415.84 219.625 415.646 219.5C415.451 219.368 415.191 219.302 414.865 219.302C414.601 219.302 414.375 219.347 414.187 219.437C414 219.528 413.858 219.663 413.76 219.844C413.663 220.024 413.615 220.253 413.615 220.531H410.104C410.104 220.01 410.219 219.528 410.448 219.083C410.684 218.632 411.017 218.24 411.448 217.906C411.885 217.573 412.406 217.316 413.01 217.135C413.622 216.948 414.302 216.854 415.052 216.854C415.948 216.854 416.747 217.003 417.448 217.302C418.156 217.601 418.715 218.049 419.125 218.646C419.535 219.236 419.74 219.979 419.74 220.875V225.49C419.74 226.226 419.781 226.785 419.865 227.167C419.948 227.542 420.066 227.872 420.219 228.156V228.333H416.698C416.531 227.986 416.406 227.562 416.323 227.062C416.247 226.556 416.208 226.035 416.208 225.5ZM416.635 221.448L416.656 223.323H415.104C414.778 223.323 414.5 223.368 414.271 223.458C414.049 223.549 413.868 223.674 413.729 223.833C413.597 223.986 413.5 224.16 413.437 224.354C413.382 224.549 413.354 224.753 413.354 224.969C413.354 225.177 413.403 225.365 413.5 225.531C413.604 225.691 413.743 225.816 413.917 225.906C414.09 225.997 414.285 226.042 414.5 226.042C414.889 226.042 415.219 225.969 415.49 225.823C415.767 225.67 415.979 225.486 416.125 225.271C416.271 225.056 416.344 224.854 416.344 224.667L417.115 226.104C416.976 226.382 416.816 226.663 416.635 226.948C416.462 227.233 416.243 227.497 415.979 227.74C415.722 227.976 415.406 228.17 415.031 228.323C414.656 228.469 414.201 228.542 413.667 228.542C412.972 228.542 412.333 228.399 411.75 228.115C411.174 227.83 410.712 227.434 410.365 226.927C410.017 226.413 409.844 225.823 409.844 225.156C409.844 224.573 409.948 224.052 410.156 223.594C410.372 223.135 410.694 222.747 411.125 222.427C411.556 222.108 412.104 221.865 412.771 221.698C413.437 221.531 414.222 221.448 415.125 221.448H416.635ZM426.448 225.833C426.774 225.833 427.052 225.774 427.281 225.656C427.517 225.531 427.694 225.358 427.812 225.135C427.937 224.906 427.997 224.632 427.99 224.312H431.292C431.299 225.16 431.09 225.903 430.667 226.542C430.25 227.174 429.681 227.667 428.958 228.021C428.243 228.368 427.434 228.542 426.531 228.542C425.649 228.542 424.878 228.399 424.219 228.115C423.559 227.823 423.007 227.42 422.562 226.906C422.125 226.385 421.795 225.778 421.573 225.083C421.358 224.389 421.25 223.635 421.25 222.823V222.583C421.25 221.771 421.358 221.017 421.573 220.323C421.795 219.622 422.125 219.014 422.562 218.5C423.007 217.979 423.556 217.576 424.208 217.292C424.868 217 425.635 216.854 426.51 216.854C427.448 216.854 428.274 217.031 428.99 217.385C429.712 217.74 430.278 218.253 430.687 218.927C431.097 219.601 431.299 220.417 431.292 221.375H427.99C427.997 221.035 427.944 220.729 427.833 220.458C427.722 220.187 427.549 219.972 427.312 219.812C427.083 219.646 426.788 219.562 426.427 219.562C426.066 219.562 425.774 219.642 425.552 219.802C425.33 219.962 425.16 220.184 425.042 220.469C424.931 220.747 424.854 221.066 424.812 221.427C424.778 221.788 424.76 222.174 424.76 222.583V222.823C424.76 223.24 424.778 223.632 424.812 224C424.854 224.361 424.934 224.681 425.052 224.958C425.17 225.229 425.34 225.444 425.562 225.604C425.785 225.757 426.08 225.833 426.448 225.833ZM438.729 217.062V219.5H431.937V217.062H438.729ZM433.365 214.26H436.875V224.656C436.875 224.955 436.91 225.187 436.979 225.354C437.049 225.514 437.167 225.628 437.333 225.698C437.507 225.76 437.736 225.792 438.021 225.792C438.222 225.792 438.389 225.788 438.521 225.781C438.653 225.767 438.778 225.75 438.896 225.729V228.24C438.597 228.337 438.285 228.41 437.958 228.458C437.632 228.514 437.285 228.542 436.917 228.542C436.167 228.542 435.524 228.424 434.99 228.187C434.462 227.951 434.059 227.58 433.781 227.073C433.503 226.566 433.365 225.906 433.365 225.094V214.26ZM454.062 225.833L458.292 229.187L456.021 231.104L451.865 227.75L454.062 225.833ZM458.469 220.448V221.062C458.469 222.222 458.306 223.264 457.979 224.187C457.66 225.104 457.201 225.889 456.604 226.542C456.014 227.187 455.316 227.684 454.51 228.031C453.705 228.372 452.816 228.542 451.844 228.542C450.865 228.542 449.969 228.372 449.156 228.031C448.351 227.684 447.649 227.187 447.052 226.542C446.462 225.889 446.003 225.104 445.677 224.187C445.358 223.264 445.198 222.222 445.198 221.062V220.448C445.198 219.288 445.358 218.247 445.677 217.323C446.003 216.399 446.458 215.615 447.042 214.969C447.632 214.316 448.33 213.819 449.135 213.479C449.948 213.132 450.844 212.958 451.823 212.958C452.795 212.958 453.684 213.132 454.49 213.479C455.302 213.819 456.003 214.316 456.594 214.969C457.191 215.615 457.653 216.399 457.979 217.323C458.306 218.247 458.469 219.288 458.469 220.448ZM454.75 221.062V220.427C454.75 219.677 454.684 219.017 454.552 218.448C454.427 217.872 454.24 217.389 453.99 217C453.74 216.611 453.431 216.319 453.062 216.125C452.701 215.924 452.288 215.823 451.823 215.823C451.337 215.823 450.913 215.924 450.552 216.125C450.191 216.319 449.889 216.611 449.646 217C449.403 217.389 449.219 217.872 449.094 218.448C448.976 219.017 448.917 219.677 448.917 220.427V221.062C448.917 221.806 448.976 222.465 449.094 223.042C449.219 223.611 449.403 224.094 449.646 224.49C449.896 224.885 450.201 225.184 450.562 225.385C450.931 225.587 451.358 225.687 451.844 225.687C452.309 225.687 452.722 225.587 453.083 225.385C453.444 225.184 453.747 224.885 453.99 224.49C454.24 224.094 454.427 223.611 454.552 223.042C454.684 222.465 454.75 221.806 454.75 221.062ZM466.75 225.594V217.062H470.271V228.333H466.979L466.75 225.594ZM467.083 223.302L468 223.281C468 224.038 467.91 224.74 467.729 225.385C467.549 226.024 467.281 226.58 466.927 227.052C466.58 227.524 466.149 227.892 465.635 228.156C465.128 228.413 464.542 228.542 463.875 228.542C463.319 228.542 462.809 228.465 462.344 228.312C461.885 228.153 461.49 227.906 461.156 227.573C460.823 227.233 460.563 226.799 460.375 226.271C460.194 225.736 460.104 225.097 460.104 224.354V217.062H463.615V224.375C463.615 224.625 463.646 224.84 463.708 225.021C463.771 225.201 463.861 225.354 463.979 225.479C464.097 225.597 464.243 225.687 464.417 225.75C464.597 225.806 464.802 225.833 465.031 225.833C465.559 225.833 465.972 225.722 466.271 225.5C466.569 225.278 466.778 224.976 466.896 224.594C467.021 224.212 467.083 223.781 467.083 223.302ZM477.667 228.542C476.75 228.542 475.931 228.399 475.208 228.115C474.486 227.823 473.875 227.424 473.375 226.917C472.882 226.41 472.503 225.826 472.24 225.167C471.983 224.507 471.854 223.809 471.854 223.073V222.677C471.854 221.851 471.969 221.087 472.198 220.385C472.427 219.677 472.767 219.059 473.219 218.531C473.67 218.003 474.236 217.594 474.917 217.302C475.597 217.003 476.389 216.854 477.292 216.854C478.09 216.854 478.806 216.983 479.438 217.24C480.069 217.497 480.604 217.865 481.042 218.344C481.486 218.823 481.823 219.403 482.052 220.083C482.288 220.764 482.406 221.528 482.406 222.375V223.802H473.198V221.604H478.979V221.333C478.986 220.958 478.92 220.639 478.781 220.375C478.649 220.111 478.455 219.91 478.198 219.771C477.941 219.632 477.628 219.562 477.26 219.562C476.878 219.562 476.563 219.646 476.313 219.812C476.069 219.979 475.878 220.208 475.74 220.5C475.608 220.785 475.514 221.115 475.458 221.49C475.403 221.865 475.375 222.26 475.375 222.677V223.073C475.375 223.49 475.431 223.868 475.542 224.208C475.66 224.549 475.826 224.84 476.042 225.083C476.264 225.319 476.528 225.503 476.833 225.635C477.146 225.767 477.5 225.833 477.896 225.833C478.375 225.833 478.847 225.743 479.313 225.562C479.778 225.382 480.177 225.083 480.51 224.667L482.104 226.562C481.875 226.889 481.549 227.205 481.125 227.51C480.708 227.816 480.208 228.066 479.625 228.26C479.042 228.448 478.389 228.542 477.667 228.542ZM487.375 219.854V228.333H483.865V217.062H487.146L487.375 219.854ZM490.708 216.979L490.646 220.24C490.507 220.226 490.319 220.208 490.083 220.187C489.847 220.167 489.649 220.156 489.49 220.156C489.08 220.156 488.726 220.205 488.427 220.302C488.135 220.392 487.892 220.531 487.698 220.719C487.51 220.899 487.372 221.128 487.281 221.406C487.198 221.684 487.16 222.007 487.167 222.375L486.531 221.958C486.531 221.201 486.604 220.514 486.75 219.896C486.903 219.271 487.118 218.733 487.396 218.281C487.674 217.823 488.01 217.472 488.406 217.229C488.802 216.979 489.247 216.854 489.74 216.854C489.913 216.854 490.083 216.865 490.25 216.885C490.424 216.906 490.576 216.937 490.708 216.979ZM495.563 227.01L498.479 217.062H502.25L497.719 230.01C497.622 230.295 497.493 230.601 497.333 230.927C497.174 231.26 496.955 231.576 496.677 231.875C496.399 232.174 496.042 232.417 495.604 232.604C495.174 232.792 494.639 232.885 494 232.885C493.66 232.885 493.41 232.868 493.25 232.833C493.097 232.806 492.861 232.753 492.542 232.677V230.167C492.632 230.167 492.708 230.167 492.771 230.167C492.84 230.167 492.917 230.167 493 230.167C493.375 230.167 493.674 230.128 493.896 230.052C494.125 229.976 494.299 229.865 494.417 229.719C494.542 229.573 494.639 229.396 494.708 229.187L495.563 227.01ZM494.823 217.062L497.042 224.948L497.427 228.667H495.073L491.063 217.062H494.823Z" fill="white"/>
<rect x="571" y="196.333" width="208" height="49.3333" rx="4.66667" fill="#363636" stroke="#363636" stroke-width="4"/>
<path d="M632.167 213.167V228.333H628.51V213.167H632.167ZM636.729 213.167V215.99H624.052V213.167H636.729ZM640.719 227.01L643.635 217.062H647.406L642.875 230.01C642.778 230.295 642.649 230.601 642.49 230.927C642.33 231.26 642.111 231.576 641.833 231.875C641.556 232.174 641.198 232.417 640.76 232.604C640.33 232.792 639.795 232.885 639.156 232.885C638.816 232.885 638.566 232.868 638.406 232.833C638.253 232.806 638.017 232.753 637.698 232.677V230.167C637.788 230.167 637.865 230.167 637.927 230.167C637.997 230.167 638.073 230.167 638.156 230.167C638.531 230.167 638.83 230.128 639.052 230.052C639.281 229.976 639.455 229.865 639.573 229.719C639.698 229.573 639.795 229.396 639.865 229.187L640.719 227.01ZM639.979 217.062L642.198 224.948L642.583 228.667H640.229L636.219 217.062H639.979ZM651.865 219.229V232.667H648.354V217.062H651.625L651.865 219.229ZM658.781 222.562V222.781C658.781 223.601 658.687 224.361 658.5 225.062C658.312 225.764 658.035 226.375 657.667 226.896C657.299 227.417 656.84 227.823 656.292 228.115C655.75 228.399 655.122 228.542 654.406 228.542C653.733 228.542 653.153 228.392 652.667 228.094C652.181 227.795 651.774 227.382 651.448 226.854C651.122 226.326 650.858 225.722 650.656 225.042C650.455 224.361 650.295 223.642 650.177 222.885V222.604C650.295 221.792 650.455 221.038 650.656 220.344C650.858 219.642 651.122 219.031 651.448 218.51C651.774 217.99 652.177 217.583 652.656 217.292C653.142 217 653.722 216.854 654.396 216.854C655.111 216.854 655.74 216.99 656.281 217.26C656.83 217.531 657.288 217.92 657.656 218.427C658.031 218.927 658.312 219.528 658.5 220.229C658.687 220.931 658.781 221.708 658.781 222.562ZM655.271 222.781V222.562C655.271 222.125 655.24 221.726 655.177 221.365C655.115 220.997 655.014 220.677 654.875 220.406C654.743 220.135 654.566 219.927 654.344 219.781C654.122 219.635 653.847 219.562 653.521 219.562C653.146 219.562 652.83 219.622 652.573 219.74C652.323 219.851 652.122 220.024 651.969 220.26C651.823 220.49 651.719 220.778 651.656 221.125C651.601 221.465 651.576 221.865 651.583 222.323V223.177C651.569 223.705 651.622 224.17 651.74 224.573C651.858 224.969 652.062 225.278 652.354 225.5C652.646 225.722 653.042 225.833 653.542 225.833C653.875 225.833 654.153 225.757 654.375 225.604C654.597 225.444 654.774 225.226 654.906 224.948C655.038 224.663 655.132 224.337 655.187 223.969C655.243 223.601 655.271 223.205 655.271 222.781ZM665.802 228.542C664.885 228.542 664.066 228.399 663.344 228.115C662.622 227.823 662.01 227.424 661.51 226.917C661.017 226.41 660.639 225.826 660.375 225.167C660.118 224.507 659.99 223.809 659.99 223.073V222.677C659.99 221.851 660.104 221.087 660.333 220.385C660.562 219.677 660.903 219.059 661.354 218.531C661.806 218.003 662.372 217.594 663.052 217.302C663.733 217.003 664.524 216.854 665.427 216.854C666.226 216.854 666.941 216.983 667.573 217.24C668.205 217.497 668.74 217.865 669.177 218.344C669.622 218.823 669.958 219.403 670.187 220.083C670.424 220.764 670.542 221.528 670.542 222.375V223.802H661.333V221.604H667.115V221.333C667.122 220.958 667.056 220.639 666.917 220.375C666.785 220.111 666.59 219.91 666.333 219.771C666.076 219.632 665.764 219.562 665.396 219.562C665.014 219.562 664.698 219.646 664.448 219.812C664.205 219.979 664.014 220.208 663.875 220.5C663.743 220.785 663.649 221.115 663.594 221.49C663.538 221.865 663.51 222.26 663.51 222.677V223.073C663.51 223.49 663.566 223.868 663.677 224.208C663.795 224.549 663.962 224.84 664.177 225.083C664.399 225.319 664.663 225.503 664.969 225.635C665.281 225.767 665.635 225.833 666.031 225.833C666.51 225.833 666.983 225.743 667.448 225.562C667.913 225.382 668.312 225.083 668.646 224.667L670.24 226.562C670.01 226.889 669.684 227.205 669.26 227.51C668.844 227.816 668.344 228.066 667.76 228.26C667.177 228.448 666.524 228.542 665.802 228.542ZM677.875 225.167C677.875 224.972 677.809 224.806 677.677 224.667C677.552 224.521 677.33 224.389 677.01 224.271C676.691 224.146 676.243 224.021 675.667 223.896C675.118 223.778 674.601 223.622 674.115 223.427C673.635 223.233 673.215 222.997 672.854 222.719C672.493 222.441 672.208 222.111 672 221.729C671.799 221.347 671.698 220.91 671.698 220.417C671.698 219.937 671.799 219.486 672 219.062C672.208 218.632 672.51 218.253 672.906 217.927C673.309 217.594 673.799 217.333 674.375 217.146C674.951 216.951 675.608 216.854 676.344 216.854C677.358 216.854 678.233 217.01 678.969 217.323C679.705 217.628 680.271 218.059 680.667 218.615C681.069 219.163 681.271 219.799 681.271 220.521H677.76C677.76 220.236 677.712 219.993 677.615 219.792C677.524 219.59 677.375 219.437 677.167 219.333C676.958 219.222 676.681 219.167 676.333 219.167C676.09 219.167 675.868 219.212 675.667 219.302C675.472 219.392 675.316 219.517 675.198 219.677C675.08 219.837 675.021 220.024 675.021 220.24C675.021 220.392 675.056 220.531 675.125 220.656C675.201 220.774 675.316 220.885 675.469 220.99C675.622 221.087 675.816 221.177 676.052 221.26C676.288 221.337 676.573 221.406 676.906 221.469C677.663 221.608 678.372 221.806 679.031 222.062C679.691 222.319 680.226 222.684 680.635 223.156C681.052 223.628 681.26 224.264 681.26 225.062C681.26 225.562 681.146 226.024 680.917 226.448C680.687 226.865 680.358 227.233 679.927 227.552C679.497 227.865 678.979 228.108 678.375 228.281C677.771 228.455 677.09 228.542 676.333 228.542C675.257 228.542 674.347 228.351 673.604 227.969C672.861 227.58 672.299 227.094 671.917 226.51C671.542 225.92 671.354 225.323 671.354 224.719H674.625C674.639 225.066 674.722 225.351 674.875 225.573C675.035 225.795 675.247 225.958 675.51 226.062C675.774 226.167 676.08 226.219 676.427 226.219C676.747 226.219 677.01 226.174 677.219 226.083C677.434 225.993 677.597 225.872 677.708 225.719C677.819 225.559 677.875 225.375 677.875 225.167ZM687.667 225.833C687.993 225.833 688.271 225.774 688.5 225.656C688.736 225.531 688.913 225.358 689.031 225.135C689.156 224.906 689.215 224.632 689.208 224.312H692.51C692.517 225.16 692.309 225.903 691.885 226.542C691.469 227.174 690.899 227.667 690.177 228.021C689.462 228.368 688.653 228.542 687.75 228.542C686.868 228.542 686.097 228.399 685.437 228.115C684.778 227.823 684.226 227.42 683.781 226.906C683.344 226.385 683.014 225.778 682.792 225.083C682.576 224.389 682.469 223.635 682.469 222.823V222.583C682.469 221.771 682.576 221.017 682.792 220.323C683.014 219.622 683.344 219.014 683.781 218.5C684.226 217.979 684.774 217.576 685.427 217.292C686.087 217 686.854 216.854 687.729 216.854C688.667 216.854 689.493 217.031 690.208 217.385C690.931 217.74 691.497 218.253 691.906 218.927C692.316 219.601 692.517 220.417 692.51 221.375H689.208C689.215 221.035 689.163 220.729 689.052 220.458C688.941 220.187 688.767 219.972 688.531 219.812C688.302 219.646 688.007 219.562 687.646 219.562C687.285 219.562 686.993 219.642 686.771 219.802C686.549 219.962 686.378 220.184 686.26 220.469C686.149 220.747 686.073 221.066 686.031 221.427C685.997 221.788 685.979 222.174 685.979 222.583V222.823C685.979 223.24 685.997 223.632 686.031 224C686.073 224.361 686.153 224.681 686.271 224.958C686.389 225.229 686.559 225.444 686.781 225.604C687.003 225.757 687.299 225.833 687.667 225.833ZM697.552 219.854V228.333H694.042V217.062H697.323L697.552 219.854ZM700.885 216.979L700.823 220.24C700.684 220.226 700.497 220.208 700.26 220.187C700.024 220.167 699.826 220.156 699.667 220.156C699.257 220.156 698.903 220.205 698.604 220.302C698.313 220.392 698.069 220.531 697.875 220.719C697.688 220.899 697.549 221.128 697.458 221.406C697.375 221.684 697.337 222.007 697.344 222.375L696.708 221.958C696.708 221.201 696.781 220.514 696.927 219.896C697.08 219.271 697.295 218.733 697.573 218.281C697.851 217.823 698.188 217.472 698.583 217.229C698.979 216.979 699.424 216.854 699.917 216.854C700.09 216.854 700.26 216.865 700.427 216.885C700.601 216.906 700.753 216.937 700.885 216.979ZM705.802 217.062V228.333H702.281V217.062H705.802ZM702.073 214.156C702.073 213.656 702.253 213.247 702.615 212.927C702.976 212.608 703.444 212.448 704.021 212.448C704.597 212.448 705.066 212.608 705.427 212.927C705.788 213.247 705.969 213.656 705.969 214.156C705.969 214.656 705.788 215.066 705.427 215.385C705.066 215.705 704.597 215.865 704.021 215.865C703.444 215.865 702.976 215.705 702.615 215.385C702.253 215.066 702.073 214.656 702.073 214.156ZM711.51 219.229V232.667H708V217.062H711.271L711.51 219.229ZM718.427 222.562V222.781C718.427 223.601 718.333 224.361 718.146 225.062C717.958 225.764 717.681 226.375 717.312 226.896C716.944 227.417 716.486 227.823 715.937 228.115C715.396 228.399 714.767 228.542 714.052 228.542C713.378 228.542 712.799 228.392 712.312 228.094C711.826 227.795 711.42 227.382 711.094 226.854C710.767 226.326 710.503 225.722 710.302 225.042C710.101 224.361 709.941 223.642 709.823 222.885V222.604C709.941 221.792 710.101 221.038 710.302 220.344C710.503 219.642 710.767 219.031 711.094 218.51C711.42 217.99 711.823 217.583 712.302 217.292C712.788 217 713.368 216.854 714.042 216.854C714.757 216.854 715.385 216.99 715.927 217.26C716.476 217.531 716.934 217.92 717.302 218.427C717.677 218.927 717.958 219.528 718.146 220.229C718.333 220.931 718.427 221.708 718.427 222.562ZM714.917 222.781V222.562C714.917 222.125 714.885 221.726 714.823 221.365C714.76 220.997 714.66 220.677 714.521 220.406C714.389 220.135 714.212 219.927 713.99 219.781C713.767 219.635 713.493 219.562 713.167 219.562C712.792 219.562 712.476 219.622 712.219 219.74C711.969 219.851 711.767 220.024 711.615 220.26C711.469 220.49 711.365 220.778 711.302 221.125C711.247 221.465 711.222 221.865 711.229 222.323V223.177C711.215 223.705 711.267 224.17 711.385 224.573C711.503 224.969 711.708 225.278 712 225.5C712.292 225.722 712.687 225.833 713.187 225.833C713.521 225.833 713.799 225.757 714.021 225.604C714.243 225.444 714.42 225.226 714.552 224.948C714.684 224.663 714.778 224.337 714.833 223.969C714.889 223.601 714.917 223.205 714.917 222.781ZM725.927 217.062V219.5H719.135V217.062H725.927ZM720.563 214.26H724.073V224.656C724.073 224.955 724.108 225.187 724.177 225.354C724.247 225.514 724.365 225.628 724.531 225.698C724.705 225.76 724.934 225.792 725.219 225.792C725.42 225.792 725.587 225.788 725.719 225.781C725.851 225.767 725.976 225.75 726.094 225.729V228.24C725.795 228.337 725.483 228.41 725.156 228.458C724.83 228.514 724.483 228.542 724.115 228.542C723.365 228.542 722.722 228.424 722.188 228.187C721.66 227.951 721.257 227.58 720.979 227.073C720.701 226.566 720.563 225.906 720.563 225.094V214.26Z" fill="white"/>
<rect x="803" y="196.333" width="208" height="49.3333" rx="4.66667" fill="#363636" stroke="#363636" stroke-width="4"/>
<path d="M882.844 212.167V227.333H879.198L873.833 217.896V227.333H870.177V212.167H873.833L879.198 221.604V212.167H882.844ZM884.552 221.812V221.594C884.552 220.767 884.67 220.007 884.906 219.312C885.142 218.611 885.49 218.003 885.948 217.49C886.406 216.976 886.972 216.576 887.646 216.292C888.319 216 889.097 215.854 889.979 215.854C890.868 215.854 891.649 216 892.323 216.292C893.003 216.576 893.573 216.976 894.031 217.49C894.49 218.003 894.837 218.611 895.073 219.312C895.309 220.007 895.427 220.767 895.427 221.594V221.812C895.427 222.632 895.309 223.392 895.073 224.094C894.837 224.788 894.49 225.396 894.031 225.917C893.573 226.431 893.007 226.83 892.333 227.115C891.66 227.399 890.882 227.542 890 227.542C889.118 227.542 888.337 227.399 887.656 227.115C886.976 226.83 886.406 226.431 885.948 225.917C885.49 225.396 885.142 224.788 884.906 224.094C884.67 223.392 884.552 222.632 884.552 221.812ZM888.062 221.594V221.812C888.062 222.236 888.094 222.632 888.156 223C888.219 223.368 888.323 223.691 888.469 223.969C888.615 224.24 888.812 224.451 889.062 224.604C889.312 224.757 889.625 224.833 890 224.833C890.368 224.833 890.674 224.757 890.917 224.604C891.167 224.451 891.365 224.24 891.51 223.969C891.656 223.691 891.76 223.368 891.823 223C891.885 222.632 891.917 222.236 891.917 221.812V221.594C891.917 221.184 891.885 220.799 891.823 220.437C891.76 220.069 891.656 219.747 891.51 219.469C891.365 219.184 891.167 218.962 890.917 218.802C890.667 218.642 890.354 218.562 889.979 218.562C889.611 218.562 889.302 218.642 889.052 218.802C888.809 218.962 888.615 219.184 888.469 219.469C888.323 219.747 888.219 220.069 888.156 220.437C888.094 220.799 888.062 221.184 888.062 221.594ZM903.469 224.75V211.333H907V227.333H903.833L903.469 224.75ZM896.552 221.833V221.615C896.552 220.76 896.646 219.983 896.833 219.281C897.021 218.573 897.299 217.965 897.667 217.458C898.035 216.944 898.493 216.549 899.042 216.271C899.59 215.993 900.222 215.854 900.938 215.854C901.576 215.854 902.135 216.003 902.615 216.302C903.094 216.594 903.503 217.003 903.844 217.531C904.184 218.059 904.462 218.677 904.677 219.385C904.892 220.087 905.056 220.844 905.167 221.656V221.917C905.056 222.681 904.892 223.403 904.677 224.083C904.462 224.757 904.184 225.354 903.844 225.875C903.503 226.396 903.09 226.806 902.604 227.104C902.125 227.396 901.563 227.542 900.917 227.542C900.201 227.542 899.569 227.399 899.021 227.115C898.479 226.83 898.024 226.431 897.656 225.917C897.295 225.403 897.021 224.799 896.833 224.104C896.646 223.41 896.552 222.653 896.552 221.833ZM900.063 221.615V221.833C900.063 222.257 900.09 222.649 900.146 223.01C900.201 223.372 900.295 223.691 900.427 223.969C900.566 224.24 900.747 224.451 900.969 224.604C901.198 224.757 901.479 224.833 901.813 224.833C902.264 224.833 902.635 224.726 902.927 224.51C903.226 224.295 903.444 223.99 903.583 223.594C903.729 223.198 903.792 222.733 903.771 222.198V221.375C903.785 220.917 903.753 220.514 903.677 220.167C903.601 219.812 903.479 219.517 903.313 219.281C903.153 219.045 902.948 218.868 902.698 218.75C902.455 218.625 902.167 218.562 901.833 218.562C901.507 218.562 901.229 218.639 901 218.792C900.778 218.944 900.597 219.16 900.458 219.437C900.319 219.708 900.219 220.031 900.156 220.406C900.094 220.774 900.063 221.177 900.063 221.615ZM914.448 227.542C913.531 227.542 912.712 227.399 911.99 227.115C911.267 226.823 910.656 226.424 910.156 225.917C909.663 225.41 909.285 224.826 909.021 224.167C908.764 223.507 908.635 222.809 908.635 222.073V221.677C908.635 220.851 908.75 220.087 908.979 219.385C909.208 218.677 909.549 218.059 910 217.531C910.451 217.003 911.017 216.594 911.698 216.302C912.378 216.003 913.17 215.854 914.073 215.854C914.872 215.854 915.587 215.983 916.219 216.24C916.851 216.497 917.385 216.865 917.823 217.344C918.267 217.823 918.604 218.403 918.833 219.083C919.069 219.764 919.188 220.528 919.188 221.375V222.802H909.979V220.604H915.76V220.333C915.767 219.958 915.701 219.639 915.563 219.375C915.431 219.111 915.236 218.91 914.979 218.771C914.722 218.632 914.41 218.562 914.042 218.562C913.66 218.562 913.344 218.646 913.094 218.812C912.851 218.979 912.66 219.208 912.521 219.5C912.389 219.785 912.295 220.115 912.24 220.49C912.184 220.865 912.156 221.26 912.156 221.677V222.073C912.156 222.49 912.212 222.868 912.323 223.208C912.441 223.549 912.608 223.84 912.823 224.083C913.045 224.319 913.309 224.503 913.615 224.635C913.927 224.767 914.281 224.833 914.677 224.833C915.156 224.833 915.628 224.743 916.094 224.562C916.559 224.382 916.958 224.083 917.292 223.667L918.885 225.562C918.656 225.889 918.33 226.205 917.906 226.51C917.49 226.816 916.99 227.066 916.406 227.26C915.823 227.448 915.17 227.542 914.448 227.542ZM926.813 222.573V212.167H930.458V222.573C930.458 223.587 930.226 224.465 929.76 225.208C929.302 225.951 928.677 226.528 927.885 226.937C927.101 227.34 926.219 227.542 925.24 227.542C924.226 227.542 923.323 227.372 922.531 227.031C921.747 226.691 921.128 226.167 920.677 225.458C920.233 224.75 920.01 223.847 920.01 222.75H923.677C923.677 223.264 923.736 223.667 923.854 223.958C923.972 224.243 924.146 224.444 924.375 224.562C924.611 224.674 924.899 224.729 925.24 224.729C925.573 224.729 925.854 224.646 926.083 224.479C926.319 224.306 926.5 224.059 926.625 223.74C926.75 223.413 926.813 223.024 926.813 222.573ZM940.594 223.302C940.594 223.066 940.559 222.854 940.49 222.667C940.42 222.472 940.292 222.292 940.104 222.125C939.917 221.958 939.646 221.792 939.292 221.625C938.944 221.451 938.486 221.271 937.917 221.083C937.25 220.861 936.608 220.611 935.99 220.333C935.372 220.049 934.819 219.719 934.333 219.344C933.847 218.962 933.462 218.517 933.177 218.01C932.892 217.497 932.75 216.899 932.75 216.219C932.75 215.566 932.896 214.979 933.188 214.458C933.479 213.931 933.885 213.483 934.406 213.115C934.934 212.74 935.552 212.455 936.26 212.26C936.969 212.059 937.743 211.958 938.583 211.958C939.694 211.958 940.674 212.153 941.521 212.542C942.375 212.924 943.042 213.469 943.521 214.177C944.007 214.878 944.25 215.708 944.25 216.667H940.615C940.615 216.285 940.535 215.948 940.375 215.656C940.222 215.365 939.99 215.135 939.677 214.969C939.365 214.802 938.972 214.719 938.5 214.719C938.042 214.719 937.656 214.788 937.344 214.927C937.031 215.066 936.795 215.253 936.635 215.49C936.476 215.719 936.396 215.972 936.396 216.25C936.396 216.479 936.458 216.687 936.583 216.875C936.715 217.056 936.899 217.226 937.135 217.385C937.378 217.545 937.67 217.698 938.01 217.844C938.358 217.99 938.747 218.132 939.177 218.271C939.983 218.528 940.698 218.816 941.323 219.135C941.955 219.448 942.486 219.806 942.917 220.208C943.354 220.604 943.684 221.056 943.906 221.562C944.135 222.069 944.25 222.642 944.25 223.281C944.25 223.962 944.118 224.566 943.854 225.094C943.59 225.622 943.212 226.069 942.719 226.437C942.226 226.799 941.635 227.073 940.948 227.26C940.26 227.448 939.493 227.542 938.646 227.542C937.868 227.542 937.101 227.444 936.344 227.25C935.594 227.049 934.913 226.743 934.302 226.333C933.691 225.917 933.201 225.385 932.833 224.74C932.472 224.087 932.292 223.312 932.292 222.417H935.958C935.958 222.861 936.017 223.236 936.135 223.542C936.253 223.847 936.427 224.094 936.656 224.281C936.885 224.462 937.167 224.594 937.5 224.677C937.833 224.753 938.215 224.792 938.646 224.792C939.111 224.792 939.486 224.726 939.771 224.594C940.056 224.455 940.264 224.274 940.396 224.052C940.528 223.823 940.594 223.573 940.594 223.302Z" fill="white"/>
<rect x="1035" y="196.333" width="208" height="49.3333" rx="4.66667" fill="#363636" stroke="#363636" stroke-width="4"/>
<path d="M1095.16 212.167H1098.14L1101.52 222.719L1104.91 212.167H1107.89L1102.73 227.333H1100.31L1095.16 212.167ZM1093.34 212.167H1096.43L1097 223.792V227.333H1093.34V212.167ZM1106.61 212.167H1109.71V227.333H1106.04V223.792L1106.61 212.167ZM1111.45 221.812V221.594C1111.45 220.767 1111.57 220.007 1111.8 219.312C1112.04 218.611 1112.39 218.003 1112.84 217.49C1113.3 216.976 1113.87 216.576 1114.54 216.292C1115.22 216 1115.99 215.854 1116.88 215.854C1117.76 215.854 1118.55 216 1119.22 216.292C1119.9 216.576 1120.47 216.976 1120.93 217.49C1121.39 218.003 1121.73 218.611 1121.97 219.312C1122.2 220.007 1122.32 220.767 1122.32 221.594V221.812C1122.32 222.632 1122.2 223.392 1121.97 224.094C1121.73 224.788 1121.39 225.396 1120.93 225.917C1120.47 226.431 1119.9 226.83 1119.23 227.115C1118.56 227.399 1117.78 227.542 1116.9 227.542C1116.01 227.542 1115.23 227.399 1114.55 227.115C1113.87 226.83 1113.3 226.431 1112.84 225.917C1112.39 225.396 1112.04 224.788 1111.8 224.094C1111.57 223.392 1111.45 222.632 1111.45 221.812ZM1114.96 221.594V221.812C1114.96 222.236 1114.99 222.632 1115.05 223C1115.11 223.368 1115.22 223.691 1115.36 223.969C1115.51 224.24 1115.71 224.451 1115.96 224.604C1116.21 224.757 1116.52 224.833 1116.9 224.833C1117.26 224.833 1117.57 224.757 1117.81 224.604C1118.06 224.451 1118.26 224.24 1118.41 223.969C1118.55 223.691 1118.66 223.368 1118.72 223C1118.78 222.632 1118.81 222.236 1118.81 221.812V221.594C1118.81 221.184 1118.78 220.799 1118.72 220.437C1118.66 220.069 1118.55 219.747 1118.41 219.469C1118.26 219.184 1118.06 218.962 1117.81 218.802C1117.56 218.642 1117.25 218.562 1116.88 218.562C1116.51 218.562 1116.2 218.642 1115.95 218.802C1115.7 218.962 1115.51 219.184 1115.36 219.469C1115.22 219.747 1115.11 220.069 1115.05 220.437C1114.99 220.799 1114.96 221.184 1114.96 221.594ZM1127.33 218.469V227.333H1123.82V216.062H1127.11L1127.33 218.469ZM1126.92 221.312L1126.09 221.333C1126.09 220.472 1126.2 219.705 1126.41 219.031C1126.61 218.351 1126.91 217.774 1127.29 217.302C1127.67 216.83 1128.13 216.472 1128.66 216.229C1129.19 215.979 1129.78 215.854 1130.44 215.854C1130.96 215.854 1131.43 215.931 1131.86 216.083C1132.3 216.236 1132.68 216.483 1132.99 216.823C1133.31 217.163 1133.55 217.615 1133.72 218.177C1133.89 218.733 1133.98 219.42 1133.98 220.24V227.333H1130.45V220.229C1130.45 219.778 1130.39 219.434 1130.26 219.198C1130.14 218.955 1129.95 218.788 1129.72 218.698C1129.48 218.608 1129.19 218.562 1128.85 218.562C1128.49 218.562 1128.19 218.632 1127.94 218.771C1127.69 218.91 1127.49 219.104 1127.33 219.354C1127.19 219.597 1127.08 219.885 1127.01 220.219C1126.95 220.552 1126.92 220.917 1126.92 221.312ZM1143.01 216.062H1146.2V226.896C1146.2 227.937 1145.96 228.819 1145.48 229.542C1145 230.271 1144.33 230.823 1143.47 231.198C1142.61 231.58 1141.61 231.771 1140.47 231.771C1139.96 231.771 1139.44 231.705 1138.92 231.573C1138.39 231.448 1137.9 231.26 1137.44 231.01C1136.98 230.76 1136.59 230.451 1136.28 230.083L1137.75 228.021C1138.03 228.34 1138.39 228.611 1138.82 228.833C1139.25 229.062 1139.76 229.177 1140.34 229.177C1140.85 229.177 1141.27 229.087 1141.61 228.906C1141.96 228.726 1142.23 228.462 1142.41 228.115C1142.59 227.774 1142.68 227.361 1142.68 226.875V218.729L1143.01 216.062ZM1135.52 221.833V221.615C1135.52 220.76 1135.63 219.983 1135.83 219.281C1136.05 218.573 1136.35 217.965 1136.75 217.458C1137.15 216.944 1137.64 216.549 1138.21 216.271C1138.78 215.993 1139.42 215.854 1140.14 215.854C1140.91 215.854 1141.54 216.003 1142.03 216.302C1142.53 216.594 1142.93 217.003 1143.23 217.531C1143.53 218.059 1143.77 218.677 1143.94 219.385C1144.11 220.087 1144.26 220.844 1144.38 221.656V221.917C1144.26 222.681 1144.09 223.403 1143.89 224.083C1143.68 224.757 1143.42 225.354 1143.09 225.875C1142.77 226.396 1142.36 226.806 1141.86 227.104C1141.38 227.396 1140.8 227.542 1140.11 227.542C1139.41 227.542 1138.77 227.399 1138.2 227.115C1137.64 226.83 1137.15 226.431 1136.75 225.917C1136.35 225.403 1136.05 224.799 1135.83 224.104C1135.63 223.41 1135.52 222.653 1135.52 221.833ZM1139.03 221.615V221.833C1139.03 222.257 1139.07 222.649 1139.15 223.01C1139.23 223.372 1139.35 223.691 1139.52 223.969C1139.69 224.24 1139.89 224.451 1140.14 224.604C1140.39 224.757 1140.68 224.833 1141.01 224.833C1141.52 224.833 1141.93 224.726 1142.24 224.51C1142.55 224.295 1142.78 223.99 1142.92 223.594C1143.06 223.198 1143.11 222.733 1143.09 222.198V221.375C1143.11 220.917 1143.08 220.514 1143 220.167C1142.92 219.812 1142.8 219.517 1142.64 219.281C1142.48 219.045 1142.26 218.868 1141.99 218.75C1141.73 218.625 1141.41 218.562 1141.03 218.562C1140.7 218.562 1140.42 218.639 1140.17 218.792C1139.92 218.944 1139.71 219.16 1139.54 219.437C1139.38 219.708 1139.25 220.031 1139.16 220.406C1139.07 220.774 1139.03 221.177 1139.03 221.615ZM1147.78 221.812V221.594C1147.78 220.767 1147.9 220.007 1148.14 219.312C1148.37 218.611 1148.72 218.003 1149.18 217.49C1149.64 216.976 1150.2 216.576 1150.88 216.292C1151.55 216 1152.33 215.854 1153.21 215.854C1154.1 215.854 1154.88 216 1155.55 216.292C1156.23 216.576 1156.8 216.976 1157.26 217.49C1157.72 218.003 1158.07 218.611 1158.3 219.312C1158.54 220.007 1158.66 220.767 1158.66 221.594V221.812C1158.66 222.632 1158.54 223.392 1158.3 224.094C1158.07 224.788 1157.72 225.396 1157.26 225.917C1156.8 226.431 1156.24 226.83 1155.56 227.115C1154.89 227.399 1154.11 227.542 1153.23 227.542C1152.35 227.542 1151.57 227.399 1150.89 227.115C1150.2 226.83 1149.64 226.431 1149.18 225.917C1148.72 225.396 1148.37 224.788 1148.14 224.094C1147.9 223.392 1147.78 222.632 1147.78 221.812ZM1151.29 221.594V221.812C1151.29 222.236 1151.32 222.632 1151.39 223C1151.45 223.368 1151.55 223.691 1151.7 223.969C1151.84 224.24 1152.04 224.451 1152.29 224.604C1152.54 224.757 1152.85 224.833 1153.23 224.833C1153.6 224.833 1153.9 224.757 1154.15 224.604C1154.4 224.451 1154.59 224.24 1154.74 223.969C1154.89 223.691 1154.99 223.368 1155.05 223C1155.11 222.632 1155.15 222.236 1155.15 221.812V221.594C1155.15 221.184 1155.11 220.799 1155.05 220.437C1154.99 220.069 1154.89 219.747 1154.74 219.469C1154.59 219.184 1154.4 218.962 1154.15 218.802C1153.9 218.642 1153.58 218.562 1153.21 218.562C1152.84 218.562 1152.53 218.642 1152.28 218.802C1152.04 218.962 1151.84 219.184 1151.7 219.469C1151.55 219.747 1151.45 220.069 1151.39 220.437C1151.32 220.799 1151.29 221.184 1151.29 221.594ZM1165.31 227.333H1161.95L1161.97 224.521H1165.31C1166.01 224.521 1166.59 224.354 1167.07 224.021C1167.56 223.687 1167.93 223.191 1168.18 222.531C1168.43 221.865 1168.56 221.045 1168.56 220.073V219.417C1168.56 218.687 1168.49 218.049 1168.34 217.5C1168.2 216.944 1168 216.483 1167.72 216.115C1167.44 215.74 1167.09 215.458 1166.68 215.271C1166.27 215.083 1165.8 214.99 1165.26 214.99H1161.89V212.167H1165.26C1166.29 212.167 1167.23 212.344 1168.08 212.698C1168.94 213.045 1169.69 213.545 1170.31 214.198C1170.94 214.844 1171.43 215.611 1171.77 216.5C1172.12 217.382 1172.29 218.361 1172.29 219.437V220.073C1172.29 221.142 1172.12 222.122 1171.77 223.01C1171.43 223.899 1170.95 224.667 1170.32 225.312C1169.7 225.958 1168.96 226.458 1168.1 226.812C1167.26 227.16 1166.33 227.333 1165.31 227.333ZM1164.04 212.167V227.333H1160.39V212.167H1164.04ZM1180.39 220.885H1176.48L1176.46 218.49H1179.63C1180.19 218.49 1180.65 218.427 1180.99 218.302C1181.33 218.17 1181.58 217.979 1181.73 217.729C1181.89 217.479 1181.97 217.167 1181.97 216.792C1181.97 216.361 1181.89 216.014 1181.73 215.75C1181.57 215.486 1181.32 215.295 1180.97 215.177C1180.63 215.052 1180.19 214.99 1179.65 214.99H1177.85V227.333H1174.2V212.167H1179.65C1180.58 212.167 1181.42 212.253 1182.16 212.427C1182.89 212.594 1183.52 212.851 1184.03 213.198C1184.55 213.545 1184.95 213.983 1185.22 214.51C1185.49 215.031 1185.63 215.646 1185.63 216.354C1185.63 216.972 1185.49 217.552 1185.23 218.094C1184.97 218.635 1184.52 219.076 1183.91 219.417C1183.3 219.75 1182.46 219.924 1181.4 219.937L1180.39 220.885ZM1180.24 227.333H1175.59L1176.84 224.521H1180.24C1180.74 224.521 1181.14 224.444 1181.44 224.292C1181.74 224.132 1181.96 223.924 1182.09 223.667C1182.23 223.403 1182.3 223.111 1182.3 222.792C1182.3 222.403 1182.24 222.066 1182.1 221.781C1181.98 221.497 1181.78 221.278 1181.5 221.125C1181.22 220.965 1180.85 220.885 1180.39 220.885H1177.31L1177.33 218.49H1181.01L1181.86 219.448C1182.88 219.406 1183.68 219.549 1184.27 219.875C1184.87 220.201 1185.3 220.632 1185.55 221.167C1185.81 221.701 1185.94 222.26 1185.94 222.844C1185.94 223.837 1185.72 224.667 1185.29 225.333C1184.87 226 1184.23 226.5 1183.39 226.833C1182.54 227.167 1181.49 227.333 1180.24 227.333Z" fill="white"/>
</svg>
