<svg width="1363" height="301" viewBox="0 0 1363 301" fill="none" xmlns="http://www.w3.org/2000/svg">
<rect width="1363" height="301" rx="15" fill="#F0F0F0"/>
<path d="M0 15C0 6.71573 6.71573 0 15 0H37V301H15C6.71573 301 0 294.284 0 286V15Z" fill="#1FA6D1"/>
<path d="M111.551 113.116L102.017 144H91.8926L106.26 104.898H112.679L111.551 113.116ZM119.446 144L109.886 113.116L108.65 104.898H115.149L129.598 144H119.446ZM119.07 129.417V136.695H99.0093V129.417H119.07ZM147.269 135.836C147.269 135.335 147.098 134.905 146.758 134.547C146.436 134.171 145.863 133.831 145.04 133.526C144.216 133.204 143.061 132.882 141.575 132.56C140.161 132.255 138.827 131.852 137.574 131.351C136.338 130.85 135.255 130.241 134.324 129.525C133.393 128.809 132.659 127.958 132.122 126.974C131.603 125.989 131.343 124.861 131.343 123.59C131.343 122.354 131.603 121.191 132.122 120.099C132.659 118.989 133.438 118.013 134.458 117.171C135.497 116.312 136.759 115.641 138.245 115.157C139.731 114.656 141.423 114.405 143.321 114.405C145.935 114.405 148.191 114.808 150.088 115.614C151.986 116.402 153.445 117.512 154.466 118.944C155.504 120.358 156.023 121.996 156.023 123.858H146.973C146.973 123.124 146.848 122.498 146.597 121.979C146.364 121.459 145.979 121.065 145.442 120.797C144.905 120.51 144.189 120.367 143.294 120.367C142.667 120.367 142.094 120.484 141.575 120.716C141.074 120.949 140.671 121.271 140.367 121.683C140.062 122.095 139.91 122.578 139.91 123.133C139.91 123.527 140 123.885 140.179 124.208C140.376 124.512 140.671 124.798 141.065 125.067C141.459 125.318 141.96 125.55 142.569 125.765C143.178 125.962 143.912 126.141 144.771 126.302C146.722 126.66 148.549 127.171 150.25 127.833C151.95 128.495 153.329 129.435 154.385 130.653C155.459 131.87 155.997 133.508 155.997 135.567C155.997 136.856 155.701 138.047 155.11 139.139C154.52 140.213 153.669 141.162 152.559 141.986C151.449 142.792 150.115 143.418 148.558 143.866C147 144.313 145.245 144.537 143.294 144.537C140.519 144.537 138.174 144.045 136.258 143.06C134.342 142.057 132.892 140.804 131.907 139.3C130.94 137.778 130.457 136.239 130.457 134.681H138.89C138.925 135.576 139.14 136.31 139.534 136.883C139.946 137.456 140.492 137.877 141.172 138.146C141.853 138.414 142.64 138.548 143.536 138.548C144.359 138.548 145.04 138.432 145.577 138.199C146.132 137.966 146.552 137.653 146.839 137.259C147.125 136.847 147.269 136.373 147.269 135.836ZM169.371 102.723V144H160.32V102.723H169.371ZM187.955 114.942L175.333 129.74L168.726 136.346L164.778 130.599L170.284 123.429L177.105 114.942H187.955ZM178.26 144L170.499 130.76L177.186 126.007L188.626 144H178.26ZM221.766 104.898V144H212.339V104.898H221.766ZM233.528 104.898V112.176H200.845V104.898H233.528ZM245.962 102.75V144H236.912V102.75H245.962ZM244.888 128.478L242.767 128.531C242.767 126.49 243.017 124.61 243.519 122.892C244.02 121.173 244.736 119.678 245.667 118.407C246.598 117.136 247.717 116.151 249.024 115.453C250.331 114.754 251.781 114.405 253.375 114.405C254.807 114.405 256.114 114.611 257.295 115.023C258.495 115.435 259.524 116.097 260.384 117.01C261.261 117.923 261.932 119.114 262.398 120.582C262.881 122.05 263.123 123.84 263.123 125.953V144H254.019V125.899C254.019 124.718 253.849 123.805 253.509 123.16C253.187 122.498 252.721 122.041 252.112 121.791C251.504 121.522 250.761 121.388 249.883 121.388C248.827 121.388 247.968 121.567 247.305 121.925C246.643 122.283 246.132 122.784 245.774 123.429C245.434 124.055 245.201 124.798 245.076 125.658C244.951 126.517 244.888 127.457 244.888 128.478ZM282.217 144.537C279.854 144.537 277.741 144.17 275.879 143.436C274.017 142.684 272.442 141.655 271.153 140.348C269.882 139.041 268.906 137.537 268.226 135.836C267.563 134.135 267.232 132.336 267.232 130.438V129.417C267.232 127.287 267.527 125.318 268.118 123.509C268.709 121.683 269.586 120.09 270.75 118.729C271.914 117.368 273.373 116.312 275.127 115.56C276.882 114.79 278.923 114.405 281.25 114.405C283.309 114.405 285.153 114.736 286.783 115.399C288.412 116.061 289.791 117.01 290.918 118.246C292.064 119.481 292.933 120.976 293.523 122.73C294.132 124.485 294.437 126.454 294.437 128.639V132.318H270.696V126.651H285.601V125.953C285.619 124.986 285.449 124.163 285.091 123.482C284.751 122.802 284.249 122.283 283.587 121.925C282.924 121.567 282.119 121.388 281.17 121.388C280.185 121.388 279.371 121.603 278.726 122.032C278.099 122.462 277.607 123.053 277.249 123.805C276.909 124.539 276.667 125.389 276.524 126.356C276.381 127.323 276.309 128.343 276.309 129.417V130.438C276.309 131.512 276.452 132.488 276.739 133.365C277.043 134.243 277.473 134.994 278.028 135.621C278.601 136.23 279.281 136.704 280.069 137.044C280.875 137.385 281.788 137.555 282.808 137.555C284.043 137.555 285.261 137.322 286.46 136.856C287.66 136.391 288.689 135.621 289.549 134.547L293.658 139.435C293.067 140.276 292.225 141.091 291.133 141.878C290.059 142.666 288.77 143.311 287.266 143.812C285.762 144.295 284.079 144.537 282.217 144.537ZM339.151 136.749V144H318.311V136.749H339.151ZM321.668 104.898V144H312.242V104.898H321.668ZM336.465 120.421V127.43H318.311V120.421H336.465ZM339.231 104.898V112.176H318.311V104.898H339.231ZM350.269 114.942L354.351 122.945L358.567 114.942H367.967L360.34 129.095L368.37 144H358.89L354.351 135.406L349.839 144H340.359L348.389 129.095L340.789 114.942H350.269ZM380.079 120.528V155.172H371.028V114.942H379.461L380.079 120.528ZM397.911 129.122V129.686C397.911 131.799 397.669 133.759 397.186 135.567C396.702 137.376 395.986 138.951 395.037 140.294C394.088 141.637 392.907 142.684 391.492 143.436C390.096 144.17 388.475 144.537 386.631 144.537C384.895 144.537 383.4 144.152 382.146 143.382C380.893 142.612 379.846 141.547 379.004 140.187C378.163 138.826 377.483 137.268 376.963 135.514C376.444 133.759 376.032 131.906 375.728 129.955V129.229C376.032 127.135 376.444 125.192 376.963 123.402C377.483 121.594 378.163 120.018 379.004 118.675C379.846 117.333 380.884 116.285 382.12 115.533C383.373 114.781 384.868 114.405 386.604 114.405C388.449 114.405 390.069 114.754 391.465 115.453C392.88 116.151 394.061 117.153 395.01 118.46C395.977 119.75 396.702 121.298 397.186 123.106C397.669 124.915 397.911 126.92 397.911 129.122ZM388.86 129.686V129.122C388.86 127.994 388.78 126.965 388.619 126.034C388.458 125.085 388.198 124.261 387.84 123.563C387.5 122.865 387.043 122.328 386.47 121.952C385.897 121.576 385.19 121.388 384.349 121.388C383.382 121.388 382.567 121.54 381.905 121.844C381.26 122.131 380.741 122.578 380.347 123.187C379.971 123.778 379.703 124.521 379.542 125.416C379.398 126.293 379.336 127.323 379.354 128.504V130.707C379.318 132.067 379.452 133.267 379.756 134.305C380.061 135.326 380.589 136.122 381.341 136.695C382.093 137.268 383.113 137.555 384.402 137.555C385.262 137.555 385.978 137.358 386.551 136.964C387.124 136.552 387.58 135.988 387.92 135.272C388.261 134.538 388.502 133.696 388.646 132.748C388.789 131.799 388.86 130.778 388.86 129.686ZM416.011 144.537C413.648 144.537 411.535 144.17 409.673 143.436C407.811 142.684 406.236 141.655 404.947 140.348C403.676 139.041 402.7 137.537 402.02 135.836C401.357 134.135 401.026 132.336 401.026 130.438V129.417C401.026 127.287 401.321 125.318 401.912 123.509C402.503 121.683 403.38 120.09 404.544 118.729C405.708 117.368 407.167 116.312 408.921 115.56C410.676 114.79 412.717 114.405 415.044 114.405C417.103 114.405 418.947 114.736 420.577 115.399C422.206 116.061 423.584 117.01 424.712 118.246C425.858 119.481 426.727 120.976 427.317 122.73C427.926 124.485 428.23 126.454 428.23 128.639V132.318H404.49V126.651H419.395V125.953C419.413 124.986 419.243 124.163 418.885 123.482C418.545 122.802 418.043 122.283 417.381 121.925C416.718 121.567 415.913 121.388 414.964 121.388C413.979 121.388 413.165 121.603 412.52 122.032C411.893 122.462 411.401 123.053 411.043 123.805C410.703 124.539 410.461 125.389 410.318 126.356C410.175 127.323 410.103 128.343 410.103 129.417V130.438C410.103 131.512 410.246 132.488 410.533 133.365C410.837 134.243 411.267 134.994 411.822 135.621C412.395 136.23 413.075 136.704 413.863 137.044C414.668 137.385 415.582 137.555 416.602 137.555C417.837 137.555 419.055 137.322 420.254 136.856C421.454 136.391 422.483 135.621 423.343 134.547L427.452 139.435C426.861 140.276 426.019 141.091 424.927 141.878C423.853 142.666 422.564 143.311 421.06 143.812C419.556 144.295 417.873 144.537 416.011 144.537ZM441.041 122.14V144H431.99V114.942H440.45L441.041 122.14ZM449.634 114.728L449.473 123.133C449.115 123.097 448.632 123.053 448.023 122.999C447.414 122.945 446.904 122.918 446.492 122.918C445.436 122.918 444.523 123.044 443.753 123.294C443.001 123.527 442.374 123.885 441.873 124.369C441.39 124.834 441.032 125.425 440.799 126.141C440.584 126.857 440.486 127.69 440.503 128.639L438.865 127.564C438.865 125.613 439.053 123.84 439.429 122.247C439.823 120.636 440.378 119.248 441.094 118.084C441.81 116.903 442.679 115.999 443.699 115.372C444.72 114.728 445.866 114.405 447.137 114.405C447.584 114.405 448.023 114.432 448.453 114.486C448.9 114.54 449.294 114.62 449.634 114.728ZM469.4 114.942V121.227H451.89V114.942H469.4ZM455.569 107.718H464.62V134.52C464.62 135.29 464.709 135.89 464.888 136.319C465.067 136.731 465.372 137.027 465.801 137.206C466.249 137.367 466.84 137.447 467.574 137.447C468.093 137.447 468.523 137.438 468.863 137.42C469.203 137.385 469.525 137.34 469.83 137.286V143.758C469.06 144.009 468.254 144.197 467.413 144.322C466.571 144.465 465.676 144.537 464.727 144.537C462.793 144.537 461.137 144.233 459.759 143.624C458.398 143.015 457.36 142.057 456.644 140.75C455.927 139.444 455.569 137.743 455.569 135.648V107.718Z" fill="black"/>
<path d="M96.563 55.1172H100.904L107.295 73.3862L113.687 55.1172H118.028L109.039 80H105.552L96.563 55.1172ZM94.2217 55.1172H98.5454L99.3315 72.9248V80H94.2217V55.1172ZM116.045 55.1172H120.386V80H115.259V72.9248L116.045 55.1172ZM123.787 70.9424V70.5835C123.787 69.2277 123.981 67.9801 124.368 66.8408C124.756 65.6901 125.319 64.6932 126.06 63.8501C126.801 63.007 127.712 62.3519 128.794 61.8848C129.877 61.4062 131.119 61.167 132.52 61.167C133.921 61.167 135.169 61.4062 136.263 61.8848C137.356 62.3519 138.274 63.007 139.014 63.8501C139.766 64.6932 140.336 65.6901 140.723 66.8408C141.111 67.9801 141.304 69.2277 141.304 70.5835V70.9424C141.304 72.2868 141.111 73.5343 140.723 74.6851C140.336 75.8244 139.766 76.8213 139.014 77.6758C138.274 78.5189 137.362 79.174 136.28 79.6411C135.197 80.1082 133.956 80.3418 132.554 80.3418C131.153 80.3418 129.905 80.1082 128.812 79.6411C127.729 79.174 126.812 78.5189 126.06 77.6758C125.319 76.8213 124.756 75.8244 124.368 74.6851C123.981 73.5343 123.787 72.2868 123.787 70.9424ZM128.709 70.5835V70.9424C128.709 71.7171 128.777 72.4406 128.914 73.1128C129.051 73.785 129.267 74.3774 129.563 74.8901C129.871 75.3914 130.27 75.7845 130.76 76.0693C131.25 76.3542 131.848 76.4966 132.554 76.4966C133.238 76.4966 133.825 76.3542 134.314 76.0693C134.804 75.7845 135.197 75.3914 135.494 74.8901C135.79 74.3774 136.006 73.785 136.143 73.1128C136.291 72.4406 136.365 71.7171 136.365 70.9424V70.5835C136.365 69.8315 136.291 69.1252 136.143 68.4644C136.006 67.7922 135.784 67.1997 135.477 66.687C135.18 66.1629 134.787 65.7528 134.297 65.4565C133.807 65.1603 133.215 65.0122 132.52 65.0122C131.825 65.0122 131.233 65.1603 130.743 65.4565C130.264 65.7528 129.871 66.1629 129.563 66.687C129.267 67.1997 129.051 67.7922 128.914 68.4644C128.777 69.1252 128.709 69.8315 128.709 70.5835ZM149.131 53.75V80H144.209V53.75H149.131ZM148.431 70.105H147.081C147.092 68.8175 147.263 67.6326 147.593 66.5503C147.924 65.4565 148.396 64.5109 149.012 63.7134C149.627 62.9045 150.362 62.2778 151.216 61.8335C152.082 61.3892 153.039 61.167 154.087 61.167C154.999 61.167 155.825 61.298 156.565 61.5601C157.317 61.8107 157.961 62.2209 158.497 62.7905C159.043 63.3488 159.465 64.0837 159.761 64.9951C160.057 65.9066 160.206 67.0117 160.206 68.3105V80H155.25V68.2764C155.25 67.4561 155.13 66.8123 154.891 66.3452C154.663 65.8667 154.327 65.5306 153.882 65.3369C153.449 65.1318 152.914 65.0293 152.276 65.0293C151.569 65.0293 150.966 65.1603 150.464 65.4224C149.974 65.6844 149.581 66.049 149.285 66.5161C148.989 66.9718 148.772 67.5073 148.636 68.1226C148.499 68.7378 148.431 69.3986 148.431 70.105ZM173.929 75.8301V67.5928C173.929 67.0003 173.832 66.4933 173.638 66.0718C173.444 65.6388 173.143 65.3027 172.732 65.0635C172.334 64.8242 171.815 64.7046 171.177 64.7046C170.63 64.7046 170.158 64.8014 169.759 64.9951C169.36 65.1774 169.052 65.4451 168.836 65.7983C168.619 66.1401 168.511 66.5446 168.511 67.0117H163.589C163.589 66.2256 163.772 65.4793 164.136 64.7729C164.501 64.0666 165.031 63.4456 165.726 62.9102C166.421 62.3633 167.247 61.936 168.204 61.6284C169.172 61.3208 170.254 61.167 171.451 61.167C172.886 61.167 174.162 61.4062 175.279 61.8848C176.395 62.3633 177.273 63.0811 177.911 64.0381C178.56 64.9951 178.885 66.1914 178.885 67.627V75.5396C178.885 76.5535 178.947 77.3853 179.073 78.0347C179.198 78.6727 179.38 79.231 179.62 79.7095V80H174.646C174.407 79.4987 174.225 78.8721 174.1 78.1201C173.986 77.3568 173.929 76.5934 173.929 75.8301ZM174.578 68.7378L174.612 71.5234H171.861C171.211 71.5234 170.647 71.5975 170.169 71.7456C169.69 71.8937 169.297 72.1045 168.99 72.3779C168.682 72.64 168.454 72.9476 168.306 73.3008C168.169 73.654 168.101 74.0413 168.101 74.4629C168.101 74.8844 168.198 75.2661 168.392 75.6079C168.585 75.9383 168.864 76.2004 169.229 76.394C169.594 76.5763 170.021 76.6675 170.511 76.6675C171.251 76.6675 171.895 76.5194 172.442 76.2231C172.989 75.9269 173.41 75.5623 173.707 75.1294C174.014 74.6965 174.174 74.2863 174.185 73.8989L175.484 75.9839C175.302 76.451 175.051 76.9352 174.732 77.4365C174.424 77.9378 174.031 78.4106 173.553 78.855C173.074 79.2879 172.499 79.6468 171.827 79.9316C171.154 80.2051 170.357 80.3418 169.434 80.3418C168.261 80.3418 167.195 80.1082 166.238 79.6411C165.293 79.1626 164.541 78.5075 163.982 77.6758C163.436 76.8327 163.162 75.8757 163.162 74.8047C163.162 73.8363 163.344 72.9761 163.709 72.2241C164.074 71.4722 164.609 70.8398 165.315 70.3271C166.033 69.8031 166.928 69.41 167.999 69.1479C169.069 68.8745 170.311 68.7378 171.724 68.7378H174.578ZM187.601 65.3369V80H182.662V61.5088H187.293L187.601 65.3369ZM186.917 70.105H185.55C185.55 68.8175 185.704 67.6326 186.011 66.5503C186.33 65.4565 186.792 64.5109 187.396 63.7134C188.011 62.9045 188.768 62.2778 189.668 61.8335C190.569 61.3892 191.611 61.167 192.796 61.167C193.616 61.167 194.368 61.2923 195.052 61.543C195.735 61.7822 196.322 62.1639 196.812 62.688C197.313 63.2007 197.701 63.8729 197.974 64.7046C198.248 65.5249 198.384 66.5104 198.384 67.6611V80H193.462V68.208C193.462 67.3649 193.348 66.7155 193.121 66.2598C192.893 65.804 192.568 65.485 192.146 65.3027C191.736 65.1204 191.241 65.0293 190.66 65.0293C190.022 65.0293 189.463 65.1603 188.985 65.4224C188.518 65.6844 188.13 66.049 187.823 66.5161C187.515 66.9718 187.287 67.5073 187.139 68.1226C186.991 68.7378 186.917 69.3986 186.917 70.105ZM197.923 69.541L196.163 69.7632C196.163 68.5555 196.311 67.4333 196.607 66.3965C196.915 65.3597 197.365 64.4482 197.957 63.6621C198.561 62.876 199.307 62.2664 200.196 61.8335C201.084 61.3892 202.11 61.167 203.272 61.167C204.161 61.167 204.97 61.298 205.699 61.5601C206.428 61.8107 207.049 62.2152 207.562 62.7734C208.086 63.3203 208.484 64.0381 208.758 64.9268C209.043 65.8154 209.185 66.9035 209.185 68.1909V80H204.246V68.1909C204.246 67.3364 204.132 66.687 203.904 66.2427C203.688 65.7869 203.369 65.4736 202.947 65.3027C202.537 65.1204 202.047 65.0293 201.478 65.0293C200.885 65.0293 200.367 65.1489 199.922 65.3882C199.478 65.616 199.108 65.9351 198.812 66.3452C198.515 66.7554 198.293 67.2339 198.145 67.7808C197.997 68.3162 197.923 68.903 197.923 69.541ZM217.918 65.3369V80H212.979V61.5088H217.61L217.918 65.3369ZM217.234 70.105H215.867C215.867 68.8175 216.021 67.6326 216.329 66.5503C216.648 65.4565 217.109 64.5109 217.713 63.7134C218.328 62.9045 219.086 62.2778 219.986 61.8335C220.886 61.3892 221.928 61.167 223.113 61.167C223.934 61.167 224.686 61.2923 225.369 61.543C226.053 61.7822 226.639 62.1639 227.129 62.688C227.631 63.2007 228.018 63.8729 228.292 64.7046C228.565 65.5249 228.702 66.5104 228.702 67.6611V80H223.78V68.208C223.78 67.3649 223.666 66.7155 223.438 66.2598C223.21 65.804 222.885 65.485 222.464 65.3027C222.054 65.1204 221.558 65.0293 220.977 65.0293C220.339 65.0293 219.781 65.1603 219.302 65.4224C218.835 65.6844 218.448 66.049 218.14 66.5161C217.833 66.9718 217.605 67.5073 217.457 68.1226C217.308 68.7378 217.234 69.3986 217.234 70.105ZM228.24 69.541L226.48 69.7632C226.48 68.5555 226.628 67.4333 226.924 66.3965C227.232 65.3597 227.682 64.4482 228.274 63.6621C228.878 62.876 229.625 62.2664 230.513 61.8335C231.402 61.3892 232.427 61.167 233.589 61.167C234.478 61.167 235.287 61.298 236.016 61.5601C236.745 61.8107 237.366 62.2152 237.879 62.7734C238.403 63.3203 238.802 64.0381 239.075 64.9268C239.36 65.8154 239.502 66.9035 239.502 68.1909V80H234.563V68.1909C234.563 67.3364 234.45 66.687 234.222 66.2427C234.005 65.7869 233.686 65.4736 233.265 65.3027C232.854 65.1204 232.365 65.0293 231.795 65.0293C231.202 65.0293 230.684 65.1489 230.24 65.3882C229.795 65.616 229.425 65.9351 229.129 66.3452C228.833 66.7554 228.611 67.2339 228.462 67.7808C228.314 68.3162 228.24 68.903 228.24 69.541ZM253.294 75.8301V67.5928C253.294 67.0003 253.197 66.4933 253.003 66.0718C252.81 65.6388 252.508 65.3027 252.098 65.0635C251.699 64.8242 251.181 64.7046 250.542 64.7046C249.996 64.7046 249.523 64.8014 249.124 64.9951C248.725 65.1774 248.418 65.4451 248.201 65.7983C247.985 66.1401 247.876 66.5446 247.876 67.0117H242.955C242.955 66.2256 243.137 65.4793 243.501 64.7729C243.866 64.0666 244.396 63.4456 245.091 62.9102C245.786 62.3633 246.612 61.936 247.569 61.6284C248.537 61.3208 249.62 61.167 250.816 61.167C252.251 61.167 253.528 61.4062 254.644 61.8848C255.761 62.3633 256.638 63.0811 257.276 64.0381C257.925 64.9951 258.25 66.1914 258.25 67.627V75.5396C258.25 76.5535 258.313 77.3853 258.438 78.0347C258.563 78.6727 258.746 79.231 258.985 79.7095V80H254.012C253.772 79.4987 253.59 78.8721 253.465 78.1201C253.351 77.3568 253.294 76.5934 253.294 75.8301ZM253.943 68.7378L253.978 71.5234H251.226C250.577 71.5234 250.013 71.5975 249.534 71.7456C249.056 71.8937 248.663 72.1045 248.355 72.3779C248.047 72.64 247.819 72.9476 247.671 73.3008C247.535 73.654 247.466 74.0413 247.466 74.4629C247.466 74.8844 247.563 75.2661 247.757 75.6079C247.951 75.9383 248.23 76.2004 248.594 76.394C248.959 76.5763 249.386 76.6675 249.876 76.6675C250.617 76.6675 251.26 76.5194 251.807 76.2231C252.354 75.9269 252.776 75.5623 253.072 75.1294C253.379 74.6965 253.539 74.2863 253.55 73.8989L254.849 75.9839C254.667 76.451 254.416 76.9352 254.097 77.4365C253.79 77.9378 253.396 78.4106 252.918 78.855C252.439 79.2879 251.864 79.6468 251.192 79.9316C250.52 80.2051 249.722 80.3418 248.799 80.3418C247.626 80.3418 246.561 80.1082 245.604 79.6411C244.658 79.1626 243.906 78.5075 243.348 77.6758C242.801 76.8327 242.527 75.8757 242.527 74.8047C242.527 73.8363 242.71 72.9761 243.074 72.2241C243.439 71.4722 243.974 70.8398 244.681 70.3271C245.398 69.8031 246.293 69.41 247.364 69.1479C248.435 68.8745 249.677 68.7378 251.089 68.7378H253.943ZM272.964 75.9668V53.75H277.92V80H273.46L272.964 75.9668ZM261.275 70.9766V70.6177C261.275 69.2049 261.434 67.9232 261.753 66.7725C262.072 65.6104 262.54 64.6134 263.155 63.7817C263.77 62.95 264.528 62.3063 265.428 61.8506C266.328 61.3949 267.353 61.167 268.504 61.167C269.586 61.167 270.532 61.3949 271.341 61.8506C272.161 62.3063 272.856 62.9557 273.426 63.7988C274.007 64.6305 274.474 65.616 274.827 66.7554C275.18 67.8833 275.437 69.1195 275.596 70.4639V71.25C275.437 72.5374 275.18 73.7337 274.827 74.8389C274.474 75.944 274.007 76.9124 273.426 77.7441C272.856 78.5645 272.161 79.2025 271.341 79.6582C270.521 80.1139 269.563 80.3418 268.47 80.3418C267.319 80.3418 266.294 80.1082 265.394 79.6411C264.505 79.174 263.753 78.5189 263.138 77.6758C262.534 76.8327 262.072 75.8415 261.753 74.7021C261.434 73.5628 261.275 72.321 261.275 70.9766ZM266.197 70.6177V70.9766C266.197 71.7399 266.254 72.452 266.368 73.1128C266.493 73.7736 266.692 74.3604 266.966 74.873C267.251 75.3743 267.615 75.7674 268.06 76.0522C268.515 76.3257 269.068 76.4624 269.717 76.4624C270.56 76.4624 271.255 76.2744 271.802 75.8984C272.349 75.5111 272.765 74.9813 273.05 74.3091C273.346 73.6369 273.517 72.8621 273.562 71.9849V69.7461C273.528 69.0283 273.426 68.3846 273.255 67.8149C273.095 67.2339 272.856 66.7383 272.537 66.3281C272.229 65.918 271.842 65.599 271.375 65.3711C270.919 65.1432 270.378 65.0293 269.751 65.0293C269.113 65.0293 268.567 65.1774 268.111 65.4736C267.655 65.7585 267.285 66.1515 267 66.6528C266.727 67.1541 266.521 67.7466 266.385 68.4302C266.259 69.1024 266.197 69.8315 266.197 70.6177ZM300.906 59.3726L294.139 80H288.687L297.933 55.1172H301.402L300.906 59.3726ZM306.529 80L299.744 59.3726L299.197 55.1172H302.701L311.998 80H306.529ZM306.221 70.7373V74.7534H293.079V70.7373H306.221ZM318.372 65.3369V80H313.433V61.5088H318.064L318.372 65.3369ZM317.688 70.105H316.321C316.321 68.8175 316.475 67.6326 316.783 66.5503C317.102 65.4565 317.563 64.5109 318.167 63.7134C318.782 62.9045 319.54 62.2778 320.44 61.8335C321.34 61.3892 322.382 61.167 323.567 61.167C324.388 61.167 325.14 61.2923 325.823 61.543C326.507 61.7822 327.094 62.1639 327.583 62.688C328.085 63.2007 328.472 63.8729 328.746 64.7046C329.019 65.5249 329.156 66.5104 329.156 67.6611V80H324.234V68.208C324.234 67.3649 324.12 66.7155 323.892 66.2598C323.664 65.804 323.34 65.485 322.918 65.3027C322.508 65.1204 322.012 65.0293 321.431 65.0293C320.793 65.0293 320.235 65.1603 319.756 65.4224C319.289 65.6844 318.902 66.049 318.594 66.5161C318.287 66.9718 318.059 67.5073 317.911 68.1226C317.763 68.7378 317.688 69.3986 317.688 70.105ZM328.694 69.541L326.934 69.7632C326.934 68.5555 327.082 67.4333 327.378 66.3965C327.686 65.3597 328.136 64.4482 328.729 63.6621C329.332 62.876 330.079 62.2664 330.967 61.8335C331.856 61.3892 332.881 61.167 334.043 61.167C334.932 61.167 335.741 61.298 336.47 61.5601C337.199 61.8107 337.82 62.2152 338.333 62.7734C338.857 63.3203 339.256 64.0381 339.529 64.9268C339.814 65.8154 339.957 66.9035 339.957 68.1909V80H335.018V68.1909C335.018 67.3364 334.904 66.687 334.676 66.2427C334.459 65.7869 334.14 65.4736 333.719 65.3027C333.309 65.1204 332.819 65.0293 332.249 65.0293C331.657 65.0293 331.138 65.1489 330.694 65.3882C330.25 65.616 329.879 65.9351 329.583 66.3452C329.287 66.7554 329.065 67.2339 328.917 67.7808C328.768 68.3162 328.694 68.903 328.694 69.541ZM348.689 65.3369V80H343.75V61.5088H348.382L348.689 65.3369ZM348.006 70.105H346.639C346.639 68.8175 346.792 67.6326 347.1 66.5503C347.419 65.4565 347.881 64.5109 348.484 63.7134C349.1 62.9045 349.857 62.2778 350.757 61.8335C351.657 61.3892 352.7 61.167 353.885 61.167C354.705 61.167 355.457 61.2923 356.141 61.543C356.824 61.7822 357.411 62.1639 357.901 62.688C358.402 63.2007 358.79 63.8729 359.063 64.7046C359.336 65.5249 359.473 66.5104 359.473 67.6611V80H354.551V68.208C354.551 67.3649 354.437 66.7155 354.209 66.2598C353.982 65.804 353.657 65.485 353.235 65.3027C352.825 65.1204 352.33 65.0293 351.749 65.0293C351.111 65.0293 350.552 65.1603 350.074 65.4224C349.607 65.6844 349.219 66.049 348.912 66.5161C348.604 66.9718 348.376 67.5073 348.228 68.1226C348.08 68.7378 348.006 69.3986 348.006 70.105ZM359.012 69.541L357.251 69.7632C357.251 68.5555 357.4 67.4333 357.696 66.3965C358.003 65.3597 358.453 64.4482 359.046 63.6621C359.65 62.876 360.396 62.2664 361.285 61.8335C362.173 61.3892 363.199 61.167 364.361 61.167C365.25 61.167 366.058 61.298 366.788 61.5601C367.517 61.8107 368.138 62.2152 368.65 62.7734C369.174 63.3203 369.573 64.0381 369.847 64.9268C370.132 65.8154 370.274 66.9035 370.274 68.1909V80H365.335V68.1909C365.335 67.3364 365.221 66.687 364.993 66.2427C364.777 65.7869 364.458 65.4736 364.036 65.3027C363.626 65.1204 363.136 65.0293 362.566 65.0293C361.974 65.0293 361.456 65.1489 361.011 65.3882C360.567 65.616 360.197 65.9351 359.9 66.3452C359.604 66.7554 359.382 67.2339 359.234 67.7808C359.086 68.3162 359.012 68.903 359.012 69.541ZM384.065 75.8301V67.5928C384.065 67.0003 383.969 66.4933 383.775 66.0718C383.581 65.6388 383.279 65.3027 382.869 65.0635C382.47 64.8242 381.952 64.7046 381.314 64.7046C380.767 64.7046 380.294 64.8014 379.896 64.9951C379.497 65.1774 379.189 65.4451 378.973 65.7983C378.756 66.1401 378.648 66.5446 378.648 67.0117H373.726C373.726 66.2256 373.908 65.4793 374.273 64.7729C374.638 64.0666 375.167 63.4456 375.862 62.9102C376.557 62.3633 377.383 61.936 378.34 61.6284C379.309 61.3208 380.391 61.167 381.587 61.167C383.023 61.167 384.299 61.4062 385.416 61.8848C386.532 62.3633 387.409 63.0811 388.047 64.0381C388.697 64.9951 389.021 66.1914 389.021 67.627V75.5396C389.021 76.5535 389.084 77.3853 389.209 78.0347C389.335 78.6727 389.517 79.231 389.756 79.7095V80H384.783C384.544 79.4987 384.362 78.8721 384.236 78.1201C384.122 77.3568 384.065 76.5934 384.065 75.8301ZM384.715 68.7378L384.749 71.5234H381.998C381.348 71.5234 380.784 71.5975 380.306 71.7456C379.827 71.8937 379.434 72.1045 379.126 72.3779C378.819 72.64 378.591 72.9476 378.443 73.3008C378.306 73.654 378.238 74.0413 378.238 74.4629C378.238 74.8844 378.335 75.2661 378.528 75.6079C378.722 75.9383 379.001 76.2004 379.366 76.394C379.73 76.5763 380.158 76.6675 380.647 76.6675C381.388 76.6675 382.032 76.5194 382.579 76.2231C383.125 75.9269 383.547 75.5623 383.843 75.1294C384.151 74.6965 384.31 74.2863 384.322 73.8989L385.621 75.9839C385.438 76.451 385.188 76.9352 384.869 77.4365C384.561 77.9378 384.168 78.4106 383.689 78.855C383.211 79.2879 382.636 79.6468 381.963 79.9316C381.291 80.2051 380.494 80.3418 379.571 80.3418C378.397 80.3418 377.332 80.1082 376.375 79.6411C375.429 79.1626 374.677 78.5075 374.119 77.6758C373.572 76.8327 373.299 75.8757 373.299 74.8047C373.299 73.8363 373.481 72.9761 373.846 72.2241C374.21 71.4722 374.746 70.8398 375.452 70.3271C376.17 69.8031 377.064 69.41 378.135 69.1479C379.206 68.8745 380.448 68.7378 381.861 68.7378H384.715ZM402.813 74.8901C402.813 74.5369 402.71 74.2179 402.505 73.9331C402.3 73.6483 401.919 73.3862 401.36 73.147C400.813 72.8963 400.022 72.6685 398.985 72.4634C398.051 72.2583 397.179 72.002 396.37 71.6943C395.573 71.3753 394.878 70.9937 394.285 70.5493C393.704 70.105 393.248 69.5809 392.918 68.9771C392.588 68.3618 392.422 67.6611 392.422 66.875C392.422 66.1003 392.588 65.3711 392.918 64.6875C393.26 64.0039 393.744 63.4001 394.371 62.876C395.009 62.3405 395.783 61.9246 396.695 61.6284C397.618 61.3208 398.654 61.167 399.805 61.167C401.412 61.167 402.79 61.4233 403.941 61.936C405.103 62.4487 405.992 63.1551 406.607 64.0552C407.234 64.9438 407.547 65.9578 407.547 67.0972H402.625C402.625 66.6187 402.522 66.1914 402.317 65.8154C402.124 65.4281 401.816 65.1261 401.395 64.9097C400.984 64.6818 400.449 64.5679 399.788 64.5679C399.241 64.5679 398.768 64.6647 398.37 64.8584C397.971 65.0407 397.663 65.2913 397.447 65.6104C397.242 65.918 397.139 66.2598 397.139 66.6357C397.139 66.9206 397.196 67.1769 397.31 67.4048C397.435 67.6213 397.635 67.8206 397.908 68.0029C398.182 68.1852 398.535 68.3561 398.968 68.5156C399.412 68.6637 399.959 68.8005 400.608 68.9258C401.941 69.1992 403.132 69.5581 404.18 70.0024C405.228 70.4354 406.06 71.0278 406.675 71.7798C407.291 72.5203 407.598 73.4945 407.598 74.7021C407.598 75.5225 407.416 76.2744 407.051 76.958C406.687 77.6416 406.163 78.2397 405.479 78.7524C404.795 79.2537 403.975 79.6468 403.018 79.9316C402.072 80.2051 401.007 80.3418 399.822 80.3418C398.102 80.3418 396.644 80.0342 395.447 79.4189C394.262 78.8037 393.362 78.0233 392.747 77.0776C392.143 76.1206 391.841 75.1408 391.841 74.1382H396.507C396.53 74.8104 396.701 75.3516 397.02 75.7617C397.35 76.1719 397.766 76.4681 398.267 76.6504C398.78 76.8327 399.332 76.9238 399.925 76.9238C400.563 76.9238 401.093 76.8384 401.514 76.6675C401.936 76.4852 402.255 76.2459 402.471 75.9497C402.699 75.6421 402.813 75.2889 402.813 74.8901ZM415.596 53.75V80H410.674V53.75H415.596ZM414.896 70.105H413.545C413.557 68.8175 413.728 67.6326 414.058 66.5503C414.389 65.4565 414.861 64.5109 415.477 63.7134C416.092 62.9045 416.827 62.2778 417.681 61.8335C418.547 61.3892 419.504 61.167 420.552 61.167C421.464 61.167 422.29 61.298 423.03 61.5601C423.782 61.8107 424.426 62.2209 424.961 62.7905C425.508 63.3488 425.93 64.0837 426.226 64.9951C426.522 65.9066 426.67 67.0117 426.67 68.3105V80H421.714V68.2764C421.714 67.4561 421.595 66.8123 421.355 66.3452C421.128 65.8667 420.792 65.5306 420.347 65.3369C419.914 65.1318 419.379 65.0293 418.741 65.0293C418.034 65.0293 417.431 65.1603 416.929 65.4224C416.439 65.6844 416.046 66.049 415.75 66.5161C415.454 66.9718 415.237 67.5073 415.101 68.1226C414.964 68.7378 414.896 69.3986 414.896 70.105Z" fill="#888888"/>
<rect x="92" y="181" width="1179" height="80" rx="13.3333" fill="#D3D6DB"/>
<rect x="107" y="196.333" width="208" height="49.3333" rx="4.66667" fill="#363636" stroke="#363636" stroke-width="4"/>
<path d="M150.833 213.167H156.802C157.969 213.167 158.983 213.34 159.844 213.687C160.705 214.035 161.368 214.549 161.833 215.229C162.306 215.91 162.542 216.75 162.542 217.75C162.542 218.618 162.406 219.344 162.135 219.927C161.865 220.51 161.486 220.993 161 221.375C160.521 221.75 159.962 222.059 159.323 222.302L158.125 222.979H153.115L153.094 220.156H156.802C157.267 220.156 157.653 220.073 157.958 219.906C158.264 219.74 158.493 219.503 158.646 219.198C158.806 218.885 158.885 218.514 158.885 218.083C158.885 217.646 158.806 217.271 158.646 216.958C158.486 216.646 158.25 216.406 157.937 216.24C157.632 216.073 157.253 215.99 156.802 215.99H154.49V228.333H150.833V213.167ZM159.135 228.333L155.781 221.625L159.656 221.604L163.052 228.177V228.333H159.135ZM170.042 228.542C169.125 228.542 168.306 228.399 167.583 228.115C166.861 227.823 166.25 227.424 165.75 226.917C165.257 226.41 164.878 225.826 164.615 225.167C164.358 224.507 164.229 223.809 164.229 223.073V222.677C164.229 221.851 164.344 221.087 164.573 220.385C164.802 219.677 165.142 219.059 165.594 218.531C166.045 218.003 166.611 217.594 167.292 217.302C167.972 217.003 168.764 216.854 169.667 216.854C170.465 216.854 171.181 216.983 171.813 217.24C172.444 217.497 172.979 217.865 173.417 218.344C173.861 218.823 174.198 219.403 174.427 220.083C174.663 220.764 174.781 221.528 174.781 222.375V223.802H165.573V221.604H171.354V221.333C171.361 220.958 171.295 220.639 171.156 220.375C171.024 220.111 170.83 219.91 170.573 219.771C170.316 219.632 170.003 219.562 169.635 219.562C169.253 219.562 168.938 219.646 168.688 219.812C168.444 219.979 168.253 220.208 168.115 220.5C167.983 220.785 167.889 221.115 167.833 221.49C167.778 221.865 167.75 222.26 167.75 222.677V223.073C167.75 223.49 167.806 223.868 167.917 224.208C168.035 224.549 168.201 224.84 168.417 225.083C168.639 225.319 168.903 225.503 169.208 225.635C169.521 225.767 169.875 225.833 170.271 225.833C170.75 225.833 171.222 225.743 171.688 225.562C172.153 225.382 172.552 225.083 172.885 224.667L174.479 226.562C174.25 226.889 173.924 227.205 173.5 227.51C173.083 227.816 172.583 228.066 172 228.26C171.417 228.448 170.764 228.542 170.042 228.542ZM182.063 225.5V220.854C182.063 220.535 182.017 220.26 181.927 220.031C181.837 219.802 181.694 219.625 181.5 219.5C181.306 219.368 181.045 219.302 180.719 219.302C180.455 219.302 180.229 219.347 180.042 219.437C179.854 219.528 179.712 219.663 179.615 219.844C179.517 220.024 179.469 220.253 179.469 220.531H175.958C175.958 220.01 176.073 219.528 176.302 219.083C176.538 218.632 176.872 218.24 177.302 217.906C177.74 217.573 178.26 217.316 178.865 217.135C179.476 216.948 180.156 216.854 180.906 216.854C181.802 216.854 182.601 217.003 183.302 217.302C184.01 217.601 184.569 218.049 184.979 218.646C185.389 219.236 185.594 219.979 185.594 220.875V225.49C185.594 226.226 185.635 226.785 185.719 227.167C185.802 227.542 185.92 227.872 186.073 228.156V228.333H182.552C182.385 227.986 182.26 227.562 182.177 227.062C182.101 226.556 182.063 226.035 182.063 225.5ZM182.49 221.448L182.51 223.323H180.958C180.632 223.323 180.354 223.368 180.125 223.458C179.903 223.549 179.722 223.674 179.583 223.833C179.451 223.986 179.354 224.16 179.292 224.354C179.236 224.549 179.208 224.753 179.208 224.969C179.208 225.177 179.257 225.365 179.354 225.531C179.458 225.691 179.597 225.816 179.771 225.906C179.944 225.997 180.139 226.042 180.354 226.042C180.743 226.042 181.073 225.969 181.344 225.823C181.622 225.67 181.833 225.486 181.979 225.271C182.125 225.056 182.198 224.854 182.198 224.667L182.969 226.104C182.83 226.382 182.67 226.663 182.49 226.948C182.316 227.233 182.097 227.497 181.833 227.74C181.576 227.976 181.26 228.17 180.885 228.323C180.51 228.469 180.056 228.542 179.521 228.542C178.826 228.542 178.188 228.399 177.604 228.115C177.028 227.83 176.566 227.434 176.219 226.927C175.872 226.413 175.698 225.823 175.698 225.156C175.698 224.573 175.802 224.052 176.01 223.594C176.226 223.135 176.549 222.747 176.979 222.427C177.41 222.108 177.958 221.865 178.625 221.698C179.292 221.531 180.076 221.448 180.979 221.448H182.49ZM192.302 225.833C192.628 225.833 192.906 225.774 193.135 225.656C193.372 225.531 193.549 225.358 193.667 225.135C193.792 224.906 193.851 224.632 193.844 224.312H197.146C197.153 225.16 196.944 225.903 196.521 226.542C196.104 227.174 195.535 227.667 194.812 228.021C194.097 228.368 193.288 228.542 192.385 228.542C191.503 228.542 190.733 228.399 190.073 228.115C189.413 227.823 188.861 227.42 188.417 226.906C187.979 226.385 187.649 225.778 187.427 225.083C187.212 224.389 187.104 223.635 187.104 222.823V222.583C187.104 221.771 187.212 221.017 187.427 220.323C187.649 219.622 187.979 219.014 188.417 218.5C188.861 217.979 189.41 217.576 190.062 217.292C190.722 217 191.49 216.854 192.365 216.854C193.302 216.854 194.128 217.031 194.844 217.385C195.566 217.74 196.132 218.253 196.542 218.927C196.951 219.601 197.153 220.417 197.146 221.375H193.844C193.851 221.035 193.799 220.729 193.687 220.458C193.576 220.187 193.403 219.972 193.167 219.812C192.937 219.646 192.642 219.562 192.281 219.562C191.92 219.562 191.628 219.642 191.406 219.802C191.184 219.962 191.014 220.184 190.896 220.469C190.785 220.747 190.708 221.066 190.667 221.427C190.632 221.788 190.615 222.174 190.615 222.583V222.823C190.615 223.24 190.632 223.632 190.667 224C190.708 224.361 190.788 224.681 190.906 224.958C191.024 225.229 191.194 225.444 191.417 225.604C191.639 225.757 191.934 225.833 192.302 225.833ZM204.583 217.062V219.5H197.792V217.062H204.583ZM199.219 214.26H202.729V224.656C202.729 224.955 202.764 225.187 202.833 225.354C202.903 225.514 203.021 225.628 203.188 225.698C203.361 225.76 203.59 225.792 203.875 225.792C204.076 225.792 204.243 225.788 204.375 225.781C204.507 225.767 204.632 225.75 204.75 225.729V228.24C204.451 228.337 204.139 228.41 203.813 228.458C203.486 228.514 203.139 228.542 202.771 228.542C202.021 228.542 201.378 228.424 200.844 228.187C200.316 227.951 199.913 227.58 199.635 227.073C199.358 226.566 199.219 225.906 199.219 225.094V214.26ZM224.125 213.167V228.333H220.479L215.115 218.896V228.333H211.458V213.167H215.115L220.479 222.604V213.167H224.125ZM232.125 225.5V220.854C232.125 220.535 232.08 220.26 231.99 220.031C231.899 219.802 231.757 219.625 231.563 219.5C231.368 219.368 231.108 219.302 230.781 219.302C230.517 219.302 230.292 219.347 230.104 219.437C229.917 219.528 229.774 219.663 229.677 219.844C229.58 220.024 229.531 220.253 229.531 220.531H226.021C226.021 220.01 226.135 219.528 226.365 219.083C226.601 218.632 226.934 218.24 227.365 217.906C227.802 217.573 228.323 217.316 228.927 217.135C229.538 216.948 230.219 216.854 230.969 216.854C231.865 216.854 232.663 217.003 233.365 217.302C234.073 217.601 234.632 218.049 235.042 218.646C235.451 219.236 235.656 219.979 235.656 220.875V225.49C235.656 226.226 235.698 226.785 235.781 227.167C235.865 227.542 235.983 227.872 236.135 228.156V228.333H232.615C232.448 227.986 232.323 227.562 232.24 227.062C232.163 226.556 232.125 226.035 232.125 225.5ZM232.552 221.448L232.573 223.323H231.021C230.694 223.323 230.417 223.368 230.188 223.458C229.965 223.549 229.785 223.674 229.646 223.833C229.514 223.986 229.417 224.16 229.354 224.354C229.299 224.549 229.271 224.753 229.271 224.969C229.271 225.177 229.319 225.365 229.417 225.531C229.521 225.691 229.66 225.816 229.833 225.906C230.007 225.997 230.201 226.042 230.417 226.042C230.806 226.042 231.135 225.969 231.406 225.823C231.684 225.67 231.896 225.486 232.042 225.271C232.188 225.056 232.26 224.854 232.26 224.667L233.031 226.104C232.892 226.382 232.733 226.663 232.552 226.948C232.378 227.233 232.16 227.497 231.896 227.74C231.639 227.976 231.323 228.17 230.948 228.323C230.573 228.469 230.118 228.542 229.583 228.542C228.889 228.542 228.25 228.399 227.667 228.115C227.09 227.83 226.628 227.434 226.281 226.927C225.934 226.413 225.76 225.823 225.76 225.156C225.76 224.573 225.865 224.052 226.073 223.594C226.288 223.135 226.611 222.747 227.042 222.427C227.472 222.108 228.021 221.865 228.688 221.698C229.354 221.531 230.139 221.448 231.042 221.448H232.552ZM243.542 217.062V219.5H236.75V217.062H243.542ZM238.177 214.26H241.687V224.656C241.687 224.955 241.722 225.187 241.792 225.354C241.861 225.514 241.979 225.628 242.146 225.698C242.319 225.76 242.549 225.792 242.833 225.792C243.035 225.792 243.201 225.788 243.333 225.781C243.465 225.767 243.59 225.75 243.708 225.729V228.24C243.41 228.337 243.097 228.41 242.771 228.458C242.444 228.514 242.097 228.542 241.729 228.542C240.979 228.542 240.337 228.424 239.802 228.187C239.274 227.951 238.872 227.58 238.594 227.073C238.316 226.566 238.177 225.906 238.177 225.094V214.26ZM248.646 217.062V228.333H245.125V217.062H248.646ZM244.917 214.156C244.917 213.656 245.097 213.247 245.458 212.927C245.819 212.608 246.288 212.448 246.865 212.448C247.441 212.448 247.91 212.608 248.271 212.927C248.632 213.247 248.813 213.656 248.813 214.156C248.813 214.656 248.632 215.066 248.271 215.385C247.91 215.705 247.441 215.865 246.865 215.865C246.288 215.865 245.819 215.705 245.458 215.385C245.097 215.066 244.917 214.656 244.917 214.156ZM254.875 225.927L257.094 217.062H260.792L257.104 228.333H254.917L254.875 225.927ZM253.563 217.062L255.75 225.927L255.729 228.333H253.531L249.854 217.062H253.563ZM267.146 228.542C266.229 228.542 265.41 228.399 264.688 228.115C263.965 227.823 263.354 227.424 262.854 226.917C262.361 226.41 261.983 225.826 261.719 225.167C261.462 224.507 261.333 223.809 261.333 223.073V222.677C261.333 221.851 261.448 221.087 261.677 220.385C261.906 219.677 262.247 219.059 262.698 218.531C263.149 218.003 263.715 217.594 264.396 217.302C265.076 217.003 265.868 216.854 266.771 216.854C267.569 216.854 268.285 216.983 268.917 217.24C269.549 217.497 270.083 217.865 270.521 218.344C270.965 218.823 271.302 219.403 271.531 220.083C271.767 220.764 271.885 221.528 271.885 222.375V223.802H262.677V221.604H268.458V221.333C268.465 220.958 268.399 220.639 268.26 220.375C268.128 220.111 267.934 219.91 267.677 219.771C267.42 219.632 267.108 219.562 266.74 219.562C266.358 219.562 266.042 219.646 265.792 219.812C265.549 219.979 265.358 220.208 265.219 220.5C265.087 220.785 264.993 221.115 264.938 221.49C264.882 221.865 264.854 222.26 264.854 222.677V223.073C264.854 223.49 264.91 223.868 265.021 224.208C265.139 224.549 265.306 224.84 265.521 225.083C265.743 225.319 266.007 225.503 266.313 225.635C266.625 225.767 266.979 225.833 267.375 225.833C267.854 225.833 268.326 225.743 268.792 225.562C269.257 225.382 269.656 225.083 269.99 224.667L271.583 226.562C271.354 226.889 271.028 227.205 270.604 227.51C270.188 227.816 269.688 228.066 269.104 228.26C268.521 228.448 267.868 228.542 267.146 228.542Z" fill="white"/>
<rect x="339" y="196.333" width="208" height="49.3333" rx="4.66667" fill="#363636" stroke="#363636" stroke-width="4"/>
<path d="M418.844 213.167V228.333H415.198L409.833 218.896V228.333H406.177V213.167H409.833L415.198 222.604V213.167H418.844ZM420.552 222.812V222.594C420.552 221.767 420.67 221.007 420.906 220.312C421.142 219.611 421.49 219.003 421.948 218.49C422.406 217.976 422.972 217.576 423.646 217.292C424.319 217 425.097 216.854 425.979 216.854C426.868 216.854 427.649 217 428.323 217.292C429.003 217.576 429.573 217.976 430.031 218.49C430.49 219.003 430.837 219.611 431.073 220.312C431.309 221.007 431.427 221.767 431.427 222.594V222.812C431.427 223.632 431.309 224.392 431.073 225.094C430.837 225.788 430.49 226.396 430.031 226.917C429.573 227.431 429.007 227.83 428.333 228.115C427.66 228.399 426.882 228.542 426 228.542C425.118 228.542 424.337 228.399 423.656 228.115C422.976 227.83 422.406 227.431 421.948 226.917C421.49 226.396 421.142 225.788 420.906 225.094C420.67 224.392 420.552 223.632 420.552 222.812ZM424.062 222.594V222.812C424.062 223.236 424.094 223.632 424.156 224C424.219 224.368 424.323 224.691 424.469 224.969C424.615 225.24 424.812 225.451 425.062 225.604C425.312 225.757 425.625 225.833 426 225.833C426.368 225.833 426.674 225.757 426.917 225.604C427.167 225.451 427.365 225.24 427.51 224.969C427.656 224.691 427.76 224.368 427.823 224C427.885 223.632 427.917 223.236 427.917 222.812V222.594C427.917 222.184 427.885 221.799 427.823 221.437C427.76 221.069 427.656 220.747 427.51 220.469C427.365 220.184 427.167 219.962 426.917 219.802C426.667 219.642 426.354 219.562 425.979 219.562C425.611 219.562 425.302 219.642 425.052 219.802C424.809 219.962 424.615 220.184 424.469 220.469C424.323 220.747 424.219 221.069 424.156 221.437C424.094 221.799 424.062 222.184 424.062 222.594ZM439.469 225.75V212.333H443V228.333H439.833L439.469 225.75ZM432.552 222.833V222.615C432.552 221.76 432.646 220.983 432.833 220.281C433.021 219.573 433.299 218.965 433.667 218.458C434.035 217.944 434.493 217.549 435.042 217.271C435.59 216.993 436.222 216.854 436.938 216.854C437.576 216.854 438.135 217.003 438.615 217.302C439.094 217.594 439.503 218.003 439.844 218.531C440.184 219.059 440.462 219.677 440.677 220.385C440.892 221.087 441.056 221.844 441.167 222.656V222.917C441.056 223.681 440.892 224.403 440.677 225.083C440.462 225.757 440.184 226.354 439.844 226.875C439.503 227.396 439.09 227.806 438.604 228.104C438.125 228.396 437.563 228.542 436.917 228.542C436.201 228.542 435.569 228.399 435.021 228.115C434.479 227.83 434.024 227.431 433.656 226.917C433.295 226.403 433.021 225.799 432.833 225.104C432.646 224.41 432.552 223.653 432.552 222.833ZM436.063 222.615V222.833C436.063 223.257 436.09 223.649 436.146 224.01C436.201 224.372 436.295 224.691 436.427 224.969C436.566 225.24 436.747 225.451 436.969 225.604C437.198 225.757 437.479 225.833 437.813 225.833C438.264 225.833 438.635 225.726 438.927 225.51C439.226 225.295 439.444 224.99 439.583 224.594C439.729 224.198 439.792 223.733 439.771 223.198V222.375C439.785 221.917 439.753 221.514 439.677 221.167C439.601 220.812 439.479 220.517 439.313 220.281C439.153 220.045 438.948 219.868 438.698 219.75C438.455 219.625 438.167 219.562 437.833 219.562C437.507 219.562 437.229 219.639 437 219.792C436.778 219.944 436.597 220.16 436.458 220.437C436.319 220.708 436.219 221.031 436.156 221.406C436.094 221.774 436.063 222.177 436.063 222.615ZM450.448 228.542C449.531 228.542 448.712 228.399 447.99 228.115C447.267 227.823 446.656 227.424 446.156 226.917C445.663 226.41 445.285 225.826 445.021 225.167C444.764 224.507 444.635 223.809 444.635 223.073V222.677C444.635 221.851 444.75 221.087 444.979 220.385C445.208 219.677 445.549 219.059 446 218.531C446.451 218.003 447.017 217.594 447.698 217.302C448.378 217.003 449.17 216.854 450.073 216.854C450.872 216.854 451.587 216.983 452.219 217.24C452.851 217.497 453.385 217.865 453.823 218.344C454.267 218.823 454.604 219.403 454.833 220.083C455.069 220.764 455.188 221.528 455.188 222.375V223.802H445.979V221.604H451.76V221.333C451.767 220.958 451.701 220.639 451.563 220.375C451.431 220.111 451.236 219.91 450.979 219.771C450.722 219.632 450.41 219.562 450.042 219.562C449.66 219.562 449.344 219.646 449.094 219.812C448.851 219.979 448.66 220.208 448.521 220.5C448.389 220.785 448.295 221.115 448.24 221.49C448.184 221.865 448.156 222.26 448.156 222.677V223.073C448.156 223.49 448.212 223.868 448.323 224.208C448.441 224.549 448.608 224.84 448.823 225.083C449.045 225.319 449.309 225.503 449.615 225.635C449.927 225.767 450.281 225.833 450.677 225.833C451.156 225.833 451.628 225.743 452.094 225.562C452.559 225.382 452.958 225.083 453.292 224.667L454.885 226.562C454.656 226.889 454.33 227.205 453.906 227.51C453.49 227.816 452.99 228.066 452.406 228.26C451.823 228.448 451.17 228.542 450.448 228.542ZM462.813 223.573V213.167H466.458V223.573C466.458 224.587 466.226 225.465 465.76 226.208C465.302 226.951 464.677 227.528 463.885 227.937C463.101 228.34 462.219 228.542 461.24 228.542C460.226 228.542 459.323 228.372 458.531 228.031C457.747 227.691 457.128 227.167 456.677 226.458C456.233 225.75 456.01 224.847 456.01 223.75H459.677C459.677 224.264 459.736 224.667 459.854 224.958C459.972 225.243 460.146 225.444 460.375 225.562C460.611 225.674 460.899 225.729 461.24 225.729C461.573 225.729 461.854 225.646 462.083 225.479C462.319 225.306 462.5 225.059 462.625 224.74C462.75 224.413 462.813 224.024 462.813 223.573ZM476.594 224.302C476.594 224.066 476.559 223.854 476.49 223.667C476.42 223.472 476.292 223.292 476.104 223.125C475.917 222.958 475.646 222.792 475.292 222.625C474.944 222.451 474.486 222.271 473.917 222.083C473.25 221.861 472.608 221.611 471.99 221.333C471.372 221.049 470.819 220.719 470.333 220.344C469.847 219.962 469.462 219.517 469.177 219.01C468.892 218.497 468.75 217.899 468.75 217.219C468.75 216.566 468.896 215.979 469.188 215.458C469.479 214.931 469.885 214.483 470.406 214.115C470.934 213.74 471.552 213.455 472.26 213.26C472.969 213.059 473.743 212.958 474.583 212.958C475.694 212.958 476.674 213.153 477.521 213.542C478.375 213.924 479.042 214.469 479.521 215.177C480.007 215.878 480.25 216.708 480.25 217.667H476.615C476.615 217.285 476.535 216.948 476.375 216.656C476.222 216.365 475.99 216.135 475.677 215.969C475.365 215.802 474.972 215.719 474.5 215.719C474.042 215.719 473.656 215.788 473.344 215.927C473.031 216.066 472.795 216.253 472.635 216.49C472.476 216.719 472.396 216.972 472.396 217.25C472.396 217.479 472.458 217.687 472.583 217.875C472.715 218.056 472.899 218.226 473.135 218.385C473.378 218.545 473.67 218.698 474.01 218.844C474.358 218.99 474.747 219.132 475.177 219.271C475.983 219.528 476.698 219.816 477.323 220.135C477.955 220.448 478.486 220.806 478.917 221.208C479.354 221.604 479.684 222.056 479.906 222.562C480.135 223.069 480.25 223.642 480.25 224.281C480.25 224.962 480.118 225.566 479.854 226.094C479.59 226.622 479.212 227.069 478.719 227.437C478.226 227.799 477.635 228.073 476.948 228.26C476.26 228.448 475.493 228.542 474.646 228.542C473.868 228.542 473.101 228.444 472.344 228.25C471.594 228.049 470.913 227.743 470.302 227.333C469.691 226.917 469.201 226.385 468.833 225.74C468.472 225.087 468.292 224.312 468.292 223.417H471.958C471.958 223.861 472.017 224.236 472.135 224.542C472.253 224.847 472.427 225.094 472.656 225.281C472.885 225.462 473.167 225.594 473.5 225.677C473.833 225.753 474.215 225.792 474.646 225.792C475.111 225.792 475.486 225.726 475.771 225.594C476.056 225.455 476.264 225.274 476.396 225.052C476.528 224.823 476.594 224.573 476.594 224.302Z" fill="white"/>
<rect x="571" y="196.333" width="208" height="49.3333" rx="4.66667" fill="#363636" stroke="#363636" stroke-width="4"/>
<path d="M632.667 212.167V227.333H629.01V212.167H632.667ZM637.229 212.167V214.99H624.552V212.167H637.229ZM641.219 226.01L644.135 216.062H647.906L643.375 229.01C643.278 229.295 643.149 229.601 642.99 229.927C642.83 230.26 642.611 230.576 642.333 230.875C642.056 231.174 641.698 231.417 641.26 231.604C640.83 231.792 640.295 231.885 639.656 231.885C639.316 231.885 639.066 231.868 638.906 231.833C638.753 231.806 638.517 231.753 638.198 231.677V229.167C638.288 229.167 638.365 229.167 638.427 229.167C638.497 229.167 638.573 229.167 638.656 229.167C639.031 229.167 639.33 229.128 639.552 229.052C639.781 228.976 639.955 228.865 640.073 228.719C640.198 228.573 640.295 228.396 640.365 228.187L641.219 226.01ZM640.479 216.062L642.698 223.948L643.083 227.667H640.729L636.719 216.062H640.479ZM652.365 218.229V231.667H648.854V216.062H652.125L652.365 218.229ZM659.281 221.562V221.781C659.281 222.601 659.187 223.361 659 224.062C658.812 224.764 658.535 225.375 658.167 225.896C657.799 226.417 657.34 226.823 656.792 227.115C656.25 227.399 655.622 227.542 654.906 227.542C654.233 227.542 653.653 227.392 653.167 227.094C652.681 226.795 652.274 226.382 651.948 225.854C651.622 225.326 651.358 224.722 651.156 224.042C650.955 223.361 650.795 222.642 650.677 221.885V221.604C650.795 220.792 650.955 220.038 651.156 219.344C651.358 218.642 651.622 218.031 651.948 217.51C652.274 216.99 652.677 216.583 653.156 216.292C653.642 216 654.222 215.854 654.896 215.854C655.611 215.854 656.24 215.99 656.781 216.26C657.33 216.531 657.788 216.92 658.156 217.427C658.531 217.927 658.812 218.528 659 219.229C659.187 219.931 659.281 220.708 659.281 221.562ZM655.771 221.781V221.562C655.771 221.125 655.74 220.726 655.677 220.365C655.615 219.997 655.514 219.677 655.375 219.406C655.243 219.135 655.066 218.927 654.844 218.781C654.622 218.635 654.347 218.562 654.021 218.562C653.646 218.562 653.33 218.622 653.073 218.74C652.823 218.851 652.622 219.024 652.469 219.26C652.323 219.49 652.219 219.778 652.156 220.125C652.101 220.465 652.076 220.865 652.083 221.323V222.177C652.069 222.705 652.122 223.17 652.24 223.573C652.358 223.969 652.562 224.278 652.854 224.5C653.146 224.722 653.542 224.833 654.042 224.833C654.375 224.833 654.653 224.757 654.875 224.604C655.097 224.444 655.274 224.226 655.406 223.948C655.538 223.663 655.632 223.337 655.687 222.969C655.743 222.601 655.771 222.205 655.771 221.781ZM666.302 227.542C665.385 227.542 664.566 227.399 663.844 227.115C663.122 226.823 662.51 226.424 662.01 225.917C661.517 225.41 661.139 224.826 660.875 224.167C660.618 223.507 660.49 222.809 660.49 222.073V221.677C660.49 220.851 660.604 220.087 660.833 219.385C661.062 218.677 661.403 218.059 661.854 217.531C662.306 217.003 662.872 216.594 663.552 216.302C664.233 216.003 665.024 215.854 665.927 215.854C666.726 215.854 667.441 215.983 668.073 216.24C668.705 216.497 669.24 216.865 669.677 217.344C670.122 217.823 670.458 218.403 670.687 219.083C670.924 219.764 671.042 220.528 671.042 221.375V222.802H661.833V220.604H667.615V220.333C667.622 219.958 667.556 219.639 667.417 219.375C667.285 219.111 667.09 218.91 666.833 218.771C666.576 218.632 666.264 218.562 665.896 218.562C665.514 218.562 665.198 218.646 664.948 218.812C664.705 218.979 664.514 219.208 664.375 219.5C664.243 219.785 664.149 220.115 664.094 220.49C664.038 220.865 664.01 221.26 664.01 221.677V222.073C664.01 222.49 664.066 222.868 664.177 223.208C664.295 223.549 664.462 223.84 664.677 224.083C664.899 224.319 665.163 224.503 665.469 224.635C665.781 224.767 666.135 224.833 666.531 224.833C667.01 224.833 667.483 224.743 667.948 224.562C668.413 224.382 668.812 224.083 669.146 223.667L670.74 225.562C670.51 225.889 670.184 226.205 669.76 226.51C669.344 226.816 668.844 227.066 668.26 227.26C667.677 227.448 667.024 227.542 666.302 227.542ZM678.375 224.167C678.375 223.972 678.309 223.806 678.177 223.667C678.052 223.521 677.83 223.389 677.51 223.271C677.191 223.146 676.743 223.021 676.167 222.896C675.618 222.778 675.101 222.622 674.615 222.427C674.135 222.233 673.715 221.997 673.354 221.719C672.993 221.441 672.708 221.111 672.5 220.729C672.299 220.347 672.198 219.91 672.198 219.417C672.198 218.937 672.299 218.486 672.5 218.062C672.708 217.632 673.01 217.253 673.406 216.927C673.809 216.594 674.299 216.333 674.875 216.146C675.451 215.951 676.108 215.854 676.844 215.854C677.858 215.854 678.733 216.01 679.469 216.323C680.205 216.628 680.771 217.059 681.167 217.615C681.569 218.163 681.771 218.799 681.771 219.521H678.26C678.26 219.236 678.212 218.993 678.115 218.792C678.024 218.59 677.875 218.437 677.667 218.333C677.458 218.222 677.181 218.167 676.833 218.167C676.59 218.167 676.368 218.212 676.167 218.302C675.972 218.392 675.816 218.517 675.698 218.677C675.58 218.837 675.521 219.024 675.521 219.24C675.521 219.392 675.556 219.531 675.625 219.656C675.701 219.774 675.816 219.885 675.969 219.99C676.122 220.087 676.316 220.177 676.552 220.26C676.788 220.337 677.073 220.406 677.406 220.469C678.163 220.608 678.872 220.806 679.531 221.062C680.191 221.319 680.726 221.684 681.135 222.156C681.552 222.628 681.76 223.264 681.76 224.062C681.76 224.562 681.646 225.024 681.417 225.448C681.187 225.865 680.858 226.233 680.427 226.552C679.997 226.865 679.479 227.108 678.875 227.281C678.271 227.455 677.59 227.542 676.833 227.542C675.757 227.542 674.847 227.351 674.104 226.969C673.361 226.58 672.799 226.094 672.417 225.51C672.042 224.92 671.854 224.323 671.854 223.719H675.125C675.139 224.066 675.222 224.351 675.375 224.573C675.535 224.795 675.747 224.958 676.01 225.062C676.274 225.167 676.58 225.219 676.927 225.219C677.247 225.219 677.51 225.174 677.719 225.083C677.934 224.993 678.097 224.872 678.208 224.719C678.319 224.559 678.375 224.375 678.375 224.167ZM688.167 224.833C688.493 224.833 688.771 224.774 689 224.656C689.236 224.531 689.413 224.358 689.531 224.135C689.656 223.906 689.715 223.632 689.708 223.312H693.01C693.017 224.16 692.809 224.903 692.385 225.542C691.969 226.174 691.399 226.667 690.677 227.021C689.962 227.368 689.153 227.542 688.25 227.542C687.368 227.542 686.597 227.399 685.937 227.115C685.278 226.823 684.726 226.42 684.281 225.906C683.844 225.385 683.514 224.778 683.292 224.083C683.076 223.389 682.969 222.635 682.969 221.823V221.583C682.969 220.771 683.076 220.017 683.292 219.323C683.514 218.622 683.844 218.014 684.281 217.5C684.726 216.979 685.274 216.576 685.927 216.292C686.587 216 687.354 215.854 688.229 215.854C689.167 215.854 689.993 216.031 690.708 216.385C691.431 216.74 691.997 217.253 692.406 217.927C692.816 218.601 693.017 219.417 693.01 220.375H689.708C689.715 220.035 689.663 219.729 689.552 219.458C689.441 219.187 689.267 218.972 689.031 218.812C688.802 218.646 688.507 218.562 688.146 218.562C687.785 218.562 687.493 218.642 687.271 218.802C687.049 218.962 686.878 219.184 686.76 219.469C686.649 219.747 686.573 220.066 686.531 220.427C686.497 220.788 686.479 221.174 686.479 221.583V221.823C686.479 222.24 686.497 222.632 686.531 223C686.573 223.361 686.653 223.681 686.771 223.958C686.889 224.229 687.059 224.444 687.281 224.604C687.503 224.757 687.799 224.833 688.167 224.833ZM698.052 218.854V227.333H694.542V216.062H697.823L698.052 218.854ZM701.385 215.979L701.323 219.24C701.184 219.226 700.997 219.208 700.76 219.187C700.524 219.167 700.326 219.156 700.167 219.156C699.757 219.156 699.403 219.205 699.104 219.302C698.813 219.392 698.569 219.531 698.375 219.719C698.188 219.899 698.049 220.128 697.958 220.406C697.875 220.684 697.837 221.007 697.844 221.375L697.208 220.958C697.208 220.201 697.281 219.514 697.427 218.896C697.58 218.271 697.795 217.733 698.073 217.281C698.351 216.823 698.688 216.472 699.083 216.229C699.479 215.979 699.924 215.854 700.417 215.854C700.59 215.854 700.76 215.865 700.927 215.885C701.101 215.906 701.253 215.937 701.385 215.979ZM706.302 216.062V227.333H702.781V216.062H706.302ZM702.573 213.156C702.573 212.656 702.753 212.247 703.115 211.927C703.476 211.608 703.944 211.448 704.521 211.448C705.097 211.448 705.566 211.608 705.927 211.927C706.288 212.247 706.469 212.656 706.469 213.156C706.469 213.656 706.288 214.066 705.927 214.385C705.566 214.705 705.097 214.865 704.521 214.865C703.944 214.865 703.476 214.705 703.115 214.385C702.753 214.066 702.573 213.656 702.573 213.156ZM712.01 218.229V231.667H708.5V216.062H711.771L712.01 218.229ZM718.927 221.562V221.781C718.927 222.601 718.833 223.361 718.646 224.062C718.458 224.764 718.181 225.375 717.812 225.896C717.444 226.417 716.986 226.823 716.437 227.115C715.896 227.399 715.267 227.542 714.552 227.542C713.878 227.542 713.299 227.392 712.812 227.094C712.326 226.795 711.92 226.382 711.594 225.854C711.267 225.326 711.003 224.722 710.802 224.042C710.601 223.361 710.441 222.642 710.323 221.885V221.604C710.441 220.792 710.601 220.038 710.802 219.344C711.003 218.642 711.267 218.031 711.594 217.51C711.92 216.99 712.323 216.583 712.802 216.292C713.288 216 713.868 215.854 714.542 215.854C715.257 215.854 715.885 215.99 716.427 216.26C716.976 216.531 717.434 216.92 717.802 217.427C718.177 217.927 718.458 218.528 718.646 219.229C718.833 219.931 718.927 220.708 718.927 221.562ZM715.417 221.781V221.562C715.417 221.125 715.385 220.726 715.323 220.365C715.26 219.997 715.16 219.677 715.021 219.406C714.889 219.135 714.712 218.927 714.49 218.781C714.267 218.635 713.993 218.562 713.667 218.562C713.292 218.562 712.976 218.622 712.719 218.74C712.469 218.851 712.267 219.024 712.115 219.26C711.969 219.49 711.865 219.778 711.802 220.125C711.747 220.465 711.722 220.865 711.729 221.323V222.177C711.715 222.705 711.767 223.17 711.885 223.573C712.003 223.969 712.208 224.278 712.5 224.5C712.792 224.722 713.187 224.833 713.687 224.833C714.021 224.833 714.299 224.757 714.521 224.604C714.743 224.444 714.92 224.226 715.052 223.948C715.184 223.663 715.278 223.337 715.333 222.969C715.389 222.601 715.417 222.205 715.417 221.781ZM726.427 216.062V218.5H719.635V216.062H726.427ZM721.063 213.26H724.573V223.656C724.573 223.955 724.608 224.187 724.677 224.354C724.747 224.514 724.865 224.628 725.031 224.698C725.205 224.76 725.434 224.792 725.719 224.792C725.92 224.792 726.087 224.788 726.219 224.781C726.351 224.767 726.476 224.75 726.594 224.729V227.24C726.295 227.337 725.983 227.41 725.656 227.458C725.33 227.514 724.983 227.542 724.615 227.542C723.865 227.542 723.222 227.424 722.688 227.187C722.16 226.951 721.757 226.58 721.479 226.073C721.201 225.566 721.063 224.906 721.063 224.094V213.26Z" fill="white"/>
<rect x="803" y="196.333" width="208" height="49.3333" rx="4.66667" fill="#363636" stroke="#363636" stroke-width="4"/>
<path d="M863.156 212.167H866.135L869.521 222.719L872.906 212.167H875.885L870.729 227.333H868.313L863.156 212.167ZM861.344 212.167H864.427L865 223.792V227.333H861.344V212.167ZM874.615 212.167H877.708V227.333H874.042V223.792L874.615 212.167ZM879.448 221.812V221.594C879.448 220.767 879.566 220.007 879.802 219.312C880.038 218.611 880.385 218.003 880.844 217.49C881.302 216.976 881.868 216.576 882.542 216.292C883.215 216 883.993 215.854 884.875 215.854C885.764 215.854 886.545 216 887.219 216.292C887.899 216.576 888.469 216.976 888.927 217.49C889.385 218.003 889.733 218.611 889.969 219.312C890.205 220.007 890.323 220.767 890.323 221.594V221.812C890.323 222.632 890.205 223.392 889.969 224.094C889.733 224.788 889.385 225.396 888.927 225.917C888.469 226.431 887.903 226.83 887.229 227.115C886.556 227.399 885.778 227.542 884.896 227.542C884.014 227.542 883.233 227.399 882.552 227.115C881.872 226.83 881.302 226.431 880.844 225.917C880.385 225.396 880.038 224.788 879.802 224.094C879.566 223.392 879.448 222.632 879.448 221.812ZM882.958 221.594V221.812C882.958 222.236 882.99 222.632 883.052 223C883.115 223.368 883.219 223.691 883.365 223.969C883.51 224.24 883.708 224.451 883.958 224.604C884.208 224.757 884.521 224.833 884.896 224.833C885.264 224.833 885.569 224.757 885.813 224.604C886.063 224.451 886.26 224.24 886.406 223.969C886.552 223.691 886.656 223.368 886.719 223C886.781 222.632 886.813 222.236 886.813 221.812V221.594C886.813 221.184 886.781 220.799 886.719 220.437C886.656 220.069 886.552 219.747 886.406 219.469C886.26 219.184 886.063 218.962 885.813 218.802C885.563 218.642 885.25 218.562 884.875 218.562C884.507 218.562 884.198 218.642 883.948 218.802C883.705 218.962 883.51 219.184 883.365 219.469C883.219 219.747 883.115 220.069 883.052 220.437C882.99 220.799 882.958 221.184 882.958 221.594ZM895.333 218.469V227.333H891.823V216.062H895.115L895.333 218.469ZM894.917 221.312L894.094 221.333C894.094 220.472 894.198 219.705 894.406 219.031C894.615 218.351 894.91 217.774 895.292 217.302C895.674 216.83 896.128 216.472 896.656 216.229C897.191 215.979 897.785 215.854 898.438 215.854C898.958 215.854 899.434 215.931 899.865 216.083C900.302 216.236 900.677 216.483 900.99 216.823C901.309 217.163 901.552 217.615 901.719 218.177C901.892 218.733 901.979 219.42 901.979 220.24V227.333H898.448V220.229C898.448 219.778 898.385 219.434 898.26 219.198C898.135 218.955 897.955 218.788 897.719 218.698C897.483 218.608 897.194 218.562 896.854 218.562C896.493 218.562 896.188 218.632 895.938 218.771C895.688 218.91 895.486 219.104 895.333 219.354C895.188 219.597 895.08 219.885 895.01 220.219C894.948 220.552 894.917 220.917 894.917 221.312ZM911.01 216.062H914.198V226.896C914.198 227.937 913.958 228.819 913.479 229.542C913 230.271 912.33 230.823 911.469 231.198C910.615 231.58 909.615 231.771 908.469 231.771C907.962 231.771 907.444 231.705 906.917 231.573C906.389 231.448 905.896 231.26 905.438 231.01C904.979 230.76 904.594 230.451 904.281 230.083L905.75 228.021C906.035 228.34 906.392 228.611 906.823 228.833C907.253 229.062 907.76 229.177 908.344 229.177C908.851 229.177 909.274 229.087 909.615 228.906C909.962 228.726 910.226 228.462 910.406 228.115C910.587 227.774 910.677 227.361 910.677 226.875V218.729L911.01 216.062ZM903.521 221.833V221.615C903.521 220.76 903.625 219.983 903.833 219.281C904.049 218.573 904.354 217.965 904.75 217.458C905.153 216.944 905.639 216.549 906.208 216.271C906.778 215.993 907.42 215.854 908.135 215.854C908.906 215.854 909.538 216.003 910.031 216.302C910.531 216.594 910.931 217.003 911.229 217.531C911.535 218.059 911.771 218.677 911.938 219.385C912.111 220.087 912.257 220.844 912.375 221.656V221.917C912.257 222.681 912.094 223.403 911.885 224.083C911.684 224.757 911.42 225.354 911.094 225.875C910.767 226.396 910.358 226.806 909.865 227.104C909.378 227.396 908.795 227.542 908.115 227.542C907.406 227.542 906.767 227.399 906.198 227.115C905.635 226.83 905.153 226.431 904.75 225.917C904.354 225.403 904.049 224.799 903.833 224.104C903.625 223.41 903.521 222.653 903.521 221.833ZM907.031 221.615V221.833C907.031 222.257 907.069 222.649 907.146 223.01C907.229 223.372 907.354 223.691 907.521 223.969C907.688 224.24 907.892 224.451 908.135 224.604C908.385 224.757 908.677 224.833 909.01 224.833C909.517 224.833 909.927 224.726 910.24 224.51C910.552 224.295 910.778 223.99 910.917 223.594C911.056 223.198 911.115 222.733 911.094 222.198V221.375C911.108 220.917 911.076 220.514 911 220.167C910.924 219.812 910.802 219.517 910.635 219.281C910.476 219.045 910.26 218.868 909.99 218.75C909.726 218.625 909.406 218.562 909.031 218.562C908.705 218.562 908.417 218.639 908.167 218.792C907.917 218.944 907.708 219.16 907.542 219.437C907.375 219.708 907.247 220.031 907.156 220.406C907.073 220.774 907.031 221.177 907.031 221.615ZM915.781 221.812V221.594C915.781 220.767 915.899 220.007 916.135 219.312C916.372 218.611 916.719 218.003 917.177 217.49C917.635 216.976 918.201 216.576 918.875 216.292C919.549 216 920.326 215.854 921.208 215.854C922.097 215.854 922.878 216 923.552 216.292C924.233 216.576 924.802 216.976 925.26 217.49C925.719 218.003 926.066 218.611 926.302 219.312C926.538 220.007 926.656 220.767 926.656 221.594V221.812C926.656 222.632 926.538 223.392 926.302 224.094C926.066 224.788 925.719 225.396 925.26 225.917C924.802 226.431 924.236 226.83 923.563 227.115C922.889 227.399 922.111 227.542 921.229 227.542C920.347 227.542 919.566 227.399 918.885 227.115C918.205 226.83 917.635 226.431 917.177 225.917C916.719 225.396 916.372 224.788 916.135 224.094C915.899 223.392 915.781 222.632 915.781 221.812ZM919.292 221.594V221.812C919.292 222.236 919.323 222.632 919.385 223C919.448 223.368 919.552 223.691 919.698 223.969C919.844 224.24 920.042 224.451 920.292 224.604C920.542 224.757 920.854 224.833 921.229 224.833C921.597 224.833 921.903 224.757 922.146 224.604C922.396 224.451 922.594 224.24 922.74 223.969C922.885 223.691 922.99 223.368 923.052 223C923.115 222.632 923.146 222.236 923.146 221.812V221.594C923.146 221.184 923.115 220.799 923.052 220.437C922.99 220.069 922.885 219.747 922.74 219.469C922.594 219.184 922.396 218.962 922.146 218.802C921.896 218.642 921.583 218.562 921.208 218.562C920.84 218.562 920.531 218.642 920.281 218.802C920.038 218.962 919.844 219.184 919.698 219.469C919.552 219.747 919.448 220.069 919.385 220.437C919.323 220.799 919.292 221.184 919.292 221.594ZM933.313 227.333H929.948L929.969 224.521H933.313C934.007 224.521 934.594 224.354 935.073 224.021C935.559 223.687 935.927 223.191 936.177 222.531C936.434 221.865 936.563 221.045 936.563 220.073V219.417C936.563 218.687 936.49 218.049 936.344 217.5C936.205 216.944 935.997 216.483 935.719 216.115C935.441 215.74 935.094 215.458 934.677 215.271C934.267 215.083 933.795 214.99 933.26 214.99H929.885V212.167H933.26C934.288 212.167 935.229 212.344 936.083 212.698C936.944 213.045 937.688 213.545 938.313 214.198C938.944 214.844 939.431 215.611 939.771 216.5C940.118 217.382 940.292 218.361 940.292 219.437V220.073C940.292 221.142 940.118 222.122 939.771 223.01C939.431 223.899 938.948 224.667 938.323 225.312C937.698 225.958 936.958 226.458 936.104 226.812C935.257 227.16 934.326 227.333 933.313 227.333ZM932.042 212.167V227.333H928.385V212.167H932.042ZM948.385 220.885H944.479L944.458 218.49H947.625C948.194 218.49 948.649 218.427 948.99 218.302C949.33 218.17 949.576 217.979 949.729 217.729C949.889 217.479 949.969 217.167 949.969 216.792C949.969 216.361 949.889 216.014 949.729 215.75C949.569 215.486 949.316 215.295 948.969 215.177C948.628 215.052 948.188 214.99 947.646 214.99H945.854V227.333H942.198V212.167H947.646C948.583 212.167 949.42 212.253 950.156 212.427C950.892 212.594 951.517 212.851 952.031 213.198C952.552 213.545 952.948 213.983 953.219 214.51C953.49 215.031 953.625 215.646 953.625 216.354C953.625 216.972 953.493 217.552 953.229 218.094C952.965 218.635 952.524 219.076 951.906 219.417C951.295 219.75 950.458 219.924 949.396 219.937L948.385 220.885ZM948.24 227.333H943.594L944.844 224.521H948.24C948.74 224.521 949.139 224.444 949.438 224.292C949.743 224.132 949.962 223.924 950.094 223.667C950.233 223.403 950.302 223.111 950.302 222.792C950.302 222.403 950.236 222.066 950.104 221.781C949.979 221.497 949.778 221.278 949.5 221.125C949.222 220.965 948.851 220.885 948.385 220.885H945.313L945.333 218.49H949.01L949.865 219.448C950.878 219.406 951.681 219.549 952.271 219.875C952.868 220.201 953.295 220.632 953.552 221.167C953.809 221.701 953.938 222.26 953.938 222.844C953.938 223.837 953.722 224.667 953.292 225.333C952.868 226 952.233 226.5 951.385 226.833C950.538 227.167 949.49 227.333 948.24 227.333Z" fill="white"/>
</svg>
