<svg width="1363" height="167" viewBox="0 0 1363 167" fill="none" xmlns="http://www.w3.org/2000/svg">
<rect width="1363" height="167" rx="15" fill="#F0F0F0"/>
<path d="M0 15C0 6.71573 6.71573 0 15 0H37V167H15C6.71573 167 0 160.284 0 152V15Z" fill="#1FA6D1"/>
<path d="M100.906 50.9219L93.3945 48.2383V45.0859L103.602 49.375V51.6367L100.906 50.9219ZM93.3945 53.1719L100.918 50.4297L103.602 49.7852V52.0352L93.3945 56.3242V53.1719ZM118.836 43.8555L114.195 58H110.457L116.797 40.9375H119.176L118.836 43.8555ZM122.691 58L118.039 43.8555L117.664 40.9375H120.066L126.441 58H122.691ZM122.48 51.6484V54.4023H113.469V51.6484H122.48ZM134.668 54.4961C134.668 54.2539 134.598 54.0352 134.457 53.8398C134.316 53.6445 134.055 53.4648 133.672 53.3008C133.297 53.1289 132.754 52.9727 132.043 52.832C131.402 52.6914 130.805 52.5156 130.25 52.3047C129.703 52.0859 129.227 51.8242 128.82 51.5195C128.422 51.2148 128.109 50.8555 127.883 50.4414C127.656 50.0195 127.543 49.5391 127.543 49C127.543 48.4688 127.656 47.9688 127.883 47.5C128.117 47.0312 128.449 46.6172 128.879 46.2578C129.316 45.8906 129.848 45.6055 130.473 45.4023C131.105 45.1914 131.816 45.0859 132.605 45.0859C133.707 45.0859 134.652 45.2617 135.441 45.6133C136.238 45.9648 136.848 46.4492 137.27 47.0664C137.699 47.6758 137.914 48.3711 137.914 49.1523H134.539C134.539 48.8242 134.469 48.5312 134.328 48.2734C134.195 48.0078 133.984 47.8008 133.695 47.6523C133.414 47.4961 133.047 47.418 132.594 47.418C132.219 47.418 131.895 47.4844 131.621 47.6172C131.348 47.7422 131.137 47.9141 130.988 48.1328C130.848 48.3438 130.777 48.5781 130.777 48.8359C130.777 49.0312 130.816 49.207 130.895 49.3633C130.98 49.5117 131.117 49.6484 131.305 49.7734C131.492 49.8984 131.734 50.0156 132.031 50.125C132.336 50.2266 132.711 50.3203 133.156 50.4062C134.07 50.5938 134.887 50.8398 135.605 51.1445C136.324 51.4414 136.895 51.8477 137.316 52.3633C137.738 52.8711 137.949 53.5391 137.949 54.3672C137.949 54.9297 137.824 55.4453 137.574 55.9141C137.324 56.3828 136.965 56.793 136.496 57.1445C136.027 57.4883 135.465 57.7578 134.809 57.9531C134.16 58.1406 133.43 58.2344 132.617 58.2344C131.438 58.2344 130.438 58.0234 129.617 57.6016C128.805 57.1797 128.188 56.6445 127.766 55.9961C127.352 55.3398 127.145 54.668 127.145 53.9805H130.344C130.359 54.4414 130.477 54.8125 130.695 55.0938C130.922 55.375 131.207 55.5781 131.551 55.7031C131.902 55.8281 132.281 55.8906 132.688 55.8906C133.125 55.8906 133.488 55.832 133.777 55.7148C134.066 55.5898 134.285 55.4258 134.434 55.2227C134.59 55.0117 134.668 54.7695 134.668 54.4961ZM143.516 39.9883V58H140.141V39.9883H143.516ZM151.508 45.3203L146 51.6016L143.047 54.5898L141.816 52.1523L144.16 49.1758L147.453 45.3203H151.508ZM148.004 58L144.254 52.1406L146.586 50.1016L151.895 58H148.004ZM166.145 40.9375V58H162.641V40.9375H166.145ZM171.395 40.9375V43.6914H157.473V40.9375H171.395ZM176.48 40V58H173.105V40H176.48ZM176 51.2148H175.074C175.082 50.332 175.199 49.5195 175.426 48.7773C175.652 48.0273 175.977 47.3789 176.398 46.832C176.82 46.2773 177.324 45.8477 177.91 45.543C178.504 45.2383 179.16 45.0859 179.879 45.0859C180.504 45.0859 181.07 45.1758 181.578 45.3555C182.094 45.5273 182.535 45.8086 182.902 46.1992C183.277 46.582 183.566 47.0859 183.77 47.7109C183.973 48.3359 184.074 49.0938 184.074 49.9844V58H180.676V49.9609C180.676 49.3984 180.594 48.957 180.43 48.6367C180.273 48.3086 180.043 48.0781 179.738 47.9453C179.441 47.8047 179.074 47.7344 178.637 47.7344C178.152 47.7344 177.738 47.8242 177.395 48.0039C177.059 48.1836 176.789 48.4336 176.586 48.7539C176.383 49.0664 176.234 49.4336 176.141 49.8555C176.047 50.2773 176 50.7305 176 51.2148ZM192.477 58.2344C191.492 58.2344 190.609 58.0781 189.828 57.7656C189.047 57.4453 188.383 57.0039 187.836 56.4414C187.297 55.8789 186.883 55.2266 186.594 54.4844C186.305 53.7344 186.16 52.9375 186.16 52.0938V51.625C186.16 50.6641 186.297 49.7852 186.57 48.9883C186.844 48.1914 187.234 47.5 187.742 46.9141C188.258 46.3281 188.883 45.8789 189.617 45.5664C190.352 45.2461 191.18 45.0859 192.102 45.0859C193 45.0859 193.797 45.2344 194.492 45.5312C195.188 45.8281 195.77 46.25 196.238 46.7969C196.715 47.3438 197.074 48 197.316 48.7656C197.559 49.5234 197.68 50.3672 197.68 51.2969V52.7031H187.602V50.4531H194.363V50.1953C194.363 49.7266 194.277 49.3086 194.105 48.9414C193.941 48.5664 193.691 48.2695 193.355 48.0508C193.02 47.832 192.59 47.7227 192.066 47.7227C191.621 47.7227 191.238 47.8203 190.918 48.0156C190.598 48.2109 190.336 48.4844 190.133 48.8359C189.938 49.1875 189.789 49.6016 189.688 50.0781C189.594 50.5469 189.547 51.0625 189.547 51.625V52.0938C189.547 52.6016 189.617 53.0703 189.758 53.5C189.906 53.9297 190.113 54.3008 190.379 54.6133C190.652 54.9258 190.98 55.168 191.363 55.3398C191.754 55.5117 192.195 55.5977 192.688 55.5977C193.297 55.5977 193.863 55.4805 194.387 55.2461C194.918 55.0039 195.375 54.6406 195.758 54.1562L197.398 55.9375C197.133 56.3203 196.77 56.6875 196.309 57.0391C195.855 57.3906 195.309 57.6797 194.668 57.9062C194.027 58.125 193.297 58.2344 192.477 58.2344ZM217.238 55.2578V58H208.156V55.2578H217.238ZM209.305 40.9375V58H205.789V40.9375H209.305ZM216.055 47.8867V50.5586H208.156V47.8867H216.055ZM217.227 40.9375V43.6914H208.156V40.9375H217.227ZM221.797 45.3203L223.895 49.1758L226.051 45.3203H229.648L226.062 51.5195L229.812 58H226.203L223.918 53.9219L221.633 58H218.023L221.773 51.5195L218.188 45.3203H221.797ZM234.664 47.7578V62.875H231.289V45.3203H234.418L234.664 47.7578ZM242.691 51.5195V51.7656C242.691 52.6875 242.582 53.543 242.363 54.332C242.152 55.1211 241.84 55.8086 241.426 56.3945C241.012 56.9727 240.496 57.4258 239.879 57.7539C239.27 58.0742 238.566 58.2344 237.77 58.2344C236.996 58.2344 236.324 58.0781 235.754 57.7656C235.184 57.4531 234.703 57.0156 234.312 56.4531C233.93 55.8828 233.621 55.2227 233.387 54.4727C233.152 53.7227 232.973 52.918 232.848 52.0586V51.4141C232.973 50.4922 233.152 49.6484 233.387 48.8828C233.621 48.1094 233.93 47.4414 234.312 46.8789C234.703 46.3086 235.18 45.8672 235.742 45.5547C236.312 45.2422 236.98 45.0859 237.746 45.0859C238.551 45.0859 239.258 45.2383 239.867 45.543C240.484 45.8477 241 46.2852 241.414 46.8555C241.836 47.4258 242.152 48.1055 242.363 48.8945C242.582 49.6836 242.691 50.5586 242.691 51.5195ZM239.305 51.7656V51.5195C239.305 50.9805 239.258 50.4844 239.164 50.0312C239.078 49.5703 238.938 49.168 238.742 48.8242C238.555 48.4805 238.305 48.2148 237.992 48.0273C237.688 47.832 237.316 47.7344 236.879 47.7344C236.418 47.7344 236.023 47.8086 235.695 47.957C235.375 48.1055 235.113 48.3203 234.91 48.6016C234.707 48.8828 234.555 49.2188 234.453 49.6094C234.352 50 234.289 50.4414 234.266 50.9336V52.5625C234.305 53.1406 234.414 53.6602 234.594 54.1211C234.773 54.5742 235.051 54.9336 235.426 55.1992C235.801 55.4648 236.293 55.5977 236.902 55.5977C237.348 55.5977 237.723 55.5 238.027 55.3047C238.332 55.1016 238.578 54.8242 238.766 54.4727C238.961 54.1211 239.098 53.7148 239.176 53.2539C239.262 52.793 239.305 52.2969 239.305 51.7656ZM250.625 58.2344C249.641 58.2344 248.758 58.0781 247.977 57.7656C247.195 57.4453 246.531 57.0039 245.984 56.4414C245.445 55.8789 245.031 55.2266 244.742 54.4844C244.453 53.7344 244.309 52.9375 244.309 52.0938V51.625C244.309 50.6641 244.445 49.7852 244.719 48.9883C244.992 48.1914 245.383 47.5 245.891 46.9141C246.406 46.3281 247.031 45.8789 247.766 45.5664C248.5 45.2461 249.328 45.0859 250.25 45.0859C251.148 45.0859 251.945 45.2344 252.641 45.5312C253.336 45.8281 253.918 46.25 254.387 46.7969C254.863 47.3438 255.223 48 255.465 48.7656C255.707 49.5234 255.828 50.3672 255.828 51.2969V52.7031H245.75V50.4531H252.512V50.1953C252.512 49.7266 252.426 49.3086 252.254 48.9414C252.09 48.5664 251.84 48.2695 251.504 48.0508C251.168 47.832 250.738 47.7227 250.215 47.7227C249.77 47.7227 249.387 47.8203 249.066 48.0156C248.746 48.2109 248.484 48.4844 248.281 48.8359C248.086 49.1875 247.938 49.6016 247.836 50.0781C247.742 50.5469 247.695 51.0625 247.695 51.625V52.0938C247.695 52.6016 247.766 53.0703 247.906 53.5C248.055 53.9297 248.262 54.3008 248.527 54.6133C248.801 54.9258 249.129 55.168 249.512 55.3398C249.902 55.5117 250.344 55.5977 250.836 55.5977C251.445 55.5977 252.012 55.4805 252.535 55.2461C253.066 55.0039 253.523 54.6406 253.906 54.1562L255.547 55.9375C255.281 56.3203 254.918 56.6875 254.457 57.0391C254.004 57.3906 253.457 57.6797 252.816 57.9062C252.176 58.125 251.445 58.2344 250.625 58.2344ZM261.125 48.0859V58H257.75V45.3203H260.926L261.125 48.0859ZM264.945 45.2383L264.887 48.3672C264.723 48.3438 264.523 48.3242 264.289 48.3086C264.062 48.2852 263.855 48.2734 263.668 48.2734C263.191 48.2734 262.777 48.3359 262.426 48.4609C262.082 48.5781 261.793 48.7539 261.559 48.9883C261.332 49.2227 261.16 49.5078 261.043 49.8438C260.934 50.1797 260.871 50.5625 260.855 50.9922L260.176 50.7812C260.176 49.9609 260.258 49.207 260.422 48.5195C260.586 47.8242 260.824 47.2188 261.137 46.7031C261.457 46.1875 261.848 45.7891 262.309 45.5078C262.77 45.2266 263.297 45.0859 263.891 45.0859C264.078 45.0859 264.27 45.1016 264.465 45.1328C264.66 45.1562 264.82 45.1914 264.945 45.2383ZM273.336 45.3203V47.7109H265.953V45.3203H273.336ZM267.781 42.1914H271.156V54.1797C271.156 54.5469 271.203 54.8281 271.297 55.0234C271.398 55.2188 271.547 55.3555 271.742 55.4336C271.938 55.5039 272.184 55.5391 272.48 55.5391C272.691 55.5391 272.879 55.5312 273.043 55.5156C273.215 55.4922 273.359 55.4688 273.477 55.4453L273.488 57.9297C273.199 58.0234 272.887 58.0977 272.551 58.1523C272.215 58.207 271.844 58.2344 271.438 58.2344C270.695 58.2344 270.047 58.1133 269.492 57.8711C268.945 57.6211 268.523 57.2227 268.227 56.6758C267.93 56.1289 267.781 55.4102 267.781 54.5195V42.1914Z" fill="#888888"/>
<path d="M107.205 107.146H99.251V101.191H107.205C108.289 101.191 109.168 101.008 109.842 100.642C110.516 100.275 111.006 99.77 111.314 99.1255C111.636 98.4663 111.797 97.7266 111.797 96.9062C111.797 96.0273 111.636 95.2144 111.314 94.4673C111.006 93.7202 110.516 93.1196 109.842 92.6655C109.168 92.1968 108.289 91.9624 107.205 91.9624H102.151V118H94.439V86.0078H107.205C109.769 86.0078 111.973 86.4766 113.819 87.4141C115.679 88.3516 117.107 89.6406 118.104 91.2812C119.1 92.9072 119.598 94.7676 119.598 96.8623C119.598 98.9277 119.1 100.729 118.104 102.268C117.107 103.806 115.679 105.007 113.819 105.871C111.973 106.721 109.769 107.146 107.205 107.146ZM130.87 100.114V118H123.465V94.2256H130.386L130.87 100.114ZM137.901 94.0498L137.769 100.927C137.476 100.898 137.081 100.861 136.583 100.817C136.084 100.773 135.667 100.751 135.33 100.751C134.466 100.751 133.719 100.854 133.089 101.059C132.474 101.25 131.961 101.542 131.551 101.938C131.155 102.319 130.862 102.802 130.672 103.388C130.496 103.974 130.416 104.655 130.43 105.432L129.09 104.553C129.09 102.956 129.244 101.506 129.551 100.202C129.874 98.8838 130.328 97.7485 130.914 96.7964C131.5 95.8296 132.21 95.0898 133.045 94.5771C133.88 94.0498 134.817 93.7861 135.857 93.7861C136.224 93.7861 136.583 93.8081 136.934 93.8521C137.3 93.896 137.623 93.9619 137.901 94.0498ZM138.736 106.354V105.893C138.736 104.15 138.985 102.546 139.483 101.081C139.981 99.6016 140.713 98.3198 141.68 97.2358C142.647 96.1519 143.841 95.3096 145.262 94.709C146.683 94.0938 148.323 93.7861 150.184 93.7861C152.059 93.7861 153.707 94.0938 155.127 94.709C156.563 95.3096 157.764 96.1519 158.731 97.2358C159.698 98.3198 160.43 99.6016 160.928 101.081C161.426 102.546 161.675 104.15 161.675 105.893V106.354C161.675 108.083 161.426 109.687 160.928 111.167C160.43 112.631 159.698 113.913 158.731 115.012C157.764 116.096 156.57 116.938 155.149 117.539C153.729 118.139 152.088 118.439 150.228 118.439C148.367 118.439 146.719 118.139 145.284 117.539C143.848 116.938 142.647 116.096 141.68 115.012C140.713 113.913 139.981 112.631 139.483 111.167C138.985 109.687 138.736 108.083 138.736 106.354ZM146.141 105.893V106.354C146.141 107.248 146.207 108.083 146.338 108.859C146.47 109.636 146.69 110.317 146.998 110.903C147.305 111.474 147.723 111.921 148.25 112.243C148.777 112.565 149.437 112.727 150.228 112.727C151.004 112.727 151.648 112.565 152.161 112.243C152.688 111.921 153.106 111.474 153.414 110.903C153.721 110.317 153.941 109.636 154.073 108.859C154.205 108.083 154.271 107.248 154.271 106.354V105.893C154.271 105.029 154.205 104.216 154.073 103.454C153.941 102.678 153.721 101.997 153.414 101.411C153.106 100.81 152.688 100.341 152.161 100.004C151.634 99.6675 150.975 99.499 150.184 99.499C149.407 99.499 148.755 99.6675 148.228 100.004C147.715 100.341 147.305 100.81 146.998 101.411C146.69 101.997 146.47 102.678 146.338 103.454C146.207 104.216 146.141 105.029 146.141 105.893ZM177.496 94.2256V99.3672H163.169V94.2256H177.496ZM166.18 88.3149H173.584V110.244C173.584 110.874 173.658 111.364 173.804 111.716C173.951 112.053 174.2 112.294 174.551 112.441C174.917 112.573 175.401 112.639 176.001 112.639C176.426 112.639 176.778 112.631 177.056 112.617C177.334 112.587 177.598 112.551 177.847 112.507V117.802C177.217 118.007 176.558 118.161 175.87 118.264C175.181 118.381 174.449 118.439 173.672 118.439C172.09 118.439 170.735 118.19 169.607 117.692C168.494 117.194 167.645 116.411 167.059 115.341C166.473 114.272 166.18 112.88 166.18 111.167V88.3149ZM178.858 106.354V105.893C178.858 104.15 179.107 102.546 179.605 101.081C180.103 99.6016 180.835 98.3198 181.802 97.2358C182.769 96.1519 183.963 95.3096 185.384 94.709C186.805 94.0938 188.445 93.7861 190.306 93.7861C192.181 93.7861 193.829 94.0938 195.25 94.709C196.685 95.3096 197.886 96.1519 198.853 97.2358C199.82 98.3198 200.552 99.6016 201.05 101.081C201.548 102.546 201.797 104.15 201.797 105.893V106.354C201.797 108.083 201.548 109.687 201.05 111.167C200.552 112.631 199.82 113.913 198.853 115.012C197.886 116.096 196.692 116.938 195.271 117.539C193.851 118.139 192.21 118.439 190.35 118.439C188.489 118.439 186.841 118.139 185.406 117.539C183.97 116.938 182.769 116.096 181.802 115.012C180.835 113.913 180.103 112.631 179.605 111.167C179.107 109.687 178.858 108.083 178.858 106.354ZM186.263 105.893V106.354C186.263 107.248 186.329 108.083 186.46 108.859C186.592 109.636 186.812 110.317 187.12 110.903C187.427 111.474 187.845 111.921 188.372 112.243C188.899 112.565 189.559 112.727 190.35 112.727C191.126 112.727 191.771 112.565 192.283 112.243C192.811 111.921 193.228 111.474 193.536 110.903C193.843 110.317 194.063 109.636 194.195 108.859C194.327 108.083 194.393 107.248 194.393 106.354V105.893C194.393 105.029 194.327 104.216 194.195 103.454C194.063 102.678 193.843 101.997 193.536 101.411C193.228 100.81 192.811 100.341 192.283 100.004C191.756 99.6675 191.097 99.499 190.306 99.499C189.529 99.499 188.877 99.6675 188.35 100.004C187.837 100.341 187.427 100.81 187.12 101.411C186.812 101.997 186.592 102.678 186.46 103.454C186.329 104.216 186.263 105.029 186.263 105.893ZM217.618 94.2256V99.3672H203.292V94.2256H217.618ZM206.302 88.3149H213.707V110.244C213.707 110.874 213.78 111.364 213.926 111.716C214.073 112.053 214.322 112.294 214.673 112.441C215.04 112.573 215.523 112.639 216.124 112.639C216.548 112.639 216.9 112.631 217.178 112.617C217.457 112.587 217.72 112.551 217.969 112.507V117.802C217.339 118.007 216.68 118.161 215.992 118.264C215.303 118.381 214.571 118.439 213.794 118.439C212.212 118.439 210.857 118.19 209.729 117.692C208.616 117.194 207.767 116.411 207.181 115.341C206.595 114.272 206.302 112.88 206.302 111.167V88.3149ZM227.857 115.209L234.009 94.2256H241.963L232.405 121.538C232.2 122.138 231.929 122.783 231.592 123.471C231.255 124.174 230.794 124.841 230.208 125.471C229.622 126.101 228.868 126.613 227.945 127.009C227.037 127.404 225.909 127.602 224.561 127.602C223.843 127.602 223.316 127.565 222.979 127.492C222.657 127.434 222.159 127.324 221.485 127.163V121.867C221.675 121.867 221.836 121.867 221.968 121.867C222.115 121.867 222.276 121.867 222.452 121.867C223.243 121.867 223.873 121.787 224.341 121.625C224.825 121.464 225.191 121.23 225.44 120.922C225.704 120.615 225.909 120.241 226.055 119.802L227.857 115.209ZM226.297 94.2256L230.977 110.859L231.79 118.703H226.824L218.365 94.2256H226.297ZM251.368 98.7959V127.141H243.963V94.2256H250.862L251.368 98.7959ZM265.958 105.827V106.289C265.958 108.017 265.76 109.621 265.364 111.101C264.969 112.58 264.383 113.869 263.606 114.968C262.83 116.066 261.863 116.923 260.706 117.539C259.563 118.139 258.238 118.439 256.729 118.439C255.308 118.439 254.085 118.125 253.06 117.495C252.034 116.865 251.177 115.993 250.489 114.88C249.8 113.767 249.244 112.492 248.819 111.057C248.394 109.621 248.057 108.105 247.808 106.508V105.915C248.057 104.201 248.394 102.612 248.819 101.147C249.244 99.6675 249.8 98.3784 250.489 97.2798C251.177 96.1812 252.027 95.3242 253.038 94.709C254.063 94.0938 255.286 93.7861 256.707 93.7861C258.216 93.7861 259.542 94.0718 260.684 94.6431C261.841 95.2144 262.808 96.0347 263.584 97.104C264.375 98.1587 264.969 99.4258 265.364 100.905C265.76 102.385 265.958 104.025 265.958 105.827ZM258.553 106.289V105.827C258.553 104.904 258.487 104.062 258.355 103.3C258.223 102.524 258.011 101.85 257.718 101.279C257.439 100.708 257.066 100.268 256.597 99.9604C256.128 99.6528 255.55 99.499 254.861 99.499C254.07 99.499 253.404 99.6235 252.862 99.8726C252.334 100.107 251.91 100.473 251.587 100.971C251.28 101.455 251.06 102.062 250.928 102.795C250.811 103.513 250.76 104.355 250.774 105.322V107.124C250.745 108.237 250.855 109.218 251.104 110.068C251.353 110.903 251.785 111.555 252.4 112.023C253.016 112.492 253.851 112.727 254.905 112.727C255.608 112.727 256.194 112.565 256.663 112.243C257.132 111.906 257.505 111.445 257.784 110.859C258.062 110.258 258.26 109.57 258.377 108.793C258.494 108.017 258.553 107.182 258.553 106.289ZM277.076 94.2256V118H269.649V94.2256H277.076ZM269.209 88.0952C269.209 87.0405 269.59 86.1763 270.352 85.5024C271.114 84.8286 272.103 84.4917 273.318 84.4917C274.534 84.4917 275.523 84.8286 276.285 85.5024C277.046 86.1763 277.427 87.0405 277.427 88.0952C277.427 89.1499 277.046 90.0142 276.285 90.688C275.523 91.3618 274.534 91.6987 273.318 91.6987C272.103 91.6987 271.114 91.3618 270.352 90.688C269.59 90.0142 269.209 89.1499 269.209 88.0952ZM288.919 99.3013V118H281.514V94.2256H288.458L288.919 99.3013ZM288.04 105.3L286.304 105.344C286.304 103.527 286.524 101.909 286.963 100.488C287.403 99.0522 288.025 97.8364 288.831 96.8403C289.637 95.8442 290.596 95.0898 291.709 94.5771C292.837 94.0498 294.09 93.7861 295.467 93.7861C296.565 93.7861 297.569 93.9473 298.477 94.2695C299.4 94.5918 300.191 95.1118 300.85 95.8296C301.524 96.5474 302.037 97.4995 302.388 98.686C302.754 99.8579 302.938 101.308 302.938 103.037V118H295.489V103.015C295.489 102.062 295.357 101.337 295.093 100.839C294.83 100.327 294.449 99.9751 293.951 99.7847C293.453 99.5942 292.845 99.499 292.127 99.499C291.365 99.499 290.721 99.6455 290.193 99.9385C289.666 100.231 289.241 100.642 288.919 101.169C288.611 101.682 288.384 102.29 288.238 102.993C288.106 103.696 288.04 104.465 288.04 105.3ZM321.988 94.2256H328.711V117.077C328.711 119.274 328.206 121.135 327.195 122.658C326.185 124.196 324.771 125.361 322.955 126.152C321.153 126.958 319.043 127.36 316.626 127.36C315.557 127.36 314.466 127.221 313.353 126.943C312.239 126.679 311.199 126.284 310.232 125.756C309.266 125.229 308.453 124.577 307.793 123.801L310.892 119.45C311.492 120.124 312.247 120.695 313.155 121.164C314.063 121.647 315.132 121.889 316.363 121.889C317.432 121.889 318.326 121.699 319.043 121.318C319.776 120.937 320.333 120.38 320.713 119.648C321.094 118.93 321.285 118.059 321.285 117.033V99.8506L321.988 94.2256ZM306.189 106.398V105.937C306.189 104.135 306.409 102.495 306.849 101.015C307.303 99.521 307.947 98.2393 308.782 97.1699C309.632 96.0859 310.657 95.251 311.858 94.665C313.06 94.0791 314.415 93.7861 315.923 93.7861C317.549 93.7861 318.882 94.1011 319.922 94.731C320.977 95.3462 321.819 96.2104 322.449 97.3237C323.094 98.437 323.592 99.7407 323.943 101.235C324.31 102.714 324.617 104.311 324.866 106.025V106.574C324.617 108.186 324.273 109.709 323.833 111.145C323.409 112.565 322.852 113.825 322.164 114.924C321.475 116.022 320.611 116.887 319.571 117.517C318.545 118.132 317.315 118.439 315.879 118.439C314.385 118.439 313.038 118.139 311.836 117.539C310.65 116.938 309.632 116.096 308.782 115.012C307.947 113.928 307.303 112.653 306.849 111.188C306.409 109.724 306.189 108.127 306.189 106.398ZM313.594 105.937V106.398C313.594 107.292 313.675 108.12 313.836 108.881C314.012 109.643 314.275 110.317 314.627 110.903C314.979 111.474 315.411 111.921 315.923 112.243C316.451 112.565 317.066 112.727 317.769 112.727C318.838 112.727 319.703 112.5 320.362 112.045C321.021 111.591 321.497 110.947 321.79 110.112C322.083 109.277 322.208 108.295 322.164 107.167V105.432C322.193 104.465 322.127 103.615 321.966 102.883C321.805 102.136 321.548 101.513 321.197 101.015C320.86 100.517 320.406 100.144 319.834 99.8945C319.278 99.6309 318.604 99.499 317.813 99.499C317.125 99.499 316.517 99.6602 315.989 99.9824C315.462 100.305 315.022 100.759 314.671 101.345C314.319 101.916 314.048 102.597 313.858 103.388C313.682 104.165 313.594 105.014 313.594 105.937Z" fill="#424241"/>
<path d="M1363 15C1363 6.71573 1356.28 0 1348 0H1134V167H1348C1356.28 167 1363 160.284 1363 152V15Z" fill="#1FA6D1"/>
<path fill-rule="evenodd" clip-rule="evenodd" d="M1203 49C1203 47.8954 1203.9 47 1205 47H1292.5C1293.6 47 1294.5 47.8954 1294.5 49V118.996C1294.5 120.101 1293.6 120.996 1292.5 120.996H1205C1203.9 120.996 1203 120.101 1203 118.996V49ZM1207 51V55.4945H1290.5V51H1207ZM1290.5 59.4945H1235.44V116.996H1290.5V59.4945ZM1231.44 116.996V59.4945H1207V116.996H1231.44Z" fill="white"/>
<path fill-rule="evenodd" clip-rule="evenodd" d="M1209.97 64.8004C1209.97 63.6958 1210.87 62.8004 1211.97 62.8004H1225.97C1227.08 62.8004 1227.97 63.6958 1227.97 64.8004V84.1956C1227.97 85.3001 1227.08 86.1956 1225.97 86.1956H1211.97C1210.87 86.1956 1209.97 85.3001 1209.97 84.1956V64.8004ZM1213.97 66.8004V82.1956H1223.97V66.8004H1213.97ZM1239.58 65.6964C1239.58 64.5918 1240.47 63.6964 1241.58 63.6964H1284.5C1285.61 63.6964 1286.5 64.5918 1286.5 65.6964V111.905C1286.5 113.01 1285.61 113.905 1284.5 113.905H1241.58C1240.47 113.905 1239.58 113.01 1239.58 111.905V65.6964ZM1243.58 67.6964V109.905H1282.5V67.6964H1243.58ZM1209.81 95.9363C1209.81 94.8317 1210.71 93.9363 1211.81 93.9363H1220.73C1221.84 93.9363 1222.73 94.8317 1222.73 95.9363C1222.73 97.0409 1221.84 97.9363 1220.73 97.9363H1211.81C1210.71 97.9363 1209.81 97.0409 1209.81 95.9363ZM1209.81 102.936C1209.81 101.832 1210.71 100.936 1211.81 100.936H1226.35C1227.46 100.936 1228.35 101.832 1228.35 102.936C1228.35 104.041 1227.46 104.936 1226.35 104.936H1211.81C1210.71 104.936 1209.81 104.041 1209.81 102.936ZM1209.81 109.936C1209.81 108.832 1210.71 107.936 1211.81 107.936H1220.73C1221.84 107.936 1222.73 108.832 1222.73 109.936C1222.73 111.041 1221.84 111.936 1220.73 111.936H1211.81C1210.71 111.936 1209.81 111.041 1209.81 109.936Z" fill="white"/>
</svg>
