<svg width="1363" height="167" viewBox="0 0 1363 167" fill="none" xmlns="http://www.w3.org/2000/svg">
<rect width="1363" height="167" rx="15" fill="#F0F0F0"/>
<path d="M0 15C0 6.71573 6.71573 0 15 0H37V167H15C6.71573 167 0 160.284 0 152V15Z" fill="#1FA6D1"/>
<path d="M100.906 54.9219L93.3945 52.2383V49.0859L103.602 53.375V55.6367L100.906 54.9219ZM93.3945 57.1719L100.918 54.4297L103.602 53.7852V56.0352L93.3945 60.3242V57.1719ZM118.836 47.8555L114.195 62H110.457L116.797 44.9375H119.176L118.836 47.8555ZM122.691 62L118.039 47.8555L117.664 44.9375H120.066L126.441 62H122.691ZM122.48 55.6484V58.4023H113.469V55.6484H122.48ZM134.668 58.4961C134.668 58.2539 134.598 58.0352 134.457 57.8398C134.316 57.6445 134.055 57.4648 133.672 57.3008C133.297 57.1289 132.754 56.9727 132.043 56.832C131.402 56.6914 130.805 56.5156 130.25 56.3047C129.703 56.0859 129.227 55.8242 128.82 55.5195C128.422 55.2148 128.109 54.8555 127.883 54.4414C127.656 54.0195 127.543 53.5391 127.543 53C127.543 52.4688 127.656 51.9688 127.883 51.5C128.117 51.0312 128.449 50.6172 128.879 50.2578C129.316 49.8906 129.848 49.6055 130.473 49.4023C131.105 49.1914 131.816 49.0859 132.605 49.0859C133.707 49.0859 134.652 49.2617 135.441 49.6133C136.238 49.9648 136.848 50.4492 137.27 51.0664C137.699 51.6758 137.914 52.3711 137.914 53.1523H134.539C134.539 52.8242 134.469 52.5312 134.328 52.2734C134.195 52.0078 133.984 51.8008 133.695 51.6523C133.414 51.4961 133.047 51.418 132.594 51.418C132.219 51.418 131.895 51.4844 131.621 51.6172C131.348 51.7422 131.137 51.9141 130.988 52.1328C130.848 52.3438 130.777 52.5781 130.777 52.8359C130.777 53.0312 130.816 53.207 130.895 53.3633C130.98 53.5117 131.117 53.6484 131.305 53.7734C131.492 53.8984 131.734 54.0156 132.031 54.125C132.336 54.2266 132.711 54.3203 133.156 54.4062C134.07 54.5938 134.887 54.8398 135.605 55.1445C136.324 55.4414 136.895 55.8477 137.316 56.3633C137.738 56.8711 137.949 57.5391 137.949 58.3672C137.949 58.9297 137.824 59.4453 137.574 59.9141C137.324 60.3828 136.965 60.793 136.496 61.1445C136.027 61.4883 135.465 61.7578 134.809 61.9531C134.16 62.1406 133.43 62.2344 132.617 62.2344C131.438 62.2344 130.438 62.0234 129.617 61.6016C128.805 61.1797 128.188 60.6445 127.766 59.9961C127.352 59.3398 127.145 58.668 127.145 57.9805H130.344C130.359 58.4414 130.477 58.8125 130.695 59.0938C130.922 59.375 131.207 59.5781 131.551 59.7031C131.902 59.8281 132.281 59.8906 132.688 59.8906C133.125 59.8906 133.488 59.832 133.777 59.7148C134.066 59.5898 134.285 59.4258 134.434 59.2227C134.59 59.0117 134.668 58.7695 134.668 58.4961ZM143.516 43.9883V62H140.141V43.9883H143.516ZM151.508 49.3203L146 55.6016L143.047 58.5898L141.816 56.1523L144.16 53.1758L147.453 49.3203H151.508ZM148.004 62L144.254 56.1406L146.586 54.1016L151.895 62H148.004ZM166.145 44.9375V62H162.641V44.9375H166.145ZM171.395 44.9375V47.6914H157.473V44.9375H171.395ZM176.48 44V62H173.105V44H176.48ZM176 55.2148H175.074C175.082 54.332 175.199 53.5195 175.426 52.7773C175.652 52.0273 175.977 51.3789 176.398 50.832C176.82 50.2773 177.324 49.8477 177.91 49.543C178.504 49.2383 179.16 49.0859 179.879 49.0859C180.504 49.0859 181.07 49.1758 181.578 49.3555C182.094 49.5273 182.535 49.8086 182.902 50.1992C183.277 50.582 183.566 51.0859 183.77 51.7109C183.973 52.3359 184.074 53.0938 184.074 53.9844V62H180.676V53.9609C180.676 53.3984 180.594 52.957 180.43 52.6367C180.273 52.3086 180.043 52.0781 179.738 51.9453C179.441 51.8047 179.074 51.7344 178.637 51.7344C178.152 51.7344 177.738 51.8242 177.395 52.0039C177.059 52.1836 176.789 52.4336 176.586 52.7539C176.383 53.0664 176.234 53.4336 176.141 53.8555C176.047 54.2773 176 54.7305 176 55.2148ZM192.477 62.2344C191.492 62.2344 190.609 62.0781 189.828 61.7656C189.047 61.4453 188.383 61.0039 187.836 60.4414C187.297 59.8789 186.883 59.2266 186.594 58.4844C186.305 57.7344 186.16 56.9375 186.16 56.0938V55.625C186.16 54.6641 186.297 53.7852 186.57 52.9883C186.844 52.1914 187.234 51.5 187.742 50.9141C188.258 50.3281 188.883 49.8789 189.617 49.5664C190.352 49.2461 191.18 49.0859 192.102 49.0859C193 49.0859 193.797 49.2344 194.492 49.5312C195.188 49.8281 195.77 50.25 196.238 50.7969C196.715 51.3438 197.074 52 197.316 52.7656C197.559 53.5234 197.68 54.3672 197.68 55.2969V56.7031H187.602V54.4531H194.363V54.1953C194.363 53.7266 194.277 53.3086 194.105 52.9414C193.941 52.5664 193.691 52.2695 193.355 52.0508C193.02 51.832 192.59 51.7227 192.066 51.7227C191.621 51.7227 191.238 51.8203 190.918 52.0156C190.598 52.2109 190.336 52.4844 190.133 52.8359C189.938 53.1875 189.789 53.6016 189.688 54.0781C189.594 54.5469 189.547 55.0625 189.547 55.625V56.0938C189.547 56.6016 189.617 57.0703 189.758 57.5C189.906 57.9297 190.113 58.3008 190.379 58.6133C190.652 58.9258 190.98 59.168 191.363 59.3398C191.754 59.5117 192.195 59.5977 192.688 59.5977C193.297 59.5977 193.863 59.4805 194.387 59.2461C194.918 59.0039 195.375 58.6406 195.758 58.1562L197.398 59.9375C197.133 60.3203 196.77 60.6875 196.309 61.0391C195.855 61.3906 195.309 61.6797 194.668 61.9062C194.027 62.125 193.297 62.2344 192.477 62.2344ZM217.238 59.2578V62H208.156V59.2578H217.238ZM209.305 44.9375V62H205.789V44.9375H209.305ZM216.055 51.8867V54.5586H208.156V51.8867H216.055ZM217.227 44.9375V47.6914H208.156V44.9375H217.227ZM221.797 49.3203L223.895 53.1758L226.051 49.3203H229.648L226.062 55.5195L229.812 62H226.203L223.918 57.9219L221.633 62H218.023L221.773 55.5195L218.188 49.3203H221.797ZM234.664 51.7578V66.875H231.289V49.3203H234.418L234.664 51.7578ZM242.691 55.5195V55.7656C242.691 56.6875 242.582 57.543 242.363 58.332C242.152 59.1211 241.84 59.8086 241.426 60.3945C241.012 60.9727 240.496 61.4258 239.879 61.7539C239.27 62.0742 238.566 62.2344 237.77 62.2344C236.996 62.2344 236.324 62.0781 235.754 61.7656C235.184 61.4531 234.703 61.0156 234.312 60.4531C233.93 59.8828 233.621 59.2227 233.387 58.4727C233.152 57.7227 232.973 56.918 232.848 56.0586V55.4141C232.973 54.4922 233.152 53.6484 233.387 52.8828C233.621 52.1094 233.93 51.4414 234.312 50.8789C234.703 50.3086 235.18 49.8672 235.742 49.5547C236.312 49.2422 236.98 49.0859 237.746 49.0859C238.551 49.0859 239.258 49.2383 239.867 49.543C240.484 49.8477 241 50.2852 241.414 50.8555C241.836 51.4258 242.152 52.1055 242.363 52.8945C242.582 53.6836 242.691 54.5586 242.691 55.5195ZM239.305 55.7656V55.5195C239.305 54.9805 239.258 54.4844 239.164 54.0312C239.078 53.5703 238.938 53.168 238.742 52.8242C238.555 52.4805 238.305 52.2148 237.992 52.0273C237.688 51.832 237.316 51.7344 236.879 51.7344C236.418 51.7344 236.023 51.8086 235.695 51.957C235.375 52.1055 235.113 52.3203 234.91 52.6016C234.707 52.8828 234.555 53.2188 234.453 53.6094C234.352 54 234.289 54.4414 234.266 54.9336V56.5625C234.305 57.1406 234.414 57.6602 234.594 58.1211C234.773 58.5742 235.051 58.9336 235.426 59.1992C235.801 59.4648 236.293 59.5977 236.902 59.5977C237.348 59.5977 237.723 59.5 238.027 59.3047C238.332 59.1016 238.578 58.8242 238.766 58.4727C238.961 58.1211 239.098 57.7148 239.176 57.2539C239.262 56.793 239.305 56.2969 239.305 55.7656ZM250.625 62.2344C249.641 62.2344 248.758 62.0781 247.977 61.7656C247.195 61.4453 246.531 61.0039 245.984 60.4414C245.445 59.8789 245.031 59.2266 244.742 58.4844C244.453 57.7344 244.309 56.9375 244.309 56.0938V55.625C244.309 54.6641 244.445 53.7852 244.719 52.9883C244.992 52.1914 245.383 51.5 245.891 50.9141C246.406 50.3281 247.031 49.8789 247.766 49.5664C248.5 49.2461 249.328 49.0859 250.25 49.0859C251.148 49.0859 251.945 49.2344 252.641 49.5312C253.336 49.8281 253.918 50.25 254.387 50.7969C254.863 51.3438 255.223 52 255.465 52.7656C255.707 53.5234 255.828 54.3672 255.828 55.2969V56.7031H245.75V54.4531H252.512V54.1953C252.512 53.7266 252.426 53.3086 252.254 52.9414C252.09 52.5664 251.84 52.2695 251.504 52.0508C251.168 51.832 250.738 51.7227 250.215 51.7227C249.77 51.7227 249.387 51.8203 249.066 52.0156C248.746 52.2109 248.484 52.4844 248.281 52.8359C248.086 53.1875 247.938 53.6016 247.836 54.0781C247.742 54.5469 247.695 55.0625 247.695 55.625V56.0938C247.695 56.6016 247.766 57.0703 247.906 57.5C248.055 57.9297 248.262 58.3008 248.527 58.6133C248.801 58.9258 249.129 59.168 249.512 59.3398C249.902 59.5117 250.344 59.5977 250.836 59.5977C251.445 59.5977 252.012 59.4805 252.535 59.2461C253.066 59.0039 253.523 58.6406 253.906 58.1562L255.547 59.9375C255.281 60.3203 254.918 60.6875 254.457 61.0391C254.004 61.3906 253.457 61.6797 252.816 61.9062C252.176 62.125 251.445 62.2344 250.625 62.2344ZM261.125 52.0859V62H257.75V49.3203H260.926L261.125 52.0859ZM264.945 49.2383L264.887 52.3672C264.723 52.3438 264.523 52.3242 264.289 52.3086C264.062 52.2852 263.855 52.2734 263.668 52.2734C263.191 52.2734 262.777 52.3359 262.426 52.4609C262.082 52.5781 261.793 52.7539 261.559 52.9883C261.332 53.2227 261.16 53.5078 261.043 53.8438C260.934 54.1797 260.871 54.5625 260.855 54.9922L260.176 54.7812C260.176 53.9609 260.258 53.207 260.422 52.5195C260.586 51.8242 260.824 51.2188 261.137 50.7031C261.457 50.1875 261.848 49.7891 262.309 49.5078C262.77 49.2266 263.297 49.0859 263.891 49.0859C264.078 49.0859 264.27 49.1016 264.465 49.1328C264.66 49.1562 264.82 49.1914 264.945 49.2383ZM273.336 49.3203V51.7109H265.953V49.3203H273.336ZM267.781 46.1914H271.156V58.1797C271.156 58.5469 271.203 58.8281 271.297 59.0234C271.398 59.2188 271.547 59.3555 271.742 59.4336C271.938 59.5039 272.184 59.5391 272.48 59.5391C272.691 59.5391 272.879 59.5312 273.043 59.5156C273.215 59.4922 273.359 59.4688 273.477 59.4453L273.488 61.9297C273.199 62.0234 272.887 62.0977 272.551 62.1523C272.215 62.207 271.844 62.2344 271.438 62.2344C270.695 62.2344 270.047 62.1133 269.492 61.8711C268.945 61.6211 268.523 61.2227 268.227 60.6758C267.93 60.1289 267.781 59.4102 267.781 58.5195V46.1914Z" fill="#888888"/>
<path d="M109.93 86.0078V118H102.217V86.0078H109.93ZM119.554 86.0078V91.9624H92.813V86.0078H119.554ZM132.012 118.439C130.079 118.439 128.35 118.139 126.827 117.539C125.303 116.923 124.014 116.081 122.959 115.012C121.919 113.942 121.121 112.712 120.564 111.32C120.022 109.929 119.751 108.457 119.751 106.904V106.069C119.751 104.326 119.993 102.714 120.477 101.235C120.96 99.7407 121.678 98.437 122.63 97.3237C123.582 96.2104 124.776 95.3462 126.211 94.731C127.647 94.1011 129.317 93.7861 131.221 93.7861C132.906 93.7861 134.415 94.0571 135.748 94.5991C137.081 95.1411 138.208 95.9175 139.131 96.9282C140.069 97.939 140.779 99.1621 141.263 100.598C141.761 102.033 142.01 103.645 142.01 105.432V108.442H122.586V103.806H134.781V103.234C134.795 102.443 134.656 101.77 134.363 101.213C134.085 100.656 133.675 100.231 133.133 99.9385C132.591 99.6455 131.932 99.499 131.155 99.499C130.35 99.499 129.683 99.6748 129.156 100.026C128.643 100.378 128.24 100.861 127.947 101.477C127.669 102.077 127.471 102.773 127.354 103.564C127.237 104.355 127.178 105.19 127.178 106.069V106.904C127.178 107.783 127.295 108.581 127.53 109.299C127.779 110.017 128.13 110.632 128.584 111.145C129.053 111.643 129.61 112.031 130.254 112.309C130.914 112.587 131.661 112.727 132.496 112.727C133.506 112.727 134.502 112.536 135.484 112.155C136.465 111.774 137.308 111.145 138.011 110.266L141.373 114.265C140.889 114.953 140.201 115.62 139.307 116.264C138.428 116.909 137.374 117.436 136.143 117.846C134.913 118.242 133.536 118.439 132.012 118.439ZM155.062 112.727C155.75 112.727 156.336 112.602 156.819 112.353C157.317 112.089 157.691 111.723 157.94 111.254C158.204 110.771 158.328 110.192 158.313 109.519H165.279C165.293 111.306 164.854 112.873 163.96 114.221C163.082 115.554 161.88 116.594 160.357 117.341C158.848 118.073 157.142 118.439 155.237 118.439C153.377 118.439 151.751 118.139 150.359 117.539C148.968 116.923 147.803 116.074 146.866 114.99C145.943 113.891 145.247 112.609 144.778 111.145C144.324 109.68 144.097 108.09 144.097 106.376V105.871C144.097 104.157 144.324 102.568 144.778 101.103C145.247 99.6235 145.943 98.3418 146.866 97.2578C147.803 96.1592 148.96 95.3096 150.337 94.709C151.729 94.0938 153.348 93.7861 155.193 93.7861C157.171 93.7861 158.914 94.1597 160.423 94.9067C161.946 95.6538 163.14 96.7378 164.004 98.1587C164.869 99.5796 165.293 101.301 165.279 103.322H158.313C158.328 102.604 158.218 101.96 157.984 101.389C157.75 100.817 157.383 100.363 156.885 100.026C156.402 99.6748 155.779 99.499 155.018 99.499C154.256 99.499 153.641 99.6675 153.172 100.004C152.703 100.341 152.344 100.81 152.095 101.411C151.861 101.997 151.7 102.67 151.612 103.432C151.539 104.194 151.502 105.007 151.502 105.871V106.376C151.502 107.255 151.539 108.083 151.612 108.859C151.7 109.621 151.868 110.295 152.117 110.881C152.366 111.452 152.725 111.906 153.194 112.243C153.663 112.565 154.285 112.727 155.062 112.727ZM175.694 84.25V118H168.289V84.25H175.694ZM174.815 105.3L173.079 105.344C173.079 103.674 173.284 102.136 173.694 100.729C174.104 99.3232 174.69 98.1001 175.452 97.0601C176.214 96.02 177.129 95.2144 178.199 94.6431C179.268 94.0718 180.455 93.7861 181.758 93.7861C182.93 93.7861 184 93.9546 184.966 94.2915C185.948 94.6284 186.79 95.1704 187.493 95.9175C188.211 96.6646 188.76 97.6387 189.141 98.8398C189.537 100.041 189.734 101.506 189.734 103.234V118H182.286V103.19C182.286 102.224 182.146 101.477 181.868 100.949C181.604 100.407 181.224 100.034 180.726 99.8286C180.228 99.6089 179.62 99.499 178.902 99.499C178.038 99.499 177.334 99.6455 176.792 99.9385C176.25 100.231 175.833 100.642 175.54 101.169C175.262 101.682 175.071 102.29 174.969 102.993C174.866 103.696 174.815 104.465 174.815 105.3ZM221.88 109.497C221.88 108.999 221.807 108.552 221.661 108.156C221.514 107.746 221.243 107.365 220.848 107.014C220.452 106.662 219.881 106.311 219.134 105.959C218.401 105.593 217.435 105.212 216.233 104.816C214.827 104.348 213.472 103.82 212.168 103.234C210.865 102.634 209.7 101.938 208.675 101.147C207.649 100.341 206.836 99.4038 206.236 98.3345C205.635 97.2505 205.335 95.9907 205.335 94.5552C205.335 93.1782 205.643 91.9404 206.258 90.8418C206.873 89.7285 207.73 88.7837 208.829 88.0073C209.942 87.2163 211.246 86.6157 212.74 86.2056C214.234 85.7808 215.867 85.5684 217.64 85.5684C219.983 85.5684 222.049 85.9785 223.836 86.7988C225.638 87.6045 227.044 88.7544 228.055 90.2485C229.08 91.728 229.593 93.4785 229.593 95.5H221.924C221.924 94.6943 221.756 93.9839 221.419 93.3687C221.097 92.7534 220.606 92.27 219.947 91.9185C219.288 91.5669 218.46 91.3911 217.464 91.3911C216.497 91.3911 215.684 91.5376 215.025 91.8306C214.366 92.1235 213.868 92.519 213.531 93.0171C213.194 93.5005 213.025 94.0352 213.025 94.6211C213.025 95.1045 213.157 95.5439 213.421 95.9395C213.699 96.3203 214.087 96.6792 214.585 97.0161C215.098 97.353 215.713 97.6753 216.431 97.9829C217.164 98.2905 217.984 98.5908 218.892 98.8838C220.591 99.4258 222.1 100.034 223.418 100.708C224.751 101.367 225.872 102.121 226.78 102.971C227.703 103.806 228.399 104.758 228.868 105.827C229.351 106.896 229.593 108.105 229.593 109.453C229.593 110.888 229.314 112.163 228.758 113.276C228.201 114.389 227.403 115.334 226.363 116.11C225.323 116.872 224.078 117.451 222.627 117.846C221.177 118.242 219.559 118.439 217.771 118.439C216.131 118.439 214.512 118.234 212.916 117.824C211.333 117.399 209.898 116.755 208.609 115.891C207.32 115.012 206.287 113.891 205.511 112.529C204.749 111.152 204.368 109.519 204.368 107.629H212.103C212.103 108.566 212.227 109.357 212.476 110.002C212.725 110.646 213.091 111.167 213.575 111.562C214.058 111.943 214.651 112.221 215.354 112.397C216.058 112.558 216.863 112.639 217.771 112.639C218.753 112.639 219.544 112.5 220.145 112.221C220.745 111.928 221.185 111.547 221.463 111.079C221.741 110.595 221.88 110.068 221.88 109.497ZM245.743 94.2256V99.3672H231.417V94.2256H245.743ZM234.427 88.3149H241.832V110.244C241.832 110.874 241.905 111.364 242.051 111.716C242.198 112.053 242.447 112.294 242.798 112.441C243.165 112.573 243.648 112.639 244.249 112.639C244.673 112.639 245.025 112.631 245.303 112.617C245.582 112.587 245.845 112.551 246.094 112.507V117.802C245.464 118.007 244.805 118.161 244.117 118.264C243.428 118.381 242.696 118.439 241.919 118.439C240.337 118.439 238.982 118.19 237.854 117.692C236.741 117.194 235.892 116.411 235.306 115.341C234.72 114.272 234.427 112.88 234.427 111.167V88.3149ZM261.036 112.023V102.224C261.036 101.55 260.94 100.971 260.75 100.488C260.56 100.004 260.259 99.6309 259.849 99.3672C259.439 99.0889 258.89 98.9497 258.201 98.9497C257.645 98.9497 257.168 99.0449 256.773 99.2354C256.377 99.4258 256.077 99.7114 255.872 100.092C255.667 100.473 255.564 100.957 255.564 101.542H248.16C248.16 100.444 248.401 99.4258 248.885 98.4883C249.383 97.5361 250.086 96.7085 250.994 96.0054C251.917 95.3022 253.016 94.7603 254.29 94.3794C255.579 93.9839 257.015 93.7861 258.597 93.7861C260.486 93.7861 262.171 94.1011 263.65 94.731C265.145 95.3608 266.324 96.3057 267.188 97.5654C268.052 98.8105 268.484 100.378 268.484 102.268V112.001C268.484 113.554 268.572 114.733 268.748 115.539C268.924 116.33 269.173 117.026 269.495 117.626V118H262.068C261.717 117.268 261.453 116.374 261.277 115.319C261.116 114.25 261.036 113.151 261.036 112.023ZM261.937 103.476L261.98 107.431H258.707C258.018 107.431 257.432 107.526 256.949 107.717C256.48 107.907 256.099 108.171 255.806 108.508C255.528 108.83 255.323 109.196 255.191 109.606C255.074 110.017 255.015 110.449 255.015 110.903C255.015 111.342 255.118 111.738 255.323 112.089C255.542 112.426 255.835 112.69 256.202 112.88C256.568 113.071 256.978 113.166 257.432 113.166C258.252 113.166 258.948 113.012 259.52 112.705C260.105 112.382 260.552 111.994 260.86 111.54C261.167 111.086 261.321 110.661 261.321 110.266L262.947 113.298C262.654 113.884 262.317 114.477 261.937 115.078C261.57 115.678 261.109 116.235 260.552 116.748C260.01 117.246 259.344 117.656 258.553 117.978C257.762 118.286 256.802 118.439 255.674 118.439C254.209 118.439 252.862 118.139 251.631 117.539C250.416 116.938 249.441 116.103 248.709 115.034C247.977 113.95 247.61 112.705 247.61 111.298C247.61 110.068 247.83 108.969 248.27 108.002C248.724 107.036 249.405 106.215 250.313 105.542C251.221 104.868 252.378 104.355 253.785 104.003C255.191 103.652 256.846 103.476 258.75 103.476H261.937ZM282.635 112.727C283.323 112.727 283.909 112.602 284.393 112.353C284.891 112.089 285.264 111.723 285.513 111.254C285.777 110.771 285.901 110.192 285.887 109.519H292.852C292.867 111.306 292.427 112.873 291.534 114.221C290.655 115.554 289.454 116.594 287.93 117.341C286.421 118.073 284.715 118.439 282.811 118.439C280.95 118.439 279.324 118.139 277.933 117.539C276.541 116.923 275.376 116.074 274.439 114.99C273.516 113.891 272.82 112.609 272.352 111.145C271.897 109.68 271.67 108.09 271.67 106.376V105.871C271.67 104.157 271.897 102.568 272.352 101.103C272.82 99.6235 273.516 98.3418 274.439 97.2578C275.376 96.1592 276.534 95.3096 277.911 94.709C279.302 94.0938 280.921 93.7861 282.767 93.7861C284.744 93.7861 286.487 94.1597 287.996 94.9067C289.52 95.6538 290.713 96.7378 291.578 98.1587C292.442 99.5796 292.867 101.301 292.852 103.322H285.887C285.901 102.604 285.792 101.96 285.557 101.389C285.323 100.817 284.957 100.363 284.458 100.026C283.975 99.6748 283.353 99.499 282.591 99.499C281.829 99.499 281.214 99.6675 280.745 100.004C280.276 100.341 279.917 100.81 279.668 101.411C279.434 101.997 279.273 102.67 279.185 103.432C279.112 104.194 279.075 105.007 279.075 105.871V106.376C279.075 107.255 279.112 108.083 279.185 108.859C279.273 109.621 279.441 110.295 279.69 110.881C279.939 111.452 280.298 111.906 280.767 112.243C281.236 112.565 281.858 112.727 282.635 112.727ZM303.487 84.228V118H296.082V84.228H303.487ZM318.692 94.2256L308.365 106.333L302.959 111.738L299.729 107.036L304.234 101.169L309.815 94.2256H318.692ZM310.76 118L304.41 107.167L309.881 103.278L319.241 118H310.76Z" fill="#424241"/>
<path d="M1363 15C1363 6.71573 1356.28 0 1348 0H1134V167H1348C1356.28 167 1363 160.284 1363 152V15Z" fill="#1FA6D1"/>
<path fill-rule="evenodd" clip-rule="evenodd" d="M1218.5 55C1218.37 55 1218.24 55.0527 1218.15 55.1464C1218.05 55.2402 1218 55.3674 1218 55.5V111.5C1218 111.633 1218.05 111.76 1218.15 111.854C1218.24 111.947 1218.37 112 1218.5 112H1278C1278.13 112 1278.26 111.947 1278.35 111.854C1278.45 111.76 1278.5 111.633 1278.5 111.5V66C1278.5 65.8674 1278.45 65.7402 1278.35 65.6464C1278.26 65.5527 1278.13 65.5 1278 65.5H1248.25C1247.36 65.5 1246.52 65.1045 1245.95 64.4206L1238.09 55H1218.5ZM1213.9 50.9038C1215.12 49.6848 1216.78 49 1218.5 49H1239.5C1240.39 49 1241.23 49.3955 1241.8 50.0794L1249.66 59.5H1278C1279.72 59.5 1281.38 60.1848 1282.6 61.4038C1283.82 62.6228 1284.5 64.2761 1284.5 66V111.5C1284.5 113.224 1283.82 114.877 1282.6 116.096C1281.38 117.315 1279.72 118 1278 118H1218.5C1216.78 118 1215.12 117.315 1213.9 116.096C1212.68 114.877 1212 113.224 1212 111.5V55.5C1212 53.7761 1212.68 52.1228 1213.9 50.9038Z" fill="white"/>
<path fill-rule="evenodd" clip-rule="evenodd" d="M1243.72 77.5251C1245.09 78.892 1245.09 81.108 1243.72 82.4749L1237.45 88.75L1243.72 95.0251C1245.09 96.392 1245.09 98.608 1243.72 99.9749C1242.36 101.342 1240.14 101.342 1238.78 99.9749L1230.03 91.2249C1228.66 89.858 1228.66 87.642 1230.03 86.2751L1238.78 77.5251C1240.14 76.1583 1242.36 76.1583 1243.72 77.5251Z" fill="white"/>
<path fill-rule="evenodd" clip-rule="evenodd" d="M1252.03 99.9749C1250.66 98.608 1250.66 96.392 1252.03 95.0251L1258.3 88.75L1252.03 82.4749C1250.66 81.108 1250.66 78.892 1252.03 77.5251C1253.39 76.1583 1255.61 76.1583 1256.97 77.5251L1265.72 86.2751C1267.09 87.642 1267.09 89.858 1265.72 91.2249L1256.97 99.9749C1255.61 101.342 1253.39 101.342 1252.03 99.9749Z" fill="white"/>
</svg>
